<?xml version="1.0" encoding="UTF-8"?>
<svg width="38px" height="29px" viewBox="0 0 38 29" version="1.1" xmlns="http://www.w3.org/2000/svg" xmlns:xlink="http://www.w3.org/1999/xlink">
    <!-- Generator: Sketch 52.1 (67048) - http://www.bohemiancoding.com/sketch -->
    <title>calendar</title>
    <desc>Created with Sketch.</desc>
    <g id="Page-1" stroke="none" stroke-width="1" fill="none" fill-rule="evenodd">
        <g id="Travelpix-photographers" transform="translate(-458.000000, -1124.000000)">
            <g id="Perks" transform="translate(-3.000000, 7.000000)">
                <g id="points" transform="translate(461.000000, 920.000000)">
                    <g id="Flexible-work" transform="translate(0.000000, 197.000000)">
                        <g id="calendar">
                            <g id="schedule">
                                <rect id="Rectangle" fill="#EDC002" opacity="0.471819196" x="0" y="5" width="38" height="5" rx="2.5"></rect>
                                <path d="M30.2776025,2.25273523 L26.3974763,2.25273523 L26.3974763,1.42778993 C26.3974763,0.634573304 25.7665615,0 24.977918,0 C24.1892744,0 23.5583596,0.634573304 23.5583596,1.42778993 L23.5583596,2.25273523 L14.3785489,2.25273523 L14.3785489,1.42778993 C14.3785489,0.634573304 13.7476341,0 12.9589905,0 C12.170347,0 11.5394322,0.634573304 11.5394322,1.42778993 L11.5394322,2.25273523 L7.69085174,2.25273523 C5.67192429,2.25273523 4,3.90262582 4,5.96498906 L4,25.2877462 C4,27.3183807 5.64037855,29 7.69085174,29 L30.3091483,29 C32.3280757,29 34,27.3501094 34,25.2877462 L34,5.96498906 C33.9684543,3.90262582 32.3280757,2.25273523 30.2776025,2.25273523 Z M7.69085174,5.1083151 L11.5709779,5.1083151 L11.5709779,5.93326039 C11.5709779,6.72647702 12.2018927,7.36105033 12.9905363,7.36105033 C13.7791798,7.36105033 14.4100946,6.72647702 14.4100946,5.93326039 L14.4100946,5.1083151 L23.5899054,5.1083151 L23.5899054,5.93326039 C23.5899054,6.72647702 24.2208202,7.36105033 25.0094637,7.36105033 C25.7981073,7.36105033 26.4290221,6.72647702 26.4290221,5.93326039 L26.4290221,5.1083151 L30.3091483,5.1083151 C30.7823344,5.1083151 31.1608833,5.48905908 31.1608833,5.96498906 L31.1608833,9.74070022 L6.83911672,9.74070022 L6.83911672,5.96498906 C6.83911672,5.48905908 7.21766562,5.1083151 7.69085174,5.1083151 Z M30.2776025,26.1444201 L7.69085174,26.1444201 C7.21766562,26.1444201 6.83911672,25.7636761 6.83911672,25.2877462 L6.83911672,12.5645514 L31.1608833,12.5645514 L31.1608833,25.2877462 C31.1293375,25.7636761 30.7507886,26.1444201 30.2776025,26.1444201 Z" id="Shape" fill="#1E2433" fill-rule="nonzero"></path>
                            </g>
                        </g>
                    </g>
                </g>
            </g>
        </g>
    </g>
</svg>