<?xml version="1.0" encoding="UTF-8"?>
<svg width="30px" height="41px" viewBox="0 0 30 41" version="1.1" xmlns="http://www.w3.org/2000/svg" xmlns:xlink="http://www.w3.org/1999/xlink">
    <!-- Generator: Sketch 52.1 (67048) - http://www.bohemiancoding.com/sketch -->
    <title>moneybag</title>
    <desc>Created with Sketch.</desc>
    <g id="Page-1" stroke="none" stroke-width="1" fill="none" fill-rule="evenodd">
        <g id="Travelpix-photographers" transform="translate(-462.000000, -929.000000)">
            <g id="Perks" transform="translate(-3.000000, 7.000000)">
                <g id="points" transform="translate(461.000000, 920.000000)">
                    <g id="Steady-icnome" transform="translate(4.000000, 2.000000)">
                        <g id="moneybag">
                            <circle id="Oval" fill="#EDC002" opacity="0.471819196" cx="14.5" cy="29.5" r="11.5"></circle>
                            <g id="Group" transform="translate(0.000000, 0.273351)" fill="#202533" fill-rule="nonzero">
                                <path d="M15,0.15522 C13.1179054,0.15522 11.4234934,0.776477143 10.2321429,1.86950571 L5.57142857,1.86950571 C5.10016634,1.86810333 4.66589415,2.12461277 4.43964133,2.53801296 C4.21338852,2.95141316 4.23140953,3.45546145 4.48660714,3.85164857 L8.77232143,10.5748629 C7.117167,11.6326479 5.64912643,13.0476531 4.40625,14.6328986 C1.75636243,18.0127371 0.0669642857,22.1828057 0.0669642857,25.8695057 C0.0669642857,31.7766343 4.55435743,36.5437414 10.40625,38.1775414 C11.0437843,38.3196724 11.6677761,37.8719241 11.8220292,37.1616424 C11.9762823,36.4513607 11.60611,35.7303585 10.9821429,35.5257557 C5.91011314,34.10967 2.50446429,30.2021057 2.50446429,25.8695057 C2.50446429,23.1654771 3.90057771,19.4053929 6.21428571,16.4543271 C8.52799371,13.5032743 11.6617989,11.3784343 15,11.3784343 C18.3382011,11.3784343 21.4720063,13.5032743 23.7857143,16.4543271 C26.0994223,19.4053929 27.4955357,23.1654771 27.4955357,25.8695057 C27.4955357,28.5735343 26.2182467,31.0600843 23.9732143,32.9543271 C21.7281819,34.84857 18.5414284,36.0748629 15,36.0748629 C14.3293685,36.0748629 13.7857143,36.6864739 13.7857143,37.4409343 C13.7857143,38.1953947 14.3293685,38.8070057 15,38.8070057 C19.0327624,38.8070057 22.714473,37.4311629 25.4330357,35.1373629 C28.1515984,32.8435629 29.9330357,29.5562057 29.9330357,25.8695057 C29.9330357,22.1828057 28.2436376,18.0127371 25.59375,14.6328986 C22.9438624,11.25306 19.2359897,8.64629143 15,8.64629143 C13.6308287,8.64629143 12.3177069,8.92579286 11.0758929,9.40968429 L7.91517857,4.44093429 L10.7142857,4.44093429 C11.0980396,4.44040318 11.4614997,4.26849637 11.7053571,3.97218429 C12.2344569,3.33800143 13.4967694,2.72664857 15,2.72664857 C16.5032306,2.72664857 17.765544,3.33800143 18.2946429,3.97218429 C18.5385003,4.26849637 18.9019604,4.44040318 19.2857143,4.44093429 L22.0714286,4.44093429 L20.8794643,6.31593429 C20.6205929,6.7036936 20.5918977,7.20120263 20.8044705,7.61615381 C21.0170433,8.03110499 21.4375769,8.29848132 21.903518,8.31493093 C22.369459,8.33138053 22.8078011,8.09432599 23.0491071,7.69539857 L25.5133929,3.85164857 C25.7685905,3.45546145 25.7866115,2.95141316 25.5603587,2.53801296 C25.3341059,2.12461277 24.8998337,1.86810333 24.4285714,1.86950571 L19.7678571,1.86950571 C18.5765066,0.776477143 16.8820946,0.15522 15,0.15522 Z M14.9866071,15.1284343 C14.6432619,15.1319708 14.3155928,15.2726831 14.0766011,15.5192219 C13.8376093,15.7657608 13.7071491,16.097645 13.7142857,16.4409343 L13.7142857,16.5882557 C12.9890623,16.7629804 12.3210326,17.0921164 11.7589286,17.5659343 C10.8765437,18.3097286 10.2857143,19.4567057 10.2857143,20.7266486 C10.2857143,22.58502 11.6221037,23.7995914 12.7098214,24.34272 C13.7975391,24.8858486 14.8392857,24.99897 14.8392857,24.99897 C14.8392857,24.99897 15.5118364,25.0878986 16.1383929,25.4007557 C16.7649493,25.7136557 17.1428571,26.0090914 17.1428571,26.7266486 C17.1428571,27.2514771 16.9451721,27.59772 16.5803571,27.90522 C16.2155421,28.21272 15.6576767,28.4409343 15,28.4409343 C13.6790837,28.4409343 12.4017857,27.4498629 12.4017857,27.4498629 C12.0501024,27.1532048 11.5668684,27.0667023 11.1341134,27.2229399 C10.7013583,27.3791776 10.3848279,27.7544192 10.3037562,28.207315 C10.2226845,28.6602107 10.3893881,29.1219548 10.7410714,29.4186129 C10.7410714,29.4186129 11.929338,30.474963 13.7142857,30.8650414 L13.7142857,31.0123629 C13.7077282,31.4760376 13.9513397,31.9073246 14.3518365,32.1410756 C14.7523334,32.3748267 15.2476666,32.3748267 15.6481635,32.1410756 C16.0486603,31.9073246 16.2922718,31.4760376 16.2857143,31.0123629 L16.2857143,30.8650414 C17.0108996,30.68637 17.6789931,30.3477609 18.2410714,29.87397 C19.1234563,29.1301414 19.7142857,27.9965914 19.7142857,26.7266486 C19.7142857,24.8682771 18.377895,23.6537057 17.2901786,23.1105771 C16.2024621,22.5674486 15.1607143,22.4409343 15.1607143,22.4409343 C15.1607143,22.4409343 14.4881644,22.3520057 13.8616071,22.0391486 C13.2350499,21.7262914 12.8571429,21.4442057 12.8571429,20.7266486 C12.8571429,20.20182 13.054827,19.8421843 13.4196429,19.5346843 C13.7844587,19.2271414 14.3423224,19.0123629 15,19.0123629 C16.3209069,19.0123629 17.5982143,19.9900414 17.5982143,19.9900414 C18.1418696,20.448635 18.9543528,20.3796788 19.4129464,19.8360235 C19.87154,19.2923683 19.8025838,18.479885 19.2589286,18.0212914 C19.2589286,18.0212914 18.0706624,16.9750513 16.2857143,16.5882557 L16.2857143,16.4409343 C16.2929483,16.0929996 16.1588431,15.7569911 15.9140282,15.5096522 C15.6692132,15.2623134 15.3345977,15.1247691 14.9866071,15.1284343 Z" id="Shape"></path>
                            </g>
                        </g>
                    </g>
                </g>
            </g>
        </g>
    </g>
</svg>