<?xml version="1.0" encoding="UTF-8"?>
<svg width="36px" height="35px" viewBox="0 0 36 35" version="1.1" xmlns="http://www.w3.org/2000/svg" xmlns:xlink="http://www.w3.org/1999/xlink">
    <!-- Generator: Sketch 52.1 (67048) - http://www.bohemiancoding.com/sketch -->
    <title>Group 4</title>
    <desc>Created with Sketch.</desc>
    <g id="Page-1" stroke="none" stroke-width="1" fill="none" fill-rule="evenodd">
        <g id="Travelpix-photographers" transform="translate(-858.000000, -927.000000)">
            <g id="Perks" transform="translate(-3.000000, 7.000000)">
                <g id="points" transform="translate(461.000000, 920.000000)">
                    <g id="Full-time-photography" transform="translate(400.000000, 0.000000)">
                        <g id="Group-4">
                            <circle id="Oval" fill="#EDC002" opacity="0.471819196" cx="17.4" cy="15" r="13.8"></circle>
                            <g id="icon_navy" transform="translate(0.000000, 0.000000)" fill="#1D2331" fill-rule="nonzero">
                                <path d="M26.2441667,19.5338039 C25.910282,19.5844201 25.6651404,19.8739312 25.6702541,20.2115921 L25.6702541,20.8789927 C25.6716926,21.4975671 25.172161,22.0005838 24.5535915,22.0034459 L11.3561984,22.0034459 C11.0118294,22.0034459 10.6815649,21.8666459 10.4380593,21.6231402 C10.1945536,21.3796346 10.0577536,21.0493701 10.0577536,20.7050011 L10.0577536,18.8871783 C10.0570641,18.5490078 10.190741,18.224414 10.4293767,17.9848043 C10.6680124,17.7451946 10.9920589,17.6101967 11.3302295,17.6095086 L14.942503,17.6095086 C15.1163042,17.6075046 15.2819806,17.5356153 15.4021683,17.4100534 C15.5223559,17.2844914 15.5869337,17.1158307 15.5813378,16.942108 C15.5797123,16.7203392 15.6121175,16.4996335 15.6774228,16.2876918 C15.9626381,15.3202511 16.8502034,14.6556338 17.85881,14.6542482 C18.2124616,14.6531125 18.5613387,14.7358818 18.8767908,14.895759 C19.0609821,15.0045754 19.288824,15.0085207 19.4766723,14.9061465 C19.6990054,14.7805867 19.8323218,14.5411143 19.8219197,14.2859888 C19.8115176,14.0308632 19.6591483,13.8030389 19.4273314,13.695996 C18.9419624,13.4599015 18.4089378,13.3381942 17.8691976,13.3402221 C16.200054,13.341384 14.7527206,14.4947278 14.3789779,16.1214909 C14.3552979,16.2156555 14.2709181,16.2818776 14.1738237,16.282498 L10.7511231,16.282498 C9.64491774,16.2853629 8.75008146,17.1836856 8.75151808,18.2898937 L8.75151808,21.2685261 C8.74944798,21.8093955 8.96267971,22.3288597 9.34415929,22.7122881 C9.72563887,23.0957165 10.2440097,23.3115924 10.7848827,23.3122783 L24.9716908,23.3122783 C25.5049892,23.3109056 26.0158223,23.097379 26.391458,22.71882 C26.7670938,22.340261 26.9766541,21.8277881 26.9738927,21.294495 L26.9738927,20.1778325 C26.9730036,19.9919315 26.8927788,19.8152557 26.7533961,19.6922417 C26.6140134,19.5692278 26.4287369,19.5115822 26.2441667,19.5338039 Z" id="Path"></path>
                                <path d="M24.9716908,23.5174326 L10.7822858,23.5174326 C9.54472791,23.5117105 8.54491986,22.5060964 8.5463638,21.2685261 L8.5463638,18.2898937 C8.5449274,17.0703822 9.53161413,16.080209 10.7511231,16.0773438 L14.1738237,16.0773438 C14.5647902,14.3545054 16.0973628,13.1325457 17.8640038,13.1350678 C18.4320074,13.1315666 18.993325,13.2576854 19.5052381,13.5038261 C19.8176364,13.6512624 20.0190573,13.9634646 20.024616,14.3088619 C20.0375158,14.6348289 19.8602532,14.9387076 19.5701603,15.0879288 C19.3247434,15.2156621 19.0312068,15.2097913 18.7910934,15.0723475 C18.5046607,14.9268594 18.1878643,14.8512199 17.8666007,14.8516118 C16.7192227,14.8516118 15.789089,15.7817455 15.789089,16.9291236 C15.7904703,17.1554788 15.701696,17.3730745 15.5423683,17.533864 C15.3830405,17.6946535 15.1662645,17.7854112 14.9399061,17.7860971 L11.3224388,17.7860971 C10.7325538,17.7889589 10.2562754,18.2687224 10.2577141,18.8586126 L10.2577141,20.6764353 C10.2577073,21.2839573 10.7486831,21.7772545 11.3561984,21.7801134 L24.5535915,21.7801134 C25.0592768,21.7772564 25.4677048,21.3665079 25.4676967,20.8608145 L25.4676967,20.2115921 C25.4600817,19.7671775 25.787752,19.3880641 26.2285854,19.3312465 C26.4723524,19.3014793 26.7171766,19.3777205 26.9009428,19.5406267 C27.084709,19.703533 27.1897569,19.9374486 27.1894345,20.1830263 L27.1894345,21.294495 C27.1922038,21.8839987 26.9596056,22.4502331 26.5432468,22.8675669 C26.126888,23.2849008 25.5611993,23.5188229 24.9716908,23.5174326 Z M10.7511231,16.4850554 C10.2717788,16.4871096 9.81300117,16.6800385 9.47625057,17.0211751 C9.13949997,17.3623117 8.95252374,17.8235474 8.95667237,18.3028782 L8.95667237,21.2685261 C8.95377894,22.2770576 9.76599593,23.098557 10.7744951,23.107124 L24.9716908,23.107124 C25.451486,23.1057593 25.9109319,22.9131341 26.2482444,22.5719221 C26.5855568,22.2307101 26.7728884,21.7690805 26.7687384,21.2893013 L26.7687384,20.1830263 C26.7685578,20.0549998 26.7137644,19.9331318 26.6181188,19.8480275 C26.523356,19.7612359 26.394814,19.7212451 26.2675387,19.7389581 C26.0371551,19.7764971 25.8697765,19.9782381 25.8754084,20.2115921 L25.8754084,20.8789927 C25.8768462,21.61087 25.2854647,22.2057371 24.5535915,22.2086002 L11.3561984,22.2086002 C10.5220757,22.2057387 9.8474006,21.5287412 9.84740551,20.6946135 L9.84740551,18.8767908 C9.84740425,18.0617312 10.5073805,17.400593 11.3224388,17.3991606 L14.942503,17.3991606 C15.1857243,17.3963157 15.381394,17.1983304 15.3813773,16.9550925 C15.3797954,16.7114648 15.4148111,16.4689811 15.4852529,16.235754 C15.8027377,15.1856321 16.7669653,14.4645667 17.8640038,14.4568846 C18.2496996,14.4553738 18.6303767,14.544317 18.9754726,14.7165736 C19.0951213,14.7909242 19.2450627,14.796843 19.3701998,14.7321549 C19.5200712,14.6551834 19.6113657,14.497954 19.6039199,14.329637 C19.6024045,14.1417245 19.4948255,13.9708045 19.3260527,13.8881658 C18.8708077,13.6659532 18.3705836,13.551337 17.8640038,13.553167 C16.2945501,13.5651233 14.9366463,14.648443 14.5763415,16.1760256 C14.5335399,16.3632579 14.3658712,16.4952294 14.1738237,16.4928461 L10.7511231,16.4850554 Z" id="Shape"></path>
                                <path d="M24.9716908,23.4473166 L10.7822858,23.4473166 C9.58243673,23.443022 8.61244344,22.468382 8.61388293,21.2685261 L8.61388293,18.2898937 C8.61387514,17.1082617 9.56949887,16.1491545 10.7511231,16.1448629 L14.1738237,16.1448629 C14.2071982,16.1456953 14.2365312,16.1228808 14.2439397,16.0903282 C14.6259138,14.3994225 16.130498,13.2002883 17.8640038,13.2051838 C18.4227548,13.2025457 18.9745953,13.3287315 19.4766723,13.5739421 C19.7634411,13.7115399 19.9461052,14.0011786 19.9467093,14.3192495 C19.9542313,14.6153357 19.7932104,14.8900777 19.531207,15.0282003 C19.3069721,15.1410885 19.0413147,15.1352499 18.8222561,15.012619 C18.5265606,14.8611231 18.1988432,14.7827559 17.8666007,14.7840927 C16.9194807,14.7908124 16.0874377,15.4143181 15.8150579,16.3214514 C15.7543841,16.5209579 15.7237512,16.7283861 15.7241668,16.9369142 C15.7241668,17.367181 15.3753666,17.7159811 14.9450999,17.7159811 L11.3250357,17.7159811 C10.6974413,17.7188403 10.1901884,18.2284147 10.1901949,18.8560157 L10.1901949,20.6738384 C10.1895054,20.9837707 10.3119647,21.2812828 10.5306329,21.5009251 C10.7493012,21.7205673 11.0462661,21.8443477 11.3561984,21.8450356 L24.5509946,21.8450356 C25.0949848,21.8436041 25.5352177,21.4022096 25.5352158,20.8582176 L25.5352158,20.2115921 C25.5273448,19.8042261 25.8250715,19.4552057 26.2285854,19.3987656 C26.452108,19.3694507 26.6773701,19.4383971 26.8461929,19.5877978 C27.0150157,19.7371985 27.1108451,19.9524039 27.1089309,20.1778325 L27.1089309,21.294495 C27.1116919,21.8636025 26.8879042,22.4104229 26.4869439,22.8143063 C26.0859836,23.2181897 25.5408033,23.4459436 24.9716908,23.4473166 Z M10.7511231,16.4175363 C9.7200924,16.4218263 8.88654742,17.2588541 8.88655635,18.2898937 L8.88655635,21.2685261 C8.8851161,22.3177895 9.73303025,23.1703497 10.7822858,23.1746431 L24.9716908,23.1746431 C25.4684864,23.1732708 25.9443118,22.974245 26.2941359,22.6214975 C26.6439601,22.26875 26.8390194,21.7912849 26.8362575,21.294495 L26.8362575,20.1830263 C26.8359847,20.0351603 26.7726991,19.8944205 26.6622659,19.7960897 C26.5517322,19.6995332 26.4055061,19.6542503 26.259748,19.671439 C25.9951446,19.7129823 25.8020475,19.943811 25.8078892,20.2115921 L25.8078892,20.8789927 C25.8078907,21.5735777 25.2455782,22.137052 24.5509946,22.1384842 L11.3561984,22.1384842 C10.9739486,22.1377961 10.6076283,21.9852877 10.3378239,21.7145093 C10.0680195,21.4437309 9.91683217,21.0768633 9.91752153,20.6946135 L9.91752153,18.8767908 C9.91751627,18.0985975 10.5468477,17.4669438 11.3250357,17.4640828 L14.942503,17.4640828 C15.2293475,17.4640828 15.4618809,17.2315494 15.4618809,16.9447049 C15.4607243,16.7072585 15.4948566,16.470958 15.5631596,16.2435447 C15.8724877,15.2225534 16.8101945,14.5216412 17.8769883,14.5140162 C18.2524597,14.5147709 18.6225025,14.6037235 18.9572944,14.7737052 C19.096379,14.8586642 19.2697993,14.8645762 19.4143469,14.7892865 C19.5833743,14.6987531 19.6846443,14.5184925 19.6740359,14.3270401 C19.672947,14.1124886 19.5501178,13.9171701 19.3572154,13.8232435 C18.8926533,13.5980402 18.3828687,13.4816956 17.8666007,13.483051 C16.2667085,13.4935932 14.8811508,14.5960339 14.5114193,16.1526536 C14.4703935,16.3054879 14.3320679,16.4118922 14.1738237,16.4123425 L10.7511231,16.4175363 Z" id="Shape"></path>
                                <path d="M24.9742877,23.6524708 L10.7822858,23.6524708 C9.4697279,23.6467516 8.40871619,22.5810965 8.40872865,21.2685261 L8.40872865,18.2898937 C8.40527243,17.6677829 8.64998587,17.0699656 9.08867119,16.6288431 C9.52735651,16.1877207 10.1238089,15.939699 10.7459293,15.9397086 L14.0699481,15.9397086 C14.509049,14.2045156 16.0741329,12.9918702 17.8640038,13.0000295 C18.4533273,12.9980191 19.0352514,13.1312841 19.5649665,13.389563 C19.9201589,13.5623649 20.1466086,13.9216652 20.1492667,14.3166526 C20.1610482,14.6885375 19.9593386,15.0344695 19.6298888,15.2073857 C19.3486178,15.3524664 19.0134944,15.3475954 18.7365587,15.1944013 C18.4683284,15.0592914 18.1721312,14.9890224 17.8717945,14.989247 C17.0158083,14.9952568 16.263796,15.5587394 16.0176153,16.378583 C15.9624336,16.5595546 15.9344281,16.7477166 15.9345148,16.9369142 C15.9359606,17.4827714 15.4961359,17.927238 14.9502937,17.931523 L11.3250357,17.931523 C11.0764294,17.930137 10.8375669,18.0281043 10.6615293,18.2036543 C10.4854917,18.3792042 10.3868622,18.617794 10.3875586,18.8664032 L10.3875586,20.684226 C10.3861194,21.2167478 10.8158917,21.6500047 11.3484077,21.6528658 L24.5535915,21.6528658 C24.9838583,21.6528658 25.3326584,21.3040657 25.3326584,20.8737989 L25.3326584,20.2115921 C25.3170928,19.8138887 25.5407297,19.4453864 25.9007006,19.2755888 C26.2606714,19.1057912 26.6872743,19.1675767 26.9842802,19.4325252 C27.1956417,19.6215725 27.316522,19.8916646 27.3166821,20.1752356 L27.3166821,21.294495 C27.3222338,21.9188523 27.0777323,22.5194733 26.6376936,22.9624391 C26.1976549,23.4054049 25.598668,23.653883 24.9742877,23.6524708 Z M10.7511231,16.6200937 C10.3091909,16.620781 9.88567056,16.7971756 9.57390847,17.110399 C9.26214638,17.4236225 9.08773432,17.8479631 9.08911374,18.2898937 L9.08911374,21.2685261 C9.08773415,21.7182727 9.26507327,22.1501466 9.58211807,22.4691394 C9.89916286,22.7881322 10.3299424,22.9681135 10.7796889,22.9694889 L24.9742877,22.9694889 C25.4166735,22.9681172 25.8403177,22.7907058 26.1516681,22.4764319 C26.4630185,22.1621581 26.6364629,21.7368744 26.6337001,21.294495 L26.6337001,20.1830263 C26.6331215,20.0935099 26.5943901,20.0084899 26.5272277,19.9493062 C26.4607006,19.8898656 26.3715724,19.8623687 26.28312,19.8739964 C26.1269538,19.9099326 26.0181074,20.0514329 26.0234311,20.2115921 L26.0234311,20.8789927 C26.0177136,21.6858644 25.3604783,22.3361325 24.5535915,22.3332509 L11.3561984,22.3332509 C10.447496,22.3303888 9.71236274,21.5929328 9.71236725,20.684226 L9.71236725,18.8664032 C9.71236266,17.974907 10.433544,17.2514029 11.3250357,17.248541 L14.942503,17.248541 C15.0230863,17.2478552 15.1000963,17.2151844 15.1565902,17.1577164 C15.2130842,17.1002484 15.2444339,17.0226912 15.2437422,16.942108 C15.2363467,16.030131 15.7046083,15.1801778 16.4794451,14.6991531 C17.254282,14.2181285 18.2237531,14.1755261 19.0377979,14.5867291 C19.1148544,14.6388711 19.2139176,14.6458055 19.2974869,14.6049073 C19.4081257,14.5558948 19.478697,14.4454353 19.4766723,14.3244433 C19.474586,14.1877008 19.3964709,14.0635178 19.2741149,14.0024289 C18.8373091,13.7896647 18.3576619,13.6795235 17.8717945,13.6804146 C16.3663827,13.6918774 15.0640522,14.7313817 14.7191705,16.1968007 C14.6576934,16.4473876 14.4318283,16.6227019 14.1738237,16.6200937 L10.7511231,16.6200937 Z" id="Shape"></path>
                                <path d="M25.3066895,10.9303085 L21.484068,10.9303085 L21.1698443,9.76430504 C21.0145462,9.20597003 20.5080455,8.81814737 19.9285311,8.81384344 L15.882577,8.81384344 C15.249643,8.81411478 14.6962661,9.24060954 14.5347913,9.85259929 L14.2413428,10.9355023 L13.9037471,10.9355023 L10.7511231,10.9355023 C10.2194169,10.936878 9.7100346,11.1494177 9.33503553,11.5263648 C8.96003646,11.903312 8.75013882,12.4137886 8.75151808,12.9454949 L8.75151808,14.0621574 C8.7509231,14.2489642 8.83050678,14.427048 8.97007381,14.551218 C9.10964085,14.6753879 9.29577555,14.7337084 9.48124407,14.7113798 C9.81428665,14.6618459 10.0588334,14.3728361 10.0525598,14.0361885 L10.0525598,13.3532065 C10.0511213,12.7360663 10.5494902,12.2342123 11.1666254,12.2313502 L15.0619599,12.2313502 C15.1586188,12.2319559 15.2432492,12.1666084 15.2671142,12.0729399 L15.6878103,10.5148061 C15.7513917,10.2791669 15.9631596,10.113988 16.2071882,10.1096914 L19.4377189,10.1096914 C19.7190237,10.1100962 19.9654942,10.2981361 20.0401973,10.5693408 L20.4453121,12.0677462 C20.4699859,12.1608804 20.5541197,12.2258445 20.6504664,12.2261564 L24.849637,12.2261564 C25.0674898,12.2254637 25.2766197,12.3116989 25.4306656,12.4657449 C25.5847116,12.6197908 25.6709468,12.8289207 25.6702541,13.0467735 L25.6702541,15.5579658 C25.6709445,15.7443746 25.5973774,15.9233853 25.4658094,16.0554406 C25.3342415,16.1874958 25.1555039,16.2617242 24.9690939,16.2617229 L20.7751171,16.2617229 C20.4194299,16.2617229 20.1310885,16.5500644 20.1310885,16.9057516 C20.1312338,17.1265635 20.0988581,17.3461931 20.0350036,17.5575709 C19.8450802,18.2015483 19.3806851,18.7289123 18.7658993,18.9987572 C18.1511135,19.2686021 17.4485856,19.2534299 16.8460231,18.9572944 C16.663791,18.8584749 16.443955,18.8584749 16.2617229,18.9572944 C16.0428913,19.0881282 15.9151533,19.3299579 15.9304452,19.5844593 C15.9457371,19.8389606 16.1015127,20.0637552 16.3344358,20.1674449 C16.8123736,20.3945682 17.3348447,20.5125455 17.8640038,20.5128313 C19.522995,20.5112919 20.9634002,19.3697171 21.3438359,17.7549345 C21.369439,17.6597544 21.4531815,17.5917135 21.5515871,17.5861366 L25.4261465,17.5861366 C26.2816346,17.5861663 26.9771512,16.8964458 26.9842802,16.0409873 L26.9842802,12.5975116 C26.9849867,12.1533217 26.8081334,11.7272731 26.4930694,11.41416 C26.1780053,11.1010468 25.7508665,10.9268431 25.3066895,10.9303085 Z" id="Path"></path>
                                <path d="M17.8640038,20.7024042 C17.4448911,20.7033587 17.0286616,20.633109 16.6330781,20.494653 C16.50128,20.4490167 16.3721043,20.3961327 16.2461416,20.3362428 C15.9316666,20.1870924 15.7299805,19.8714536 15.7267637,19.5234163 C15.7144766,19.2274587 15.8626406,18.9478491 16.114431,18.7918251 C16.3662215,18.6358011 16.6825544,18.6275814 16.942108,18.7703183 C17.2285227,18.9155635 17.5454684,18.9903484 17.8666007,18.988457 C18.7803616,18.9866046 19.5856351,18.3879196 19.8506244,17.5134237 C19.9081097,17.3204501 19.9369828,17.1200888 19.9363218,16.918736 C19.9348456,16.4523248 20.3087578,16.0714669 20.7751171,16.0643593 L24.9690939,16.0643593 C25.2444646,16.0643593 25.4676967,15.8411272 25.4676967,15.5657565 L25.4676967,13.0545642 C25.4662667,12.7142338 25.1899703,12.4390984 24.849637,12.4391014 L20.6504664,12.4391014 C20.4648773,12.4351407 20.3041225,12.3092866 20.2557392,12.1300715 L19.8506244,10.6316662 C19.79985,10.4493006 19.6347977,10.3223373 19.4455096,10.3200394 L16.2305602,10.3200394 C16.0736292,10.3210326 15.9370938,10.4277008 15.8981584,10.5797284 L15.4800591,12.1378622 C15.430111,12.3193087 15.265732,12.4455094 15.0775412,12.446892 L11.1822068,12.446892 C10.6765215,12.4497491 10.2680936,12.8604976 10.2681016,13.366191 L10.2681016,14.0232041 C10.2760438,14.4644535 9.95233447,14.8417423 9.51500364,14.9009527 C9.27147675,14.9307846 9.02687771,14.8544841 8.84350288,14.6914843 C8.66012805,14.5284844 8.55567672,14.2945179 8.55675136,14.0491729 L8.55675136,12.9325104 C8.55531195,11.7125755 9.54158247,10.7216582 10.7615107,10.7173635 L14.095917,10.7173635 L14.3556059,9.78767705 C14.5451255,9.08996984 15.1777681,8.605121 15.9007553,8.60349537 L19.9285311,8.60349537 C20.6021364,8.60477272 21.1914857,9.05689091 21.367208,9.70717347 L21.6268969,10.7199604 L25.3066895,10.7199604 C26.340764,10.7199604 27.179047,11.5582434 27.179047,12.5923179 L27.179047,16.0228091 C27.1776168,16.9903163 26.3936537,17.7742794 25.4261465,17.7757096 L21.554184,17.7757096 C21.2503642,19.042248 20.3225691,20.0669331 19.0923326,20.494653 C18.6973859,20.6320964 18.2821827,20.702321 17.8640038,20.7024042 Z M16.5343963,19.0767513 C16.472484,19.0768173 16.4116447,19.0929218 16.3578078,19.1234953 C16.2135354,19.200068 16.1257643,19.3524063 16.1318784,19.5156256 C16.1368235,19.7080186 16.2477509,19.8819048 16.4201332,19.9674844 C17.2159278,20.340448 18.1252443,20.3907071 18.9572944,20.1077165 C20.0514094,19.7291107 20.8768026,18.8185346 21.1464723,17.6926091 C21.1907423,17.5026221 21.3591185,17.3674921 21.554184,17.365401 L25.4261465,17.365401 C26.1670468,17.3639721 26.7673095,16.7637094 26.7687384,16.0228091 L26.7687384,12.5975116 C26.7687384,11.7900443 26.1141568,11.1354628 25.3066895,11.1354628 L21.3282546,11.1354628 L20.9724807,9.81883973 C20.8452841,9.34910828 20.4203645,9.02192019 19.9337249,9.01899772 L15.882577,9.01899772 C15.34432,9.01904007 14.8728757,9.37980666 14.7321549,9.8993433 L14.399753,11.1380597 L13.8985533,11.1380597 L10.7511231,11.1380597 C10.2738271,11.1394352 9.81662651,11.3303604 9.48010128,11.6688337 C9.14357606,12.007307 8.9552929,12.465602 8.95667237,12.942898 L8.95667237,14.0595605 C8.9564444,14.1884213 9.0112445,14.3112491 9.10729196,14.3971562 C9.20259907,14.4829959 9.33068845,14.522846 9.45787207,14.5062255 C9.69127094,14.4670444 9.85856019,14.2596058 9.84740551,14.0232041 L9.84740551,13.3532065 C9.84739293,12.6233505 10.436782,12.0304808 11.1666254,12.0261959 L15.0619599,12.0261959 L15.4878498,10.4680621 C15.5769651,10.1399017 15.8749336,9.91216859 16.2149789,9.91232775 L19.4377189,9.91232775 C19.8116055,9.91412454 20.1385599,10.164648 20.237561,10.5251937 L20.6426757,12.023599 L24.849637,12.023599 C25.423326,12.023599 25.8883928,12.4886659 25.8883928,13.0623549 L25.8883928,15.5735472 C25.8883928,16.0740908 25.482622,16.4798617 24.9820783,16.4798617 L20.7751171,16.4798617 C20.6582691,16.4798596 20.5462443,16.5264543 20.4638643,16.6093217 C20.3814844,16.6921892 20.3355514,16.8044869 20.3362428,16.9213329 C20.3371579,17.1642532 20.3012596,17.4059099 20.2297703,17.6380744 C19.912011,18.6842913 18.9496087,19.4013548 17.8562132,19.4065563 C17.4712618,19.4088304 17.0912523,19.3198353 16.7473413,19.1468673 C16.6826411,19.1075497 16.609799,19.0835651 16.5343963,19.0767513 Z" id="Shape"></path>
                                <path d="M17.8640038,20.6322882 C17.4529291,20.6335227 17.044622,20.5650324 16.6564501,20.4297308 C16.5266807,20.3851812 16.3992677,20.3340426 16.2747074,20.2765143 C15.9833684,20.13801 15.7960617,19.8459728 15.7916859,19.5234163 C15.7796488,19.2296233 15.9385418,18.9553557 16.1993976,18.8196592 C16.4207036,18.7005403 16.6870424,18.7005403 16.9083484,18.8196592 C17.2048487,18.9686672 17.5321671,19.0460495 17.8640038,19.0455886 C18.8075989,19.0399707 19.6378411,18.4212351 19.9129498,17.5186175 C19.9698026,17.3237895 19.9978002,17.1216821 19.9960502,16.918736 C19.9960502,16.4884692 20.3448504,16.1396691 20.7751171,16.1396691 L24.9690939,16.1396691 C25.2811636,16.1382474 25.5337941,15.8856169 25.5352158,15.5735472 L25.5352158,13.0545642 C25.5352158,12.6759295 25.2282717,12.3689854 24.849637,12.3689854 L20.6504664,12.3689854 C20.4922221,12.368535 20.3538966,12.2621307 20.3128708,12.1092964 L19.907756,10.6108911 C19.850379,10.3983566 19.6578614,10.2505115 19.4377189,10.2499234 L16.2305602,10.2499234 C16.0467232,10.2532512 15.8875453,10.3784712 15.8410268,10.5563564 L15.4203307,12.1144902 C15.3793049,12.2673245 15.2409793,12.3737288 15.082735,12.3741791 L11.1666254,12.3741791 C10.9055935,12.374867 10.655526,12.4792216 10.4714356,12.6642861 C10.2873451,12.8493506 10.1843115,13.0999652 10.1850012,13.3609972 L10.1850012,14.0232041 C10.1927174,14.4300095 9.89474422,14.7782029 9.49163163,14.8334336 C9.26769556,14.8635699 9.04170689,14.7949974 8.87227744,14.6455009 C8.70284799,14.4960043 8.60667045,14.2803125 8.60868915,14.0543667 L8.60868915,12.9325104 C8.60724958,11.7498651 9.56329096,10.7891771 10.7459293,10.7848827 L14.1218859,10.7848827 L14.3815748,9.80325839 C14.5639255,9.13571453 15.1698012,8.67227279 15.8618019,8.67101451 L19.9285311,8.67101451 C20.5674823,8.67030908 21.128873,9.09480107 21.3022857,9.70977036 L21.5879436,10.7744951 L25.3066895,10.7744951 C26.30204,10.7744951 27.1089309,11.5813861 27.1089309,12.5767365 L27.1089309,16.0228091 C27.108932,16.9526063 26.3559426,17.7067578 25.4261465,17.7081904 L21.554184,17.7081904 C21.5188211,17.7119061 21.4891377,17.7364717 21.4788742,17.7705158 C21.1829951,19.0097475 20.2753293,20.0123902 19.0715575,20.4297308 C18.6831763,20.5642135 18.2750092,20.6326803 17.8640038,20.6322882 Z M16.5343963,19.0092322 C16.4619589,19.0094427 16.3906596,19.0272675 16.3266452,19.06117 C16.1579779,19.1494489 16.056449,19.3281399 16.0669562,19.5182225 C16.0671259,19.739851 16.1943292,19.9417611 16.3941643,20.0376005 C16.5098693,20.0921062 16.6286635,20.1397973 16.7499382,20.1804294 C17.473271,20.4311428 18.2599304,20.4311428 18.9832633,20.1804294 C20.0986946,19.7934748 20.9397249,18.8643272 21.2139915,17.7159811 C21.2575761,17.5637754 21.3958725,17.4582057 21.554184,17.4562922 L25.4261465,17.4562922 C26.2053492,17.4548598 26.8362588,16.8227882 26.8362575,16.0435842 L26.8362575,12.5975116 C26.8362575,11.7527546 26.1514466,11.0679436 25.3066895,11.0679436 L21.3801924,11.0679436 L21.0348061,9.8006615 C20.8989526,9.29994258 20.4447552,8.95211461 19.9259342,8.95147859 L15.882577,8.95147859 C15.3140704,8.95156875 14.8160994,9.33249532 14.6672327,9.88116508 L14.3452184,11.0705405 L13.9011502,11.0575561 L10.7511231,11.0575561 C9.71907827,11.0618493 8.885116,11.9004576 8.88655635,12.9325104 L8.88655635,14.0491729 C8.88682914,14.1970389 8.95011482,14.3377787 9.06054795,14.4361095 C9.17005917,14.5364599 9.31844034,14.5830668 9.46566274,14.5633571 C9.72967174,14.5207659 9.92222686,14.2905851 9.91752153,14.0232041 L9.91752153,13.3532065 C9.91749801,12.6616451 10.4750875,12.0994186 11.1666254,12.093715 L15.0619599,12.093715 C15.0970687,12.093816 15.1279075,12.0704211 15.1372697,12.0365835 L15.5553689,10.4784497 C15.6313739,10.1742692 15.9040463,9.96040852 16.2175758,9.95907177 L19.4377189,9.95907177 C19.781304,9.95931162 20.0817923,10.1905384 20.1700418,10.5225968 L20.5777535,12.0184053 C20.5860693,12.0518396 20.6160138,12.0753674 20.6504664,12.0755368 L24.849637,12.0755368 C25.3788651,12.0755368 25.8078892,12.504561 25.8078892,13.0337891 L25.8078892,15.5449814 C25.8078892,16.0082353 25.4323478,16.3837767 24.9690939,16.3837767 L20.7751171,16.3837767 C20.4882726,16.3837767 20.2557392,16.6163102 20.2557392,16.9031547 C20.2568826,17.1388965 20.2227451,17.3734826 20.1544605,17.5991211 C19.8457912,18.6172347 18.9096874,19.3153639 17.8458256,19.3208589 C17.4702025,19.3213829 17.0998653,19.2323595 16.7655195,19.06117 C16.6929286,19.0279731 16.6142109,19.0102837 16.5343963,19.0092322 Z" id="Shape"></path>
                                <path d="M17.8640038,20.8374425 C17.4300857,20.8379742 16.9991282,20.7660017 16.588931,20.6244975 C16.4526303,20.5775884 16.3191077,20.5229656 16.18901,20.4608935 C15.8221914,20.2935988 15.5853064,19.9291604 15.5813378,19.5260132 C15.5689859,19.1826501 15.7414108,18.8589532 16.0332516,18.6776256 C16.3250925,18.4962981 16.6916774,18.4850955 16.9940458,18.6482645 C17.2622762,18.7833744 17.5584733,18.8536434 17.85881,18.8534188 C18.7122623,18.8489981 19.4631386,18.2887369 19.7103924,17.4718735 C19.7649071,17.2925955 19.7920473,17.1061156 19.7908959,16.918736 C19.7908791,16.3738911 20.230289,15.931003 20.7751171,15.9267242 L24.9690939,15.9267242 C25.1684508,15.9267242 25.3300615,15.7651134 25.3300615,15.5657565 L25.3300615,13.0545642 C25.3300615,12.789233 25.1149681,12.5741396 24.849637,12.5741396 L20.6504664,12.5741396 C20.4000744,12.5735041 20.1810297,12.4054989 20.1155071,12.1638311 L19.7103924,10.6680226 C19.6775133,10.5443216 19.5657144,10.4580767 19.4377189,10.4576746 L16.2305602,10.4576746 C16.1367062,10.4569938 16.0543584,10.5200915 16.0305997,10.6108911 L15.6099036,12.1690248 C15.546738,12.405716 15.3354096,12.5726654 15.0905257,12.5793334 L11.1666254,12.5793334 C10.7363587,12.5793334 10.3875586,12.9281335 10.3875586,13.3584003 L10.3875586,14.0232041 C10.4031242,14.4209074 10.1794873,14.7894097 9.81951642,14.9592073 C9.45954557,15.1290049 9.03294273,15.0672194 8.73593675,14.8022709 C8.52293699,14.6130915 8.40101811,14.3418456 8.40093798,14.0569636 L8.40093798,12.9325104 C8.40093798,11.6417101 9.44733837,10.5953097 10.7381387,10.5953097 L13.9686694,10.5953097 L14.1920019,9.76430504 C14.3980667,9.00740205 15.0851408,8.48199239 15.8695926,8.48144156 L19.9285311,8.48144156 C20.6632972,8.48253746 21.3065983,8.97484887 21.4996493,9.68380146 L21.7463538,10.5979066 L25.3066895,10.5979066 C25.839084,10.5979066 26.3496729,10.8093995 26.7261326,11.1858592 C27.1025924,11.5623189 27.3140852,12.0729079 27.3140852,12.6053023 L27.3140852,16.0228091 C27.3154644,16.5246599 27.117249,17.0064665 26.763117,17.3620599 C26.4089849,17.7176532 25.9279987,17.917851 25.4261465,17.9185385 L21.6528658,17.9185385 C21.3166945,19.1857103 20.3725579,20.2028472 19.1338829,20.6322882 C18.7251087,20.771478 18.2958124,20.8408326 17.8640038,20.8374425 Z M16.5343963,19.2169833 C16.4946235,19.2176284 16.4555304,19.2274017 16.4201332,19.2455491 C16.3239248,19.2956938 16.2652663,19.3968291 16.2695136,19.5052381 C16.2707389,19.6463682 16.3524096,19.7744198 16.4798617,19.8350431 C16.5877371,19.8869453 16.6987546,19.9320462 16.8122635,19.9700813 C17.4926282,20.2063594 18.2327826,20.2063594 18.9131472,19.9700813 C19.9616932,19.6090334 20.7531036,18.7373066 21.0114341,17.6588495 C21.0731538,17.4087595 21.2965983,17.2323559 21.554184,17.2303628 L25.4261465,17.2303628 C26.0924674,17.2289344 26.6322718,16.68913 26.6337001,16.0228091 L26.6337001,12.5975116 C26.6337001,11.8646239 26.0395773,11.270501 25.3066895,11.270501 L21.2217821,11.270501 L20.8400394,9.86818063 C20.7286825,9.456295 20.3552042,9.17006797 19.9285311,9.16961732 L15.882577,9.16961732 C15.4065218,9.17041648 14.9897504,9.48937423 14.8645963,9.94868421 L14.5010317,11.2912762 L13.8959565,11.2756948 L10.7511231,11.2756948 C9.83641996,11.2785266 9.09480847,12.0178206 9.08911374,12.9325104 L9.08911374,14.0491729 C9.08866961,14.1389117 9.1275847,14.2243351 9.19558621,14.282893 C9.26031417,14.3437978 9.34898035,14.3723998 9.43709695,14.3607997 C9.59326315,14.3248635 9.70210954,14.1833632 9.69678591,14.0232041 L9.69678591,13.3532065 C9.69678346,12.9638568 9.85180667,12.5905291 10.1276054,12.315705 C10.4034041,12.0408808 10.7772781,11.8871801 11.1666254,11.8885608 L14.9788594,11.8885608 L15.3709898,10.4317057 C15.4746825,10.0422852 15.8275713,9.7714884 16.2305602,9.77209571 L19.4377189,9.77209571 C19.8738064,9.77314339 20.255428,10.0654719 20.3700023,10.4862404 L20.7491482,11.8885608 L24.849637,11.8885608 C25.4915762,11.8899889 26.0116154,12.4100281 26.0130435,13.0519673 L26.0130435,15.5631596 C26.0130435,16.1368486 25.5479767,16.6019155 24.9742877,16.6019155 L20.7751171,16.6019155 C20.6073131,16.6019155 20.471281,16.7379475 20.471281,16.9057516 C20.4740453,17.6008702 20.1996676,18.2684292 19.7088722,18.7606867 C19.2180768,19.2529443 18.551337,19.5293066 17.8562132,19.5286101 C17.449349,19.5297754 17.0479944,19.4345538 16.6850159,19.2507429 C16.6377786,19.228915 16.5864314,19.2174061 16.5343963,19.2169833 Z" id="Shape"></path>
                                <circle id="Oval" cx="17.8873758" cy="16.9758676" r="1"></circle>
                                <path d="M20.0000142,22.2186063 L20.0000142,22.2186063 C20.4317152,22.2186063 20.781678,22.5685691 20.781678,23.0002701 L20.781678,34.2551898 C20.781678,34.6868908 20.4317152,35.0368536 20.0000142,35.0368536 L20.0000142,35.0368536 C19.5683132,35.0368536 19.2183504,34.6868908 19.2183504,34.2551898 L19.2183504,23.0002701 C19.2183504,22.5685691 19.5683132,22.2186063 20.0000142,22.2186063 Z" id="Rectangle" transform="translate(20.000014, 28.627730) rotate(-24.200000) translate(-20.000014, -28.627730) "></path>
                                <path d="M22.3098789,34.7463834 C21.9209557,34.7475571 21.5678154,34.5195933 21.4087582,34.1646801 L16.7940853,23.8913847 C16.6874059,23.6521663 16.6799349,23.3804079 16.7733102,23.1356898 C16.9682739,22.62781 17.5366927,22.3726015 18.0457861,22.5643741 C18.2910363,22.6574463 18.489138,22.8443346 18.5963267,23.083752 L23.2084027,33.3492567 C23.426449,33.8441817 23.2066953,34.4224809 22.7149937,34.6477016 C22.5881604,34.7080536 22.4502591,34.741645 22.3098789,34.7463834 Z M17.695206,22.9175511 C17.500781,22.9197282 17.3205515,23.0197624 17.2158583,23.1836073 C17.1111651,23.3474522 17.0961142,23.5530318 17.1758281,23.7303775 L21.790501,33.9958823 C21.9243764,34.2791003 22.2591997,34.4045152 22.5461958,34.2789432 C22.8367397,34.14786 22.9667328,33.8066282 22.8370475,33.5154577 L18.2223746,23.2577436 C18.160482,23.1171276 18.0443316,23.0075341 17.9003603,22.9539075 C17.8345127,22.9303151 17.7651509,22.9180231 17.695206,22.9175511 Z" id="Shape"></path>
                                <path d="M17.8614069,0.464843245 C9.4521428,0.466438885 2.24748075,6.4820566 0.74537493,14.7560764 C-0.756730889,23.0300962 3.87365622,31.1943064 11.7457318,34.1516956 C12.9818513,34.6554922 13.6518488,33.4323572 13.8232435,33.0246455 L13.8803751,32.8973979 L18.0146234,23.7173931 C18.1292042,23.4622538 18.0989659,23.1653672 17.9352992,22.9385677 C17.7716324,22.7117682 17.499402,22.589512 17.2211545,22.6178519 C16.942907,22.6461917 16.7009149,22.820822 16.5863341,23.0759613 L12.7247592,31.6820536 C12.5235385,32.1419718 11.9964603,32.3626358 11.5275931,32.1832533 C5.41842039,29.4704335 1.70481013,23.1788138 2.28203117,16.5193695 C2.85925222,9.85992519 7.60002363,4.30110642 14.0848572,2.67989804 C20.5696907,1.05868965 27.368639,3.73257849 31.0118078,9.33692532 C34.6549767,14.9412722 34.3390239,22.2402826 30.2251985,27.5088519 C30.1864705,27.5428471 30.1508395,27.5802161 30.118726,27.6205182 C29.6200529,28.251536 29.0730566,28.8428129 28.4826856,29.389 L27.2881163,30.3836088 C26.9438051,30.6894992 26.8996529,31.2115728 27.1877026,31.5709425 C27.4757523,31.9303121 27.9949177,32.0008633 28.3684224,31.7313945 C28.8081624,31.3972614 29.2305898,31.0414875 29.6357046,30.6640729 L29.7084175,30.6043444 C34.9451181,25.7337418 36.6681143,18.1548393 34.0518621,11.4989377 C31.4356098,4.84303598 25.0130362,0.465933371 17.8614069,0.464843245 Z" id="Path"></path>
                                <path d="M12.3248382,34.4789037 C12.0989906,34.4759757 11.8758589,34.4292327 11.6678251,34.3412686 C4.30077087,31.5750941 -0.336219941,24.2562223 0.309390214,16.4134934 C0.955000369,8.5707644 6.72643128,2.10870952 14.446667,0.584514411 C22.1669027,-0.939680695 29.9611582,2.84412009 33.5389077,9.8530372 C37.1166571,16.8619543 35.6090784,25.3939397 29.8460526,30.7523671 L29.765549,30.8224831 C29.365628,31.1938383 28.9345444,31.554806 28.4904762,31.8924017 C28.0301743,32.2475192 27.3701146,32.1677572 27.0076522,31.7132163 C26.6488816,31.2580901 26.7142738,30.6007265 27.155675,30.2251985 L28.3424535,29.2279929 C28.9216494,28.6904428 29.4582221,28.1087217 29.9473313,27.4880768 C29.9876119,27.4369962 30.0328447,27.3900236 30.0823696,27.3478448 C34.1354669,22.1353176 34.4340384,14.9250532 30.8257717,9.39527486 C27.2175049,3.86549653 20.4976114,1.23489017 14.0941582,2.84542568 C7.69070499,4.45596119 3.01492365,9.95269906 2.45210373,16.5315494 C1.8892838,23.1103997 5.56346293,29.3214757 11.600306,31.9962772 C11.9630888,32.1367257 12.3719192,31.9644657 12.5247987,31.6067438 L12.6078992,31.4015895 L16.3889705,22.9876671 C16.6127092,22.4899919 17.1975308,22.2679225 17.695206,22.4916612 C18.1928812,22.7153999 18.4149506,23.3002214 18.1912119,23.7978967 L14.1011107,32.8870104 L14.0102196,33.0973585 C13.8596,33.4713106 13.3142532,34.4789037 12.3248382,34.4789037 Z M17.8614069,0.669997527 C9.55104644,0.670766435 2.43061779,6.61511082 0.945699264,14.7917305 C-0.539219262,22.9683502 4.03641653,31.0367633 11.8158479,33.9595258 C12.7948753,34.3594468 13.3739816,33.5102639 13.6051048,33.0324362 L13.7011897,32.8142975 L17.8276474,23.6316957 C17.9581616,23.3405485 17.8279429,22.9987244 17.5367957,22.8682102 C17.2456486,22.7376959 16.9038244,22.8679146 16.7733102,23.1590618 L12.8182473,31.9625177 L12.8026659,31.9625177 C12.5045703,32.390718 11.9560796,32.565383 11.4652678,32.3884076 C5.26980801,29.652768 1.49467878,23.2852882 2.06733546,16.5369914 C2.63999215,9.78869462 7.43409483,4.14839499 14.0019342,2.49584187 C20.5697735,0.843288749 27.462348,3.5430696 31.1605385,9.21676612 C34.858729,14.8904626 34.546638,22.2863399 30.3836088,27.6283089 C30.3442022,27.6633637 30.3077244,27.7015784 30.2745394,27.742572 C29.7688853,28.3813321 29.2149894,28.9803732 28.6177238,29.5344259 L27.4231546,30.5394222 C27.2375987,30.6869391 27.1448374,30.9222432 27.1798128,31.1566977 C27.2147883,31.3911523 27.372187,31.589138 27.5927183,31.6760757 C27.8132496,31.7630133 28.0634096,31.7256949 28.2489655,31.578178 C28.6800492,31.248373 29.1007453,30.895196 29.4980694,30.5394222 L29.5811699,30.4693061 C34.7692178,25.6565114 36.4786428,18.1565815 33.8885846,11.5709583 C31.2985264,4.98533517 24.9380387,0.659219328 17.8614069,0.669997527 Z" id="Shape"></path>
                            </g>
                        </g>
                    </g>
                </g>
            </g>
        </g>
    </g>
</svg>