<?xml version="1.0" encoding="UTF-8"?>
<svg width="26px" height="30px" viewBox="0 0 26 30" version="1.1" xmlns="http://www.w3.org/2000/svg" xmlns:xlink="http://www.w3.org/1999/xlink">
    <!-- Generator: Sketch 52.1 (67048) - http://www.bohemiancoding.com/sketch -->
    <title>Time</title>
    <desc>Created with Sketch.</desc>
    <g id="Page-1" stroke="none" stroke-width="1" fill="none" fill-rule="evenodd">
        <g id="Travelpix-photographers" transform="translate(-861.000000, -1129.000000)">
            <g id="Perks" transform="translate(-3.000000, 7.000000)">
                <g id="points" transform="translate(461.000000, 920.000000)">
                    <g id="No-additional-time-needed" transform="translate(402.000000, 202.000000)">
                        <g id="Time" transform="translate(1.000000, -0.000000)">
                            <ellipse id="Oval" fill="#EDC002" opacity="0.471819196" cx="13.4333333" cy="24.2666667" rx="7.36666667" ry="5.2"></ellipse>
                            <path d="M24.8529412,27.3847826 L22.5181477,27.3847826 L22.5181477,22.9871087 C22.5181477,19.4673587 20.5331665,16.3986522 17.6045056,14.82 C20.5331665,13.2413478 22.5181477,10.1726413 22.5181477,6.6528913 L22.5181477,2.25521739 L24.8610763,2.25521739 C25.4874844,2.25521739 26,1.74779348 26,1.1276087 C26,0.507423913 25.4874844,0 24.8610763,0 L1.13892365,0 C0.512515645,0 0,0.507423913 0,1.1276087 C0,1.74779348 0.512515645,2.25521739 1.13892365,2.25521739 L3.72590738,2.25521739 L3.72590738,6.6528913 C3.72590738,10.1726413 5.71088861,13.2413478 8.63954944,14.82 C5.71902378,16.3986522 3.72590738,19.4673587 3.72590738,22.995163 L3.72590738,27.3847826 L1.13892365,27.3847826 C0.512515645,27.3847826 0,27.8922065 0,28.5123913 C0,29.1325761 0.512515645,29.64 1.13892365,29.64 L24.8529412,29.64 C25.4793492,29.64 25.9918648,29.1325761 25.9918648,28.5123913 C25.9918648,27.8922065 25.4793492,27.3847826 24.8529412,27.3847826 Z M6.00375469,6.6528913 L6.00375469,2.25521739 L20.2403004,2.25521739 L20.2403004,6.6528913 C20.2403004,10.535087 17.0513141,13.6923913 13.1220275,13.6923913 C9.2008761,13.6923913 6.00375469,10.535087 6.00375469,6.6528913 Z M20.2403004,27.3847826 L6.00375469,27.3847826 L6.00375469,22.9871087 C6.00375469,19.104913 9.19274093,15.9476087 13.1301627,15.9476087 C17.0513141,15.9476087 20.2403004,19.104913 20.2403004,22.9871087 L20.2403004,27.3847826 Z" id="Shape" fill="#1D2331" fill-rule="nonzero"></path>
                        </g>
                    </g>
                </g>
            </g>
        </g>
    </g>
</svg>