<?xml version="1.0" encoding="UTF-8"?>
<svg width="55px" height="44px" viewBox="0 0 55 44" version="1.1" xmlns="http://www.w3.org/2000/svg" xmlns:xlink="http://www.w3.org/1999/xlink">
    <!-- Generator: Sketch 52.1 (67048) - http://www.bohemiancoding.com/sketch -->
    <title>Group 7</title>
    <desc>Created with Sketch.</desc>
    <g id="Page-1" stroke="none" stroke-width="1" fill="none" fill-rule="evenodd">
        <g id="Travelpix-1" transform="translate(-231.000000, -1684.000000)" fill="#0E282D">
            <g id="Group-6" transform="translate(197.000000, 1369.000000)">
                <g id="Group-7" transform="translate(34.709753, 314.869585)">
                    <g id="Fill-166-+-Fill-167">
                        <path d="M22.8899297,3.70655738 L3.66744731,3.70655738 L3.66744731,26.3918033 L22.8899297,26.3918033 L22.8899297,3.70655738 Z M23.9016393,3.19098361 L23.9016393,26.907377 C23.9016393,27.1919738 23.6750164,27.4229508 23.3957845,27.4229508 L3.16159251,27.4229508 C2.88236066,27.4229508 2.6557377,27.1919738 2.6557377,26.907377 L2.6557377,3.19098361 C2.6557377,2.90638689 2.88236066,2.67540984 3.16159251,2.67540984 L23.3957845,2.67540984 C23.6750164,2.67540984 23.9016393,2.90638689 23.9016393,3.19098361 L23.9016393,3.19098361 Z" id="Fill-166" transform="translate(13.278689, 15.049180) rotate(-13.000000) translate(-13.278689, -15.049180) "></path>
                        <path d="M4.53105714,20.9849477 L10.2815907,19.0640212 L10.2838103,17.6873057 C9.90741198,17.3981891 9.35488506,16.7233927 9.28111168,15.2272626 C8.86101397,14.9503733 8.6222808,14.3317976 8.62325423,13.7280283 C8.62380791,13.3846092 8.70455176,13.0775291 8.85730214,12.8422575 C8.93367897,12.7236087 9.02526027,12.6251958 9.13102861,12.5480336 C8.84060021,11.8606555 8.44602849,10.8725756 8.872685,10.2316463 C9.0233907,10.0044822 9.34076432,9.73044821 9.96848411,9.76083346 C10.5421244,8.6810222 12.087808,8.28343067 13.3463963,8.28138799 C14.7593877,8.27909472 16.5342195,8.77462648 16.8844418,10.1781219 C17.1216136,11.1350533 16.7951172,12.0270523 16.5707996,12.5481154 C16.6661648,12.6229251 16.7503268,12.7159875 16.8192222,12.8273093 C16.9651264,13.0580441 17.0418428,13.3587904 17.0412973,13.6971443 C17.0403125,14.3080049 16.7985562,14.9344517 16.3734953,15.2157517 C16.295913,16.7121275 15.7412073,17.3887209 15.362859,17.6790624 L15.3606394,19.055778 L21.1050089,20.9580484 C21.3131405,21.0255838 21.4519928,21.2198608 21.4516417,21.4376635 L21.4777741,5.22909158 C21.4782249,4.94949371 21.2520651,4.72294135 20.9706858,4.72339803 L4.71772995,4.74977639 C4.43736646,4.75023142 4.20945923,4.97752072 4.20900844,5.25711859 L4.18287604,21.4656905 C4.18322719,21.2478878 4.32372252,21.0531574 4.53105714,20.9849477" id="Fill-167" transform="translate(12.830325, 13.094544) rotate(-13.000000) translate(-12.830325, -13.094544) "></path>
                    </g>
                    <g id="Fill-166-+-Fill-167-Copy" transform="translate(25.672131, 13.278689)">
                        <path d="M23.927735,3.70655738 L4.40013382,3.70655738 L4.40013382,26.3918033 L23.927735,26.3918033 L23.927735,3.70655738 Z M24.9555035,3.19098361 L24.9555035,26.907377 C24.9555035,27.1919738 24.7252834,27.4229508 24.4416193,27.4229508 L3.88624958,27.4229508 C3.60258548,27.4229508 3.37236534,27.1919738 3.37236534,26.907377 L3.37236534,3.19098361 C3.37236534,2.90638689 3.60258548,2.67540984 3.88624958,2.67540984 L24.4416193,2.67540984 C24.7252834,2.67540984 24.9555035,2.90638689 24.9555035,3.19098361 L24.9555035,3.19098361 Z" id="Fill-166" transform="translate(14.163934, 15.049180) rotate(17.000000) translate(-14.163934, -15.049180) "></path>
                        <path d="M6.32749414,21.0356662 L12.1643228,19.1083837 L12.1675587,17.7301663 C11.7858083,17.4410138 11.2256038,16.7658918 11.1518097,15.2681861 C10.7257059,14.9913065 10.483889,14.3722337 10.4853081,13.7678058 C10.4861153,13.4240121 10.568271,13.1165376 10.7234452,12.8808964 C10.8010347,12.7620617 10.8940388,12.6634737 11.0014242,12.586149 C10.7071978,11.8982372 10.307505,10.9093732 10.7409201,10.2674292 C10.8940137,10.0399059 11.21627,9.76533803 11.8532381,9.79529104 C12.4361213,8.71387796 14.0049153,8.31470737 15.2820916,8.31172946 C16.7159514,8.30838623 18.5166397,8.80314222 18.8710314,10.2079073 C19.1110222,11.1657056 18.7790669,12.0589186 18.5510644,12.5807157 C18.6477845,12.6555362 18.7331229,12.7486376 18.8029562,12.8600297 C18.9508503,13.0909077 19.0284848,13.3919248 19.0276896,13.7306479 C19.0262538,14.3421747 18.7804798,14.9694834 18.3489407,15.251405 C18.2691438,16.7494688 17.705763,17.4272106 17.3216198,17.718149 L17.318384,19.0963663 L23.1462265,20.9964511 C23.3573835,21.0639058 23.4981476,21.2582916 23.4976356,21.4763318 L23.5357327,5.25007933 C23.5363898,4.97017647 23.3070521,4.74354491 23.0215171,4.74421067 L6.52852141,4.78266626 C6.24401723,4.78332962 6.01258194,5.01103553 6.01192476,5.29093839 L5.97382774,21.5171909 C5.97433967,21.2991506 6.11704892,21.1041039 6.32749414,21.0356662" id="Fill-167" transform="translate(14.754781, 13.130700) rotate(17.000000) translate(-14.754781, -13.130700) "></path>
                    </g>
                </g>
            </g>
        </g>
    </g>
</svg>