<?xml version="1.0" encoding="UTF-8"?>
<svg width="40px" height="41px" viewBox="0 0 40 41" version="1.1" xmlns="http://www.w3.org/2000/svg" xmlns:xlink="http://www.w3.org/1999/xlink">
    <!-- Generator: Sketch 52.1 (67048) - http://www.bohemiancoding.com/sketch -->
    <title>fam</title>
    <desc>Created with Sketch.</desc>
    <g id="Page-1" stroke="none" stroke-width="1" fill="none" fill-rule="evenodd">
        <g id="Travelpix-1" transform="translate(-239.000000, -1540.000000)" fill="#0E282D" fill-rule="nonzero">
            <g id="Group-6" transform="translate(197.000000, 1369.000000)">
                <g id="fam" transform="translate(42.000000, 171.000000)">
                    <path d="M0.00805479809,6.24967898 C0.0943361081,7.2609468 0.658184469,8.11383384 1.11116135,8.79956555 C2.09994516,10.2956277 3.21167984,11.5903137 4.52444997,12.7823375 C5.17544246,13.3741814 5.8303176,13.9616381 6.48605556,14.548656 L6.81219891,14.8377777 C7.28804033,15.2541305 7.73713455,15.6467919 8.06759197,16.289967 C8.14179389,16.4623871 8.39546095,17.4324145 8.42091393,18.0852416 C8.4321305,18.3980546 8.42091393,19.1969781 8.40754033,20.1218165 C8.36569389,23.0634871 8.34714341,25.6642661 8.49856711,27.2090271 C8.03911914,27.4450627 7.73799736,27.910553 7.69183686,28.5322304 C7.57967116,30.00504 8.77596152,31.1290609 9.64955979,31.9494821 C9.74058657,32.0359115 9.82902491,32.1192698 9.91228638,32.1982408 C10.4683694,32.734805 11.1068511,33.1735329 11.8247116,33.6508689 C11.9368773,33.7245752 12.0361008,33.7842422 12.1249706,33.8368895 C12.139207,33.8452254 12.1521492,33.852245 12.1655228,33.8601421 C12.1663856,33.892608 12.1663856,33.9347258 12.1655228,33.986057 C12.1443839,35.0289132 12.1745823,36.3297415 12.2034866,37.5880131 C12.2211742,38.3535933 12.2375677,39.094166 12.2414503,39.7272504 C12.2440388,40.176069 12.5606912,40.5612721 12.9951176,40.6433142 C14.3057307,40.8920729 17.6046966,41 18.9985711,41 C19.3549129,41 19.6003833,40.9934191 19.7492185,40.980696 C20.2164318,40.9394555 20.5779505,40.5498652 20.5921869,40.0738454 C20.635759,38.5891902 20.6594864,37.3647006 20.6672517,36.2196208 C20.6681145,36.101603 20.6616434,35.9581389 20.6538781,35.8010743 C20.647407,35.6760369 20.6387788,35.4843128 20.6413673,35.3053118 C21.7453366,36.8355947 23.6508594,38.9976459 24.7656139,39.7031203 C24.9144492,39.7974468 25.0835605,39.8448294 25.2531033,39.8448294 C25.3980559,39.8448294 25.5430085,39.8101699 25.6758817,39.7408509 C25.7285133,39.7132111 25.7781251,39.6803065 25.8234228,39.6434533 C26.0710501,39.5236806 26.8178149,39.2310491 27.1918443,39.0849527 C27.5464605,38.9467534 27.8445624,38.8282969 27.9541397,38.7774044 L28.250516,38.6405213 C33.9726925,36.0046441 34.8877058,35.093845 34.7725202,34.0509887 C34.0852896,27.7587532 34.4985771,21.8030219 35.9364551,17.2819308 C36.1569039,16.588302 36.5559549,15.9446882 36.9783019,15.2637825 C37.2522451,14.8224222 37.5352478,14.3665839 37.7789925,13.877841 C38.5969393,12.2457732 39.1996143,10.5408766 39.5688983,8.81141121 C39.7841701,7.80321448 39.9239459,6.76386808 39.9839114,5.72188931 C40.0171297,5.17347943 40.0179925,4.57988058 39.7949553,3.97355862 C39.4153175,2.93991568 38.7039281,2.64816162 38.1741609,2.58630099 C37.3091908,2.48407739 36.5805451,2.85304755 36.1711403,3.59756881 C35.6223911,4.59479733 35.1991813,5.64116338 34.7910707,6.65330865 L34.5365409,7.2798121 C33.7733827,9.14265077 32.8281709,11.0480461 31.0900339,12.3624749 C30.0123804,13.1785088 28.8251495,13.7620169 27.6185054,14.2011835 C26.2103944,13.128055 24.1914118,12.4256517 22.6650954,12.1167872 C21.5986584,11.9004944 20.5115139,11.7175448 19.4601761,11.5407375 C16.8510293,11.1011321 14.15215,10.6461713 11.6849359,9.66298207 C9.93817077,8.96672088 8.33765247,7.93746522 6.92824727,6.60329367 C6.55206076,6.24704661 6.1991702,5.86710825 5.82470931,5.46391731 C5.61806558,5.24148226 5.41185325,5.01904721 5.20089544,4.80099944 L5.0792388,4.67464581 C4.8816546,4.46844369 4.65861741,4.23547918 4.39114535,4.03190943 C2.92738292,2.92587639 1.84282686,3.18209348 1.19054015,3.59186534 C0.364828015,4.10780936 -0.0652843154,5.37397809 0.00805479809,6.24967898 Z M22.1327397,34.2041048 C23.0235942,33.6552562 23.8635428,32.987951 24.6396432,32.2039443 C25.1059937,31.7292407 25.3902906,31.1448551 25.4631983,30.5104546 L25.4770033,30.4117408 C25.5175555,30.1256902 25.6279956,29.285965 24.9191946,28.8046805 C26.1348983,26.0582438 27.0852869,21.6814942 26.7876164,20.3122245 C26.706512,19.9371121 26.5270468,19.6602748 26.2556921,19.4891709 C25.8350707,19.2233018 25.2643199,19.1903972 24.1159156,19.1465244 C22.9813164,19.1035291 21.2664754,19.0377199 20.490375,18.5094915 C20.3937399,18.4230621 20.3212636,18.1041069 20.3251463,17.8658777 C20.3251463,17.8584193 20.3268719,17.8500835 20.3255777,17.8421864 C20.3281661,17.7684801 20.3385199,17.7026709 20.358796,17.6579206 C20.4148788,17.5578907 20.6323077,17.5241086 21.0969326,17.4881329 L21.1603494,17.4833069 C21.9994351,17.4174978 22.8760532,17.2933378 24.0002987,17.0792385 C26.6051314,16.5843535 29.6163491,15.8157022 32.190552,13.8668728 C34.2867565,12.2813102 35.3747638,10.1100458 36.2384397,8.00020331 L36.4968522,7.36492531 C36.9023744,6.35979968 37.2858948,5.41083123 37.7811495,4.51187776 C37.8022884,4.47283097 37.8182505,4.45703677 37.8225645,4.45396567 C37.8221331,4.45396567 37.8588027,4.4386102 37.9606146,4.44957839 C37.9701056,4.44738475 38.011952,4.48511535 38.0645836,4.62989556 C38.1616501,4.89269358 38.1651013,5.21164876 38.141374,5.60869751 C38.0857225,6.55634978 37.9593204,7.49873732 37.7643247,8.41260754 C37.428259,9.98500835 36.8790784,11.5372277 36.1336079,13.0262702 C35.9269642,13.4377969 35.6793368,13.8383555 35.4161788,14.2621667 C34.9511225,15.0115139 34.4705357,15.7867461 34.1789048,16.7045649 C32.1793355,22.9915358 32.5063416,30.1313937 32.9092753,33.9948316 C32.580975,34.3146642 31.4368848,35.1113941 27.4882206,36.93036 L27.1853732,37.0703142 C27.091758,37.114187 26.8342083,37.2133395 26.5292039,37.3331122 C26.0292037,37.5283461 25.642232,37.6797072 25.3428359,37.8095707 C24.4295482,37.0396032 22.992533,35.3948123 22.1327397,34.2041048 Z M9.58873146,29.0038629 C9.98562549,29.1543466 10.7487837,29.5474468 12.0900266,30.5780187 L12.1590517,30.630666 C12.9105619,31.2023285 13.7772577,31.664309 14.6016756,31.9314942 C15.4006405,32.1907824 16.2569825,32.3224008 17.14568,32.3224008 C19.4226438,32.3224008 21.6357594,31.4800432 23.532654,30.6122394 C23.4851993,30.7039336 23.4200569,30.7912404 23.3376582,30.8750375 C22.2889089,31.9332492 21.1120318,32.7501605 19.8402453,33.2990091 C18.701332,33.7903844 18.7720827,35.1627252 18.8104779,35.8997881 C18.8160862,36.0138574 18.8221259,36.1187134 18.821263,36.2051427 C18.8152234,37.0988315 18.7992613,38.0425352 18.7720827,39.1235608 C17.4325654,39.1143475 15.3497345,39.0314279 14.0766538,38.9002483 C14.0693199,38.4698562 14.0585347,38.012263 14.048181,37.5454565 C14.0197081,36.3073663 13.9903725,35.0267196 14.01108,34.0246651 C14.0309247,32.9918996 13.6896821,32.5922185 13.0537889,32.2162287 C12.9882151,32.1771819 12.914876,32.1341865 12.8329087,32.0797843 C12.0740646,31.5761246 11.5857124,31.2282134 11.1823473,30.8381843 C11.0934775,30.7530711 10.9989995,30.6644481 10.9015016,30.5723152 C10.4398966,30.1392908 9.78588426,29.5241942 9.58873146,29.0038629 Z M1.84670951,6.08866584 C1.82298215,5.81402217 2.02186057,5.29149724 2.1616363,5.18488636 C2.25827136,5.12521936 2.5240178,4.95850276 3.28717599,5.53586868 C3.43730547,5.64949921 3.59218042,5.81095108 3.75611491,5.98293241 L3.88510546,6.11674442 C4.08441529,6.32338527 4.28329371,6.53748448 4.48174072,6.7515837 C4.85922145,7.15828447 5.25007579,7.57902453 5.66940296,7.97607328 C7.24921374,9.47125797 9.04645343,10.6264285 11.0097846,11.4091191 C13.6581895,12.4651372 16.4532725,12.9358922 19.1564659,13.3912918 C20.1935673,13.5659055 21.266044,13.7466614 22.3031453,13.9568121 C23.1922742,14.1366905 24.2492203,14.4727561 25.182784,14.9145551 C24.6650962,15.0360827 24.1551736,15.1413774 23.6607817,15.2348264 C22.6038357,15.4357638 21.7880459,15.5524654 21.0171224,15.6125712 L20.9558627,15.6173972 C20.2988305,15.6682896 19.3048698,15.7455057 18.7513752,16.7361533 C18.5861465,17.0331721 18.4972767,17.4109168 18.4851973,17.8097205 C18.2953785,19.2377798 18.0977943,21.1747635 17.9808831,22.3676647 C17.7867501,22.3448508 17.5857147,22.3299341 17.3756197,22.3299341 C15.4273877,22.3299341 13.8424,23.9677053 13.8424,25.9801502 C13.8424,27.9087981 15.3320469,29.4776891 17.3065946,29.6281728 C17.4040925,29.6360699 17.5007276,29.6387022 17.595637,29.6387022 C18.5520654,29.6387022 19.4334289,29.2534991 20.0775189,28.5541668 C20.7751033,27.7956063 21.150427,26.7106322 21.0818334,25.6506656 C21.0067686,24.4928626 20.543438,23.5961028 19.7707889,23.0275114 C19.8294602,22.4211895 19.9278208,21.423961 20.040418,20.3802273 C21.2203149,20.9084557 22.7656131,20.9720712 24.0468906,21.0203313 C24.3523264,21.0317382 24.7289443,21.0462162 25.0080644,21.0699075 C24.9739833,22.491386 24.0369682,26.7878483 22.8113422,28.8814579 C21.0865788,29.6724843 19.0943434,30.4442067 17.14568,30.4442067 C16.4476642,30.4442067 15.7798469,30.3428605 15.1612099,30.1423619 C14.5283365,29.9370372 13.8549108,29.5768416 13.2656095,29.1275842 L13.2021927,29.0788854 C12.0451604,28.1904614 11.1146164,27.607392 10.359655,27.2985276 C10.1724245,25.8630099 10.2259189,22.0807366 10.2526661,20.1490177 C10.2669026,19.1206395 10.2776877,18.3774344 10.2647455,18.0150452 C10.2319586,17.1538223 9.92307154,15.8468519 9.70262279,15.4190922 C9.20866229,14.4591555 8.54774746,13.8809121 8.016686,13.4158605 L7.70693609,13.1416556 C7.05421798,12.5568313 6.40236268,11.9715683 5.75352723,11.3823567 C4.55680546,10.2960664 3.5451571,9.11676583 2.65904805,7.77776827 C2.29148967,7.22058383 1.89243861,6.61645551 1.84670951,6.08866584 Z M18.7315305,27.2735201 C18.4317029,27.5990562 18.0499081,27.7644566 17.5964998,27.7644566 C17.5964998,27.7644566 17.5964998,27.7644566 17.5960684,27.7644566 C17.5473195,27.7644566 17.4972763,27.7627017 17.4463704,27.7587532 C16.5719093,27.6916278 15.6883887,27.0594209 15.6883887,25.9810277 C15.6883887,25.0031032 16.4455072,24.2072508 17.3764825,24.2072508 C18.9403313,24.2072508 19.1948611,25.0452211 19.241453,25.7752643 C19.276397,26.3192869 19.0809698,26.893143 18.7315305,27.2735201 Z M32.375194,7.32280743 C32.375194,4.83302658 30.38339,2.80698112 27.9347264,2.80698112 C25.4860628,2.80698112 23.4942588,4.83346531 23.4942588,7.32324616 C23.4942588,9.81302701 25.4860628,11.8390725 27.9347264,11.8390725 C30.38339,11.8390725 32.375194,9.81302701 32.375194,7.32280743 Z M30.5300682,7.32280743 C30.5300682,8.77806789 29.3657019,9.96263322 27.934295,9.96263322 C26.5037509,9.96263322 25.3385218,8.77850661 25.3385218,7.32280743 C25.3385218,5.86710825 26.5028881,4.68342037 27.934295,4.68342037 C29.3657019,4.68342037 30.5300682,5.86754698 30.5300682,7.32280743 Z M20.8708756,5.13574883 C21.0179852,3.81386166 20.6072862,2.49109703 19.7431788,1.50746908 C18.9015047,0.549287335 17.7021945,0 16.4532725,0 C13.824281,0 11.4291118,2.39764799 11.4291118,5.03045414 C11.4291118,7.67949322 13.5486122,9.83452468 16.1530135,9.83452468 C18.5848523,9.83452468 20.5684596,7.85893293 20.8708756,5.13574883 Z M19.0369663,4.92559817 C18.8747575,6.38700081 17.9036613,7.95896289 16.1525821,7.95896289 C14.565006,7.95896289 13.2742376,6.64541155 13.2742376,5.03133159 C13.2742376,3.44006549 14.8484401,1.8773167 16.4528411,1.8773167 C17.1883893,1.8773167 17.8674232,2.19012969 18.3665605,2.75828233 C18.8807971,3.34354535 19.1258361,4.1336943 19.0369663,4.92559817 Z" id="Shape"></path>
                </g>
            </g>
        </g>
    </g>
</svg>