<?xml version="1.0" encoding="UTF-8"?>
<svg width="44px" height="44px" viewBox="0 0 44 44" version="1.1" xmlns="http://www.w3.org/2000/svg" xmlns:xlink="http://www.w3.org/1999/xlink">
    <!-- Generator: Sketch 52.1 (67048) - http://www.bohemiancoding.com/sketch -->
    <title>phne</title>
    <desc>Created with Sketch.</desc>
    <g id="Page-1" stroke="none" stroke-width="1" fill="none" fill-rule="evenodd">
        <g id="Travelpix-1" transform="translate(-239.000000, -1799.000000)" fill="#0E282D" fill-rule="nonzero">
            <g id="Group-6" transform="translate(197.000000, 1369.000000)">
                <g id="phne" transform="translate(42.000000, 430.000000)">
                    <g id="Group">
                        <path d="M15,0.179055281 C12.801295,0.179055281 11,1.97277213 11,4.16253843 L11,19.1005384 L9,19.1005384 C3.997755,19.1005384 0,23.3685483 0,28.5612899 C0,33.7537843 3.997755,38.0220315 9,38.0220315 L15,38.0220315 L17.5,38.0220315 L17.5,42.6901843 C17.496,43.0714517 17.73053,43.4326472 18.078125,43.5926292 C18.42572,43.7526607 18.867275,43.702827 19.15625,43.4526202 L25.875,38.0220315 L29,38.0220315 L35,38.0220315 C40.002245,38.0220315 44,33.7537843 44,28.5612899 C44,23.3685483 40.002245,19.1005384 35,19.1005384 L33,19.1005384 L33,4.16253843 C33,1.97277213 31.198705,0.179055281 29,0.179055281 L15,0.179055281 Z M15,2.17077213 L29,2.17077213 C30.125295,2.17077213 31,3.04172494 31,4.16253843 L31,5.15837213 L13,5.15837213 L13,4.16253843 C13,3.04172494 13.874705,2.17077213 15,2.17077213 Z M18.952965,3.71131596 C18.977515,3.97205303 19.238155,4.18705978 19.5,4.16253843 L24.5,4.16253843 C24.76397,4.16748225 25.006555,3.92750921 25.006555,3.66459685 C25.006555,3.40168449 24.76397,3.16324404 24.5,3.16665528 C22.819105,3.16665528 21.13058,3.16665528 19.45315,3.16665528 C19.10567,3.20818337 18.9699,3.51687551 18.952965,3.71131596 Z M27.5,3.16665528 C27.22386,3.16665528 27,3.38957213 27,3.66459685 C27,3.9395227 27.22386,4.16253843 27.5,4.16253843 C27.77614,4.16253843 28,3.9395227 28,3.66459685 C28,3.38957213 27.77614,3.16665528 27.5,3.16665528 Z M13,7.15013843 L31,7.15013843 L31,28.0633483 L28.46875,28.0633483 C27.595165,26.7924899 26.38139,25.8736315 25.015625,25.3247191 C27.080275,24.2396494 28.5,22.0934382 28.5,19.6140036 C28.5,16.0507946 25.578005,13.1253384 22,13.1253384 C18.42199,13.1253384 15.5,16.0507946 15.5,19.6140036 C15.5,22.0063775 16.818505,24.0968719 18.765625,25.2157573 C17.28569,25.7492449 15.964595,26.7055281 15.03125,28.0633483 L13,28.0633483 L13,7.15013843 Z M25.875,17.3110733 C26.275685,17.9822463 26.5,18.772862 26.5,19.6140036 C26.5,22.1008539 24.497125,24.0798652 22,24.0798652 C19.50287,24.0798652 17.5,22.1008539 17.5,19.6140036 C17.5,18.8494418 17.68014,18.1263092 18.015625,17.4978013 C20.490025,18.557262 23.45618,18.4908665 25.875,17.3110733 Z M20,19.1005384 C19.447715,19.1005384 19,19.5463721 19,20.0964216 C19,20.6463721 19.447715,21.0922652 20,21.0922652 C20.552285,21.0922652 21,20.6463721 21,20.0964216 C21,19.5463721 20.552285,19.1005384 20,19.1005384 Z M24,19.1005384 C23.447715,19.1005384 23,19.5463721 23,20.0964216 C23,20.6463721 23.447715,21.0922652 24,21.0922652 C24.552285,21.0922652 25,20.6463721 25,20.0964216 C25,19.5463721 24.552285,19.1005384 24,19.1005384 Z M9,21.0922652 L11,21.0922652 L11,34.0385483 C11,34.7626202 11.203585,35.4431371 11.546875,36.0303146 L9,36.0303146 C5.138245,36.0303146 2,32.7477169 2,28.5612899 C2,24.3747146 5.138245,21.0922652 9,21.0922652 Z M33,21.0922652 L35,21.0922652 C38.861755,21.0922652 42,24.3747146 42,28.5612899 C42,32.7477169 38.861755,36.0303146 35,36.0303146 L32.453125,36.0303146 C32.796415,35.4431371 33,34.7626202 33,34.0385483 L33,21.0922652 Z M20.390625,22.9439236 C20.8174,23.3689933 21.416665,23.4574876 22,23.4574876 C22.583335,23.4574876 23.1826,23.3689933 23.609375,22.9439236 C23.79393,22.7566517 23.79047,22.4188404 23.602125,22.2353753 C23.41377,22.0518607 23.074605,22.0558157 22.89063,22.2437798 C22.817405,22.3168 22.41667,22.4617034 22.000005,22.4617034 C21.58334,22.4617034 21.182605,22.3168 21.10938,22.2437798 C21.0034,22.130418 20.842065,22.0709438 20.687505,22.0882472 C20.22846,22.2467461 20.18249,22.635627 20.390625,22.9439236 Z M13,30.0550652 L31,30.0550652 L31,34.0385483 C31,35.1590652 30.125295,36.0303146 29,36.0303146 L25.859375,36.0303146 L19.15625,30.6308225 C18.980795,30.4765753 18.749575,30.3867461 18.515625,30.3818517 C17.986855,30.3739416 17.49999,30.8510202 17.5,31.3776854 L17.5,36.0303146 L15,36.0303146 C13.874705,36.0303146 13,35.1590652 13,34.0385483 L13,30.0550652 Z" id="Shape"></path>
                    </g>
                </g>
            </g>
        </g>
    </g>
</svg>