<?xml version="1.0" encoding="UTF-8"?>
<svg width="20px" height="21px" viewBox="0 0 20 21" version="1.1" xmlns="http://www.w3.org/2000/svg" xmlns:xlink="http://www.w3.org/1999/xlink">
    <!-- Generator: Sketch 52.1 (67048) - http://www.bohemiancoding.com/sketch -->
    <title>img</title>
    <desc>Created with Sketch.</desc>
    <g id="Page-1" stroke="none" stroke-width="1" fill="none" fill-rule="evenodd">
        <g id="Photographer-register-2" transform="translate(-383.000000, -799.000000)" fill="#0E282D">
            <g id="portfolio" transform="translate(353.000000, 476.000000)">
                <g id="img" transform="translate(30.000000, 323.098361)">
                    <path d="M16.893424,2.58611111 L3.10657596,2.58611111 L3.10657596,18.4138889 L16.893424,18.4138889 L16.893424,2.58611111 Z M17.6190476,2.22638889 L17.6190476,18.7736111 C17.6190476,18.9721778 17.4565079,19.1333333 17.2562358,19.1333333 L2.74376417,19.1333333 C2.54349206,19.1333333 2.38095238,18.9721778 2.38095238,18.7736111 L2.38095238,2.22638889 C2.38095238,2.02782222 2.54349206,1.86666667 2.74376417,1.86666667 L17.2562358,1.86666667 C17.4565079,1.86666667 17.6190476,2.02782222 17.6190476,2.22638889 L17.6190476,2.22638889 Z" id="Fill-166" transform="translate(10.000000, 10.500000) rotate(17.000000) translate(-10.000000, -10.500000) "></path>
                    <path d="M4.45480512,14.7018323 L8.57604584,13.3422198 L8.58152883,12.3796343 C8.31294858,12.1785703 7.91939946,11.7083509 7.87083007,10.662491 C7.57093841,10.4701017 7.40182064,10.038289 7.40422525,9.61613967 C7.40559297,9.37602454 7.4642521,9.16108664 7.57424505,8.99614918 C7.62924556,8.91297215 7.69507108,8.84390011 7.77099051,8.78964545 C7.56506773,8.30987572 7.28545746,7.62015911 7.59263968,7.17080445 C7.70114626,7.01154157 7.92907402,6.8190288 8.3782635,6.8384694 C8.79188735,6.08183257 9.89929812,5.79939958 10.8001084,5.79435369 C11.8114297,5.78868877 13.0803214,6.13005561 13.3270145,7.11035206 C13.4940577,7.77874248 13.2578525,8.40335339 13.0958286,8.76831772 C13.1638723,8.82034941 13.223846,8.88517537 13.2728413,8.9628119 C13.3766161,9.12371881 13.4306733,9.33377564 13.4293258,9.57034925 C13.4268929,9.99745668 13.2520896,10.4361539 12.9470667,10.6340565 C12.8873062,11.6805231 12.488375,12.1551816 12.2167599,12.3592716 L12.2112769,13.321857 L16.3172911,14.6353845 C16.4660653,14.682006 16.564896,14.8174425 16.5640285,14.9697279 L16.6285818,3.63686065 C16.6296954,3.44136869 16.4684678,3.28361673 16.267076,3.28474483 L4.63433661,3.34990568 C4.43367186,3.35102971 4.26990976,3.5106021 4.26879622,3.70609406 L4.20424292,15.0389613 C4.20511036,14.8866759 4.30621737,14.7501195 4.45480512,14.7018323" id="Fill-167" transform="translate(10.416415, 9.161850) rotate(17.000000) translate(-10.416415, -9.161850) "></path>
                </g>
            </g>
        </g>
    </g>
</svg>