<?xml version="1.0" encoding="UTF-8"?>
<svg width="180px" height="39px" viewBox="0 0 180 39" version="1.1" xmlns="http://www.w3.org/2000/svg" xmlns:xlink="http://www.w3.org/1999/xlink">
    <!-- Generator: Sketch 52.1 (67048) - http://www.bohemiancoding.com/sketch -->
    <title>logo-white</title>
    <desc>Created with Sketch.</desc>
    <g id="Page-1" stroke="none" stroke-width="1" fill="none" fill-rule="evenodd">
        <g id="Travelpix-photographers" transform="translate(-347.000000, -26.000000)" fill="#1E2433" fill-rule="nonzero">
            <g id="Group-2">
                <g id="logo-white" transform="translate(347.000000, 26.000000)">
                    <g id="Icon" transform="translate(0.250942, 0.126747)">
                        <g id="Group-8" transform="translate(8.882853, 8.961518)">
                            <path d="M12.1159321,5.37215855 C12.486989,5.55310942 12.7237243,5.92842147 12.7271952,6.34123433 C12.7425071,6.73264267 12.5265023,7.09654263 12.1755674,7.27055318 C11.8835472,7.42604737 11.5332993,7.42604737 11.241279,7.27055318 C10.9422587,7.11987088 10.6120133,7.0415653 10.2771729,7.04195067 C9.31994864,7.04965598 8.4795581,7.68045273 8.20484157,8.59744151 C8.14063348,8.79819378 8.10876115,9.00788011 8.11041881,9.21864396 C8.11318047,9.78760693 7.65562065,10.2518302 7.08667724,10.2572944 L3.11098173,10.2572944 C2.5200801,10.2600301 2.04250725,10.7398242 2.04251355,11.3307322 L2.04251355,13.3185799 C2.04250744,13.9287002 2.53565487,14.4240691 3.14576906,14.426805 L17.5576652,14.426805 C17.7970913,14.4268087 18.0266393,14.3313582 18.1954721,14.1615927 C18.3643049,13.9918271 18.4584891,13.7617567 18.4571663,13.5223343 L18.4571663,12.781861 C18.4443439,12.3692842 18.6782055,11.9886305 19.0520351,11.8136004 C19.4258647,11.6385703 19.867988,11.7027224 20.1766547,11.9767827 C20.3978519,12.1737779 20.5245345,12.4558418 20.5245345,12.7520433 L20.5245345,13.9745697 C20.5276157,15.3423312 19.4369165,16.4617331 18.069536,16.4941667 L2.54444513,16.4941667 C1.13758066,16.4886925 8.47940502e-14,15.3466575 8.47940502e-14,13.9397823 L8.47940502e-14,10.6846817 C8.47940502e-14,9.30661951 1.10687888,8.18411113 2.48480969,8.16508465 L6.15238879,8.16508465 C6.4553783,6.92156309 7.30583565,5.88247552 8.46491968,5.33963785 C9.6240037,4.79680013 10.9667016,4.80876001 12.1159321,5.37215855 Z" id="Combined-Shape"></path>
                            <path d="M12.53338,-1.2365799e-14 C13.3139686,0.00146675546 13.997402,0.52421194 14.2031722,1.27719218 L14.4814708,2.31584267 L18.4472271,2.31584267 C19.6224188,2.32128343 20.573753,3.27261771 20.5791938,4.44780934 L20.5791938,8.19490234 C20.5657904,9.28716027 19.683604,10.1693466 18.5913461,10.1827501 L14.4069266,10.1827501 C13.9314145,12.0619737 12.2404722,13.3782884 10.302021,13.3782154 L10.302021,13.4179789 C9.83322834,13.4188115 9.36771486,13.3398255 8.92543638,13.1844002 C8.77768114,13.1359049 8.63325421,13.077802 8.49307952,13.0104635 C8.10872299,12.8284846 7.86317707,12.4417981 7.86193784,12.0165396 C7.84479286,11.6273826 8.05655656,11.2640815 8.40362634,11.0872208 C8.69564659,10.9317266 9.04589458,10.9317266 9.33791478,11.0872208 C9.6371256,11.2373802 9.96724502,11.3156559 10.302021,11.3158233 C11.2570599,11.3110582 12.097443,10.6842976 12.3743523,9.77027169 C12.4373935,9.5824149 12.474185,9.38675082 12.4836838,9.18882622 C12.4805906,8.6311883 12.9203735,8.17161513 13.4776077,8.15017578 L18.0546272,8.15017578 C18.2989006,8.15017578 18.4969233,7.95215307 18.4969233,7.70787968 L18.4969233,4.94477128 C18.4869866,4.64539065 18.2494182,4.40350279 17.9502652,4.38817391 L13.3483976,4.38817391 C13.0962445,4.38951234 12.8752823,4.2196988 12.8116788,3.97569551 L12.3693826,2.34069072 C12.3269348,2.18320824 12.1846086,2.07341377 12.0215092,2.07233129 L8.50798839,2.07233129 C8.38149519,2.07283248 8.27125148,2.15857763 8.23962891,2.28105529 L7.78242394,3.97569551 C7.7172875,4.2186791 7.49726739,4.38776864 7.24570503,4.38817391 L2.99171086,4.38817391 C2.4913827,4.39090798 2.08723267,4.79727859 2.08724016,5.29761425 L2.08724016,6.02317869 C2.09728072,6.55687765 1.70658839,7.01375277 1.17779982,7.08667724 C0.882848636,7.1223949 0.58678957,7.02947174 0.365150156,6.83161343 C0.143510792,6.63375508 0.0177237335,6.35009456 0.0198512683,6.05299639 L0.0198512683,4.83047005 C0.0198512683,3.45240789 1.1267574,2.32989951 2.50468815,2.31087303 L6.0728749,2.31087303 L6.32632546,1.36664536 C6.54558421,0.561428615 7.27588641,0.00200496609 8.11041881,-1.2365799e-14 L12.53338,-1.2365799e-14 Z" id="Combined-Shape"></path>
                            <circle id="Oval" cx="10.3268691" cy="9.24846165" r="1.06846816"></circle>
                        </g>
                        <path d="M36.2675939,10.4605688 C40.1658331,18.0949766 38.5257874,27.3890792 32.2500028,33.2281698 L32.1605496,33.3027141 C31.7232231,33.7102228 31.2511093,34.1028228 30.7690562,34.4705746 C30.285918,34.8259715 29.6084288,34.7368863 29.23359,34.2686712 C28.8587512,33.8004562 28.9200831,33.1198931 29.3725932,32.7262382 L30.6696639,31.632922 C31.3056622,31.0446344 31.8954731,30.4083032 32.4338787,29.7295577 C32.4750273,29.6752219 32.5216558,29.6252628 32.5730281,29.5804692 C37.0174663,23.8692533 37.3474307,15.9667947 33.3945722,9.90495272 C29.4417138,3.84311079 22.07733,0.958049414 15.0587527,2.72173607 C8.04017537,4.48542273 2.9144542,10.5091019 2.2967483,17.7194734 C1.6790424,24.9298449 5.70550784,31.7375835 12.3218291,34.6693594 C12.7486121,34.841562 13.2347126,34.6404932 13.4151454,34.217124 L13.4847201,34.0431873 L17.6343522,24.7996953 C17.8744065,24.2885748 18.4815208,24.0665942 18.9945512,24.3020542 C19.3895745,24.2990516 19.7677733,24.5255074 19.9402556,24.909027 L24.9794497,36.1304275 C25.0942593,36.3761282 25.1063648,36.6574652 25.0130847,36.9121197 C24.9301691,37.1384793 24.7700697,37.3271479 24.5624954,37.4459293 L24.4824877,37.4871336 C24.346133,37.5524647 24.196324,37.5848098 24.0451612,37.5815563 C23.6403691,37.5808 23.2732688,37.3438357 23.1059032,36.9752628 L18.7589677,27.3055301 L15.0203325,35.6682529 L14.9358489,35.8272807 C14.7668819,36.2049718 14.1854364,37.2883488 13.1318771,37.2883488 C12.8907748,37.2852041 12.6526596,37.2345413 12.4311608,37.1392602 C4.40765019,34.1220215 -0.640177787,26.1477174 0.0655846706,17.6047466 C0.771347125,9.06177581 7.05937458,2.02396338 15.4692558,0.364340377 C23.8791371,-1.29528263 32.3693548,2.82616094 36.2675939,10.4605688 Z" id="Combined-Shape"></path>
                    </g>
                    <g id="Type" transform="translate(47.613557, 5.962375)">
                        <path d="M14.4019569,7.25067467 C14.2730914,7.11301249 14.0935505,7.03401447 13.904995,7.03201139 L12.5631977,7.03201139 C12.3743902,7.03283752 12.1944039,7.11203144 12.0662358,7.25067467 C11.9219027,7.38974163 11.8410458,7.58200127 11.8425809,7.78242394 L11.8425809,25.0120943 C11.8410458,25.212517 11.9219027,25.4047766 12.0662358,25.5438436 C12.1944039,25.6824867 12.3743902,25.7616807 12.5631977,25.7625068 L13.904995,25.7625068 C14.0935505,25.7605037 14.2730914,25.6815058 14.4019569,25.5438436 C14.5425498,25.4026531 14.6212187,25.2113448 14.6206202,25.0120943 L14.6206202,14.2131114 C14.6206202,11.2313398 16.111506,9.74045395 19.0386118,9.74045395 L21.1457304,9.74045395 C21.3349018,9.73658619 21.5143388,9.65583951 21.6426924,9.51682108 C21.7839474,9.37811042 21.8628572,9.18800962 21.8613766,8.99004145 L21.8613766,7.78242394 C21.8619541,7.58317346 21.7832852,7.39186514 21.6426924,7.25067467 C21.5138269,7.11301249 21.3342859,7.03401447 21.1457304,7.03201139 L19.257275,7.03201139 C18.385246,6.99776237 17.5172937,7.16794913 16.7227692,7.52897333 C16.0479015,7.88804944 15.480303,8.41963724 15.0778252,9.06955535 L14.6206202,9.76530205 L14.6206202,7.7774543 C14.6199049,7.57992569 14.5413356,7.39064491 14.4019569,7.25067467 Z" id="Path"></path>
                        <path d="M36.3080391,25.5438436 C36.4369046,25.6815058 36.6164455,25.7605037 36.805001,25.7625068 L38.1467983,25.7625068 C38.3356059,25.7616807 38.5155921,25.6824867 38.6437602,25.5438436 C38.7876036,25.4044413 38.868368,25.2124014 38.8673931,25.0120943 L38.8673931,13.7360279 C38.8864776,12.69295 38.7007513,11.6562594 38.3207349,10.6846816 C37.9916195,9.85017826 37.4825774,9.09849273 36.8298491,8.48314028 C36.1649173,7.87412707 35.379256,7.41187371 34.5239457,7.12643416 C33.574057,6.8094478 32.5783156,6.65160684 31.5769614,6.65928996 C30.6987887,6.65438821 29.8257714,6.79373519 28.9927594,7.07176837 C28.2293267,7.3240243 27.5050038,7.68200374 26.8409142,8.13526691 C26.2757781,8.51666139 25.7869749,9.00040799 25.3997246,9.56154765 C25.0786216,10.0221735 24.8755468,10.5546046 24.8083399,11.1120689 C24.7886658,11.2993334 24.8608931,11.4845314 25.002155,11.6090308 C25.144675,11.75128 25.3375144,11.8316297 25.5388739,11.8326637 L26.6272206,11.8326637 C26.8282794,11.8413831 27.0291198,11.8110039 27.2186053,11.7432106 C27.3680129,11.6685617 27.4962001,11.5574661 27.5913267,11.4201853 C27.9892983,10.8549121 28.4799121,10.360938 29.0424556,9.95911723 C29.8067925,9.48560373 30.6994902,9.26156092 31.59684,9.31803632 C32.7390071,9.27948107 33.8604149,9.62992099 34.7773964,10.3119602 C35.6785262,11.0470174 36.167533,12.1732149 36.0893759,13.3334887 L36.0893759,14.0342051 L30.7669135,14.923767 C29.8006305,15.0851376 28.8497082,15.3278555 27.9242912,15.6493314 C27.0966805,15.9342668 26.3186653,16.346749 25.6183878,16.8718578 C24.9822645,17.3525164 24.4611049,17.968741 24.0927147,18.6758296 C23.7065819,19.4460514 23.5154552,20.2992954 23.5361173,21.1606393 C23.5304739,21.8471774 23.6781861,22.526314 23.9684742,23.148487 C24.2583843,23.7466675 24.6756474,24.274183 25.1910006,24.6940386 C25.7625368,25.1543279 26.4123459,25.507851 27.1092736,25.7376587 C28.4854545,26.1913157 29.9585643,26.2651429 31.3732071,25.9513523 C31.9795204,25.8325436 32.5722643,25.6527223 33.1423916,25.4146335 C33.6856968,25.1915232 34.1970472,24.8974132 34.6630951,24.5399805 C35.0658366,24.2390934 35.3897962,23.8452268 35.6073228,23.3919984 L36.1042847,22.3980745 L36.1042847,25.0369424 C36.1056084,25.2256058 36.178421,25.4067494 36.3080391,25.5438436 Z M35.657019,20.0424749 C35.3706467,20.728888 34.9401767,21.3457821 34.3947356,21.8514164 C33.8266544,22.3649665 33.165344,22.7647894 32.4466449,23.0292161 C31.6501056,23.3167436 30.808641,23.4597925 29.9618352,23.4516338 C29.3990779,23.4659495 28.837933,23.3853059 28.3019823,23.2130921 C27.887246,23.079488 27.5047876,22.8611821 27.1788483,22.5720112 C26.9107662,22.3314744 26.6943515,22.0389764 26.542737,21.712267 C26.4111639,21.4252197 26.3417292,21.1136103 26.3389826,20.7978571 C26.3575684,19.813054 26.9200701,18.9195564 27.8000508,18.4770448 C28.9521366,17.8423882 30.2130174,17.4293992 31.517326,17.2594881 L36.0844062,16.5140451 L36.0844062,17.7266323 C36.0961027,18.5192145 35.9508507,19.3062777 35.657019,20.0424749 Z" id="Shape"></path>
                        <path d="M58.4427239,7.03201139 L56.9518378,7.03201139 C56.7630552,7.0223503 56.580145,7.09917265 56.4548763,7.24073544 C56.3202829,7.38626147 56.2125931,7.55452618 56.1368204,7.73769738 L50.2826087,21.7371151 L44.4283971,7.76751507 C44.352089,7.5737383 44.2390248,7.39654816 44.0954327,7.24570503 C43.923254,7.08755705 43.6920593,7.00989007 43.4593214,7.03201139 L42.1175241,7.03201139 C41.9521153,7.0277004 41.7928288,7.09467313 41.6801976,7.21588734 C41.5587566,7.33455216 41.4921444,7.49838226 41.4963217,7.66812266 C41.4955005,7.7303041 41.5038736,7.79226551 41.5211698,7.85199861 L48.7320875,24.9922158 C48.8225333,25.1962832 48.9431529,25.3855889 49.0899001,25.5537828 C49.2279193,25.7011162 49.4253233,25.7778844 49.626619,25.7625068 L50.9684164,25.7625068 C51.1555857,25.7746688 51.3382295,25.7016113 51.4653784,25.563722 C51.6024852,25.3851471 51.7191696,25.1917843 51.8132517,24.9872462 L59.0291388,7.83212014 C59.0363286,7.7776907 59.0363286,7.7225521 59.0291388,7.66812266 C59.033316,7.49838226 58.9667042,7.33455216 58.8452629,7.21588734 C58.7408899,7.10348185 58.5960231,7.03730795 58.4427239,7.03201139 Z" id="Path"></path>
                        <path d="M76.9147989,15.7686022 C76.9293682,14.4792823 76.7381183,13.1958961 76.3482625,11.9668434 C76.0099972,10.9087994 75.4586389,9.93123716 74.7281666,9.09440345 C74.0298297,8.30783581 73.1613217,7.69087201 72.1886908,7.29043159 C71.1071638,6.85596838 69.9498939,6.64140888 68.7845016,6.65928996 C67.6922834,6.64591707 66.6086673,6.85384968 65.5989756,7.27055313 C64.6784081,7.65606726 63.8476151,8.22797783 63.1588925,8.95028448 C62.4637528,9.68759552 61.9021042,10.5401579 61.4990397,11.4698815 C61.0704839,12.4534331 60.8084896,13.5014111 60.7237792,14.570924 C60.6045199,15.6842471 60.6045199,16.8071243 60.7237792,17.9204474 C60.8031403,19.0474094 61.0667121,20.1537393 61.5040095,21.1954266 C61.9011753,22.1526181 62.4686069,23.0298644 63.178771,23.7845983 C63.8703548,24.5135583 64.699738,25.0980117 65.618854,25.5040866 C66.6186435,25.9319767 67.6970998,26.1452977 68.7845016,26.1302586 C69.8945549,26.1488536 71.0008472,25.9963193 72.0644503,25.6780233 C72.8914432,25.4287439 73.6756825,25.0550572 74.3902323,24.5697982 C74.9445098,24.1947072 75.4205007,23.7153409 75.7916651,23.1584262 C76.0771956,22.7470279 76.2766581,22.2821786 76.37808,21.7917809 C76.4198277,21.6064995 76.3523222,21.4136261 76.2041435,21.294819 C76.053255,21.1487055 75.8525778,21.065238 75.6425764,21.0612469 L74.5542297,21.0612469 C74.3713269,21.0504311 74.1882465,21.0792494 74.0175108,21.1457304 C73.8516029,21.2443061 73.7009337,21.3665157 73.5702451,21.5085126 C73.0914813,22.041466 72.5291946,22.4929737 71.9054226,22.8453402 C70.9358674,23.3181496 69.8615878,23.5354005 68.7845016,23.4764819 C67.3969965,23.5148838 66.0504061,23.0041081 65.0374089,22.0551708 C64.0434848,21.1159127 63.5067659,19.7592066 63.45707,18.0198398 L63.45707,17.5129387 L76.1842651,17.5129387 C76.3734362,17.5090708 76.5528734,17.4283242 76.6812266,17.2893058 C76.8224818,17.1505951 76.9013918,16.9604943 76.8998902,16.7625261 L76.9147989,15.7686022 Z M74.146721,14.9088581 L63.45707,14.9088581 L63.45707,14.531167 C63.474435,13.7986317 63.6277834,13.0757025 63.9093048,12.3992003 C64.1755906,11.7767775 64.5662404,11.2153244 65.0572874,10.7492867 C65.5433919,10.294701 66.1118234,9.93711193 66.7320489,9.69572739 C67.3876466,9.44754738 68.0835198,9.32286314 68.7845016,9.32797555 C70.2191699,9.26414663 71.6199392,9.77579413 72.6757139,10.7492867 C73.6806155,11.745337 74.2214805,13.117331 74.1665995,14.531167 L74.146721,14.9088581 Z" id="Shape"></path>
                        <path d="M82.7839193,0.00496961938 L81.4421224,0.00496961938 C81.2529507,0.00883740907 81.0735136,0.0895840582 80.9451604,0.228602491 C80.8039051,0.367313176 80.7249952,0.557413978 80.7264759,0.755382143 L80.7264759,25.0120943 C80.7253465,25.2114526 80.8040992,25.4029647 80.9451604,25.5438436 C81.0740257,25.6815058 81.2535666,25.7605037 81.4421224,25.7625068 L82.7839193,25.7625068 C82.9727272,25.7616807 83.1527132,25.6824867 83.2808813,25.5438436 C83.4238838,25.4042674 83.5029912,25.2118926 83.4995444,25.0120943 L83.4995444,0.755382143 C83.5024037,0.555695223 83.4233876,0.363543433 83.2808813,0.223632872 C83.1513441,0.0869216559 82.9722275,0.00811035901 82.7839193,0.00496961938 Z" id="Path"></path>
                        <path d="M90.9539735,7.25067467 C90.8251081,7.11301249 90.6455673,7.03401447 90.457012,7.03201139 L89.1152146,7.03201139 C88.9264071,7.03283752 88.7464207,7.11203144 88.6182525,7.25067467 C88.4739192,7.38974163 88.3930625,7.58200127 88.3945845,7.78242394 L88.3945845,32.0391361 C88.3926526,32.2381904 88.4736859,32.4290689 88.6182525,32.5659157 C88.7459071,32.705902 88.9257824,32.7868459 89.1152146,32.7895486 L90.457012,32.7895486 C90.6461831,32.7856808 90.8256202,32.7049342 90.9539735,32.5659157 C91.0952287,32.427205 91.1741387,32.2371042 91.1726371,32.0391361 L91.1726371,23.0938212 L91.6199027,23.6951451 C92.158225,24.3693674 92.8234317,24.931585 93.5779329,25.3500284 C94.650096,25.906019 95.8503082,26.1683511 97.0566662,26.1103802 C98.1127083,26.1187852 99.1599428,25.9177837 100.13783,25.5189955 C101.073525,25.1349949 101.919559,24.5613836 102.62264,23.8342945 C103.353533,23.0607827 103.927364,22.1527785 104.312311,21.1606393 C104.753586,20.0148531 105.003738,18.8043869 105.052784,17.5775437 C105.077632,17.2048223 105.092541,16.8072527 105.092541,16.3898047 C105.092541,15.9723566 105.092541,15.5747871 105.052784,15.2070353 C105.003652,13.9785904 104.753512,12.766503 104.312311,11.6189701 C103.923155,10.6218832 103.348075,9.70782601 102.61767,8.92543638 C101.918301,8.19027307 101.071555,7.61109903 100.13286,7.22582657 C99.1549736,6.8270383 98.107739,6.62603682 97.0516964,6.63444186 C95.8635814,6.58260036 94.6818195,6.83400268 93.6176898,7.3649759 C92.842216,7.77791753 92.1643495,8.35240924 91.6298417,9.04967689 L91.1825761,9.6659097 L91.1825761,7.78242394 C91.1805495,7.58173599 91.098217,7.39022277 90.9539735,7.25067467 Z M91.1726371,14.7945569 C91.1763027,13.3064137 91.7633136,11.8790319 92.8076417,10.8188614 C93.8457996,9.8226325 95.2407705,9.28541667 96.6789754,9.32797555 C98.1826514,9.25328927 99.6409595,9.85484138 100.654671,10.9679499 C101.663133,12.2046543 102.215824,13.7504354 102.220101,15.3461846 C102.244949,16.0469009 102.244949,16.7476173 102.220101,17.443364 C102.207937,19.0381208 101.648265,20.5802899 100.634792,21.8116594 C99.621081,22.9247679 98.1627729,23.5263201 96.659097,23.4516338 C95.2132114,23.5047566 93.808108,22.9664027 92.7678847,21.960748 C91.7739607,20.9668241 91.2273027,19.5504826 91.1527586,17.7415412 C91.1527586,17.3737893 91.1130017,16.8768274 91.1130017,16.2506554 C91.1130017,15.6244833 91.1477889,15.1672783 91.1726371,14.7945569 Z" id="Shape"></path>
                        <path d="M109.704347,7.03201139 C109.51554,7.03283752 109.335554,7.11203144 109.207385,7.25067467 C109.064383,7.39025081 108.985276,7.58262568 108.988722,7.78242394 L108.988722,25.0120943 C108.985276,25.2118926 109.064383,25.4042674 109.207385,25.5438436 C109.335554,25.6824867 109.51554,25.7616807 109.704347,25.7625068 L111.046145,25.7625068 C111.234952,25.7616807 111.414939,25.6824867 111.543107,25.5438436 C111.685613,25.403933 111.764629,25.2117812 111.76177,25.0120943 L111.76177,7.78242394 C111.764629,7.58273703 111.685613,7.39058522 111.543107,7.25067467 C111.414939,7.11203144 111.234952,7.03283752 111.046145,7.03201139 L109.704347,7.03201139 Z M109.207385,7.00777272e-15 C109.018954,0.00257669047 108.839628,0.0814802199 108.710424,0.218663252 C108.57553,0.349472032 108.497066,0.52779776 108.49176,0.71562519 L108.49176,2.80286532 C108.494901,2.9911735 108.573713,3.17029009 108.710424,3.29982726 C108.837867,3.43948306 109.018321,3.51888283 109.207385,3.51849196 L111.249899,3.51849196 C111.438964,3.51888283 111.619418,3.43948306 111.746861,3.29982726 C111.884523,3.17096175 111.963521,2.99142084 111.965524,2.80286532 L111.965524,0.735503667 C111.962384,0.547195484 111.883573,0.368078902 111.746861,0.23854173 C111.617995,0.100879548 111.438455,0.021881551 111.249899,0.0198784775 L109.207385,7.00777272e-15 Z" id="Shape"></path>
                        <path d="M115.578438,25.7625068 L117.24823,25.7625068 C117.457727,25.777667 117.664784,25.709838 117.824706,25.5736613 C117.964187,25.4444152 118.093762,25.3048732 118.212336,25.1562132 L123.524859,18.3627436 L128.837382,25.1562132 C128.957797,25.3048348 129.08902,25.4443634 129.229982,25.5736613 C129.387837,25.7100246 129.593465,25.7779711 129.801488,25.7625068 L131.540855,25.7625068 C131.707505,25.7657191 131.867894,25.6990404 131.983151,25.5786309 C132.099231,25.4706805 132.165736,25.3196947 132.167027,25.1611829 C132.170395,25.0261699 132.134112,24.8931311 132.062665,24.7785222 L125.388466,16.2506554 L131.819154,7.99611758 C131.885516,7.88706338 131.918352,7.76090494 131.913577,7.63333533 C131.897742,7.29837538 131.622731,7.03427777 131.287404,7.03201139 L129.617612,7.03201139 C129.409588,7.01654714 129.203961,7.08449368 129.046106,7.22085693 C128.906555,7.35157591 128.775426,7.49100452 128.653506,7.63830497 L123.683887,14.0640228 L118.664571,7.63830497 C118.544049,7.48977764 118.412832,7.35025674 118.271971,7.22085693 C118.114117,7.08449368 117.908489,7.01654714 117.700465,7.03201139 L115.956129,7.03201139 C115.790961,7.02896901 115.632171,7.09573298 115.518802,7.21588734 C115.402723,7.32383767 115.336218,7.47482352 115.334926,7.63333533 C115.331558,7.76834834 115.367842,7.90138705 115.439288,8.01599604 L121.825249,16.176111 L115.066567,24.7984007 C115.000204,24.9074548 114.967369,25.0336133 114.972144,25.1611829 C114.972235,25.31995 115.038943,25.4713935 115.15602,25.5786309 C115.265845,25.6949828 115.418443,25.7614077 115.578438,25.7625068 Z" id="Path"></path>
                        <path d="M2.60905017,0.223632872 C2.479513,0.0869216559 2.30039641,0.00811035901 2.11208823,0.00496961938 L0.770291004,0.00496961938 C0.581119641,0.00883740907 0.40168264,0.0895840582 0.273329065,0.228602491 C0.132073991,0.367313176 0.0531642249,0.557413978 0.0546658132,0.755382143 L7.47495761e-14,6.78353042 L7.47495761e-14,9.96408682 L0.0546658132,19.5405433 C0.0546658132,21.5631784 0.511870794,23.1286085 1.4113719,24.1871374 C2.31087301,25.2456664 3.7719411,25.7625068 5.79457619,25.7625068 L8.07563147,25.7625068 C8.26393964,25.7593661 8.44305625,25.6805548 8.57259341,25.5438436 C8.71318632,25.4026531 8.79185514,25.2113448 8.79129167,25.0120943 L8.79129167,23.8293249 C8.79322354,23.6302706 8.71219019,23.439392 8.56762377,23.3025452 C8.43996935,23.162559 8.26009391,23.081615 8.07066183,23.0789123 L6.15238879,23.0789123 C5.59589821,23.0977634 5.04093477,23.0100488 4.517384,22.8204921 C4.10668128,22.6695678 3.7479199,22.4039463 3.48370318,22.0551708 C3.23633085,21.7114785 3.06674993,21.3180508 2.98674124,20.9022191 C2.89463489,20.4542509 2.84966338,19.9978733 2.85256152,19.5405433 L2.85256152,9.71560585 L7.70787963,9.71560585 C7.89731166,9.71290318 8.07718715,9.6319592 8.20484157,9.49197298 C8.34940794,9.35512621 8.4304413,9.16424767 8.42847444,8.96519335 L8.42847444,7.78242394 C8.43003161,7.58200127 8.34917472,7.38974163 8.20484157,7.25067467 C8.07667351,7.11203144 7.89668726,7.03283752 7.70787963,7.03201139 L2.82771342,7.03201139 L2.82771342,0.755382143 C2.83057226,0.555695223 2.75155657,0.363543433 2.60905017,0.223632872 Z" id="Path"></path>
                    </g>
                </g>
            </g>
        </g>
    </g>
</svg>