<?xml version="1.0" encoding="UTF-8"?>
<svg width="70px" height="70px" viewBox="0 0 70 70" version="1.1" xmlns="http://www.w3.org/2000/svg" xmlns:xlink="http://www.w3.org/1999/xlink">
    <!-- Generator: Sketch 52.1 (67048) - http://www.bohemiancoding.com/sketch -->
    <title>Group 4</title>
    <desc>Created with Sketch.</desc>
    <g id="Symbols" stroke="none" stroke-width="1" fill="none" fill-rule="evenodd">
        <g id="Submark">
            <g id="Group-4">
                <circle id="Oval" fill="#FBCA00" cx="35" cy="35" r="35"></circle>
                <g id="icon_navy" transform="translate(9.000000, 9.500000)" fill="#1D2331" fill-rule="nonzero">
                    <path d="M37.9082408,28.2154945 C37.4259629,28.2886068 37.0718694,28.7067896 37.0792559,29.1945219 L37.0792559,30.158545 C37.0813337,31.0520414 36.3597881,31.7786211 35.4662989,31.7827552 L16.4033977,31.7827552 C15.9059758,31.7827552 15.4289271,31.5851551 15.0771967,31.2334248 C14.7254663,30.8816944 14.5278663,30.4046457 14.5278663,29.9072238 L14.5278663,27.2814798 C14.5268704,26.7930113 14.7199593,26.3241536 15.0646552,25.9780507 C15.4093512,25.6319478 15.8774185,25.4369508 16.365887,25.4359569 L21.5836154,25.4359569 C21.8346616,25.4330622 22.0739719,25.3292221 22.2475764,25.1478548 C22.4211808,24.9664876 22.5144598,24.7228665 22.5063769,24.4719338 C22.5040288,24.1516011 22.5508364,23.8328039 22.6451662,23.526666 C23.0571439,22.1292516 24.3391827,21.1692488 25.796059,21.1672474 C26.306889,21.1656069 26.8108226,21.2851626 27.2664756,21.5160963 C27.5325297,21.6732755 27.8616347,21.6789743 28.1329711,21.5311005 C28.4541189,21.3497364 28.6466871,21.0038318 28.6316618,20.6353171 C28.6166366,20.2668024 28.3965475,19.9377228 28.0617009,19.7831053 C27.3606124,19.4420799 26.590688,19.2662805 25.8110632,19.2692097 C23.4000781,19.270888 21.3094854,20.9368291 20.7696348,23.2865979 C20.7354302,23.4226135 20.6135484,23.5182676 20.4733008,23.5191638 L15.5294,23.5191638 C13.9315478,23.523302 12.6390066,24.8208792 12.6410817,26.4187354 L12.6410817,30.7212044 C12.6380915,31.5024602 12.9460929,32.2527973 13.497119,32.8066383 C14.048145,33.3604793 14.796903,33.6723001 15.5781639,33.6732909 L36.07022,33.6732909 C36.84054,33.6713081 37.57841,33.3628808 38.1209949,32.8160734 C38.6635799,32.269266 38.9662781,31.5290272 38.9622894,30.7587151 L38.9622894,29.1457581 C38.9610052,28.8772344 38.845125,28.6220359 38.6437944,28.4443491 C38.4424638,28.2666623 38.1748422,28.1833966 37.9082408,28.2154945 Z" id="Path"></path>
                    <path d="M36.07022,33.9696248 L15.5744128,33.9696248 C13.7868292,33.9613597 12.342662,32.5088059 12.3447477,30.7212044 L12.3447477,26.4187354 C12.3426729,24.6572188 13.7678871,23.2269685 15.5294,23.2228299 L20.4733008,23.2228299 C21.0380303,20.7342856 23.2517463,18.9692327 25.8035611,18.9728757 C26.6240106,18.9678184 27.4348027,19.1499901 28.1742328,19.5055266 C28.6254749,19.7184901 28.916416,20.1694489 28.9244453,20.6683561 C28.9430784,21.1391973 28.6870325,21.5781331 28.2680094,21.7936749 C27.9135183,21.9781785 27.4895209,21.9696986 27.1426905,21.7711686 C26.7289544,21.5610192 26.2713596,21.451762 25.8073121,21.4523282 C24.1499883,21.4523282 22.8064619,22.7958546 22.8064619,24.4531785 C22.8084571,24.780136 22.6802276,25.094441 22.4500875,25.3266925 C22.2199474,25.558944 21.9068265,25.6900384 21.5798644,25.6910292 L16.3546339,25.6910292 C15.5025777,25.6951629 14.81462,26.3881545 14.8166981,27.2402181 L14.8166981,29.8659621 C14.8166884,30.7434939 15.5258756,31.4560342 16.4033977,31.4601638 L35.4662989,31.4601638 C36.1967332,31.456037 36.7866847,30.8627336 36.786673,30.1322876 L36.786673,29.1945219 C36.7756735,28.5525897 37.2489751,28.0049814 37.8857344,27.9229116 C38.2378424,27.8799145 38.5914773,27.9900407 38.8569174,28.2253497 C39.1223575,28.4606588 39.2740934,28.7985369 39.2736276,29.1532602 L39.2736276,30.7587151 C39.2776277,31.6102203 38.9416526,32.4281144 38.3402454,33.03093 C37.7388382,33.6337456 36.9217323,33.9716331 36.07022,33.9696248 Z M15.5294,23.8117467 C14.8370138,23.8147139 14.174335,24.0933889 13.6879175,24.5861418 C13.2015,25.0788947 12.9314232,25.7451241 12.9374156,26.4374907 L12.9374156,30.7212044 C12.9332362,32.177972 14.1064386,33.3645824 15.5631596,33.3769569 L36.07022,33.3769569 C36.7632575,33.3749856 37.4269017,33.0967492 37.9141308,32.6038875 C38.4013598,32.1110257 38.67195,31.4442273 38.6659555,30.7512129 L38.6659555,29.1532602 C38.6656945,28.968333 38.5865485,28.7923015 38.4483938,28.6693731 C38.3115142,28.5440075 38.1258425,28.4862429 37.9420003,28.5118284 C37.609224,28.5660513 37.367455,28.8574551 37.3755899,29.1945219 L37.3755899,30.158545 C37.3776668,31.2157011 36.523449,32.0749536 35.4662989,32.0790892 L16.4033977,32.0790892 C15.1985537,32.0749559 14.2240231,31.0970706 14.2240302,29.8922196 L14.2240302,27.2664756 C14.2240284,26.0891673 15.1773274,25.1341899 16.3546339,25.1321208 L21.5836154,25.1321208 C21.9349352,25.1280116 22.2175691,24.8420329 22.217545,24.4906891 C22.21526,24.1387825 22.2658382,23.7885282 22.3675875,23.4516447 C22.8261767,21.934802 24.2189498,20.8932631 25.8035611,20.8821667 C26.3606771,20.8799843 26.9105442,21.0084579 27.409016,21.257273 C27.5818419,21.3646684 27.7984239,21.3732176 27.9791775,21.2797793 C28.1956584,21.1685982 28.3275282,20.9414891 28.3167732,20.6983646 C28.3145843,20.4269354 28.1591924,20.180051 27.9154094,20.0606839 C27.2578334,19.7397102 26.5352874,19.5741534 25.8035611,19.5767968 C23.5365723,19.5940669 21.5751558,21.1588621 21.0547156,23.3653703 C20.992891,23.6358169 20.7507028,23.8264425 20.4733008,23.8229999 L15.5294,23.8117467 Z" id="Shape"></path>
                    <path d="M36.07022,33.8683461 L15.5744128,33.8683461 C13.8412975,33.8621429 12.4401961,32.4543296 12.4422753,30.7212044 L12.4422753,26.4187354 C12.4422641,24.7119336 13.8226095,23.3265565 15.5294,23.3203575 L20.4733008,23.3203575 C20.5215085,23.3215598 20.5638784,23.2886055 20.5745795,23.2415852 C21.1263199,20.7991658 23.2996082,19.0670831 25.8035611,19.0741544 C26.6106458,19.0703439 27.4077487,19.2526122 28.1329711,19.6068053 C28.5471926,19.8055576 28.8110408,20.2239246 28.8119135,20.6833603 C28.8227786,21.1110405 28.5901928,21.50789 28.2117434,21.7074005 C27.8878486,21.8704612 27.5041212,21.8620276 27.1877033,21.6848941 C26.7605876,21.4660667 26.2872179,21.3528696 25.8073121,21.3548006 C24.4392499,21.3645069 23.23741,22.2651261 22.8439725,23.5754298 C22.7563326,23.8636059 22.7120851,24.1632243 22.7126853,24.4644317 C22.7126853,25.0859281 22.2088629,25.5897505 21.5873665,25.5897505 L16.3583849,25.5897505 C15.4518596,25.5938805 14.7191611,26.3299324 14.7191705,27.2364671 L14.7191705,29.862211 C14.7181745,30.3098911 14.8950601,30.7396308 15.2109142,31.0568918 C15.5267683,31.3741528 15.9557177,31.5529466 16.4033977,31.5539404 L35.4625478,31.5539404 C36.2483114,31.5518726 36.8842034,30.9143028 36.8842006,30.1285365 L36.8842006,29.1945219 C36.8728313,28.6061044 37.302881,28.1019638 37.8857344,28.0204392 C38.2086004,27.9780955 38.533979,28.0776846 38.7778342,28.2934857 C39.0216894,28.5092867 39.1601095,28.820139 39.1573447,29.1457581 L39.1573447,30.7587151 C39.1613328,31.5807592 38.8380838,32.3706108 38.258919,32.953998 C37.6797541,33.5373852 36.8922715,33.8663629 36.07022,33.8683461 Z M15.5294,23.7142191 C14.0401335,23.7204158 12.8361241,24.9294559 12.8361369,26.4187354 L12.8361369,30.7212044 C12.8340566,32.236807 14.0588215,33.4682829 15.5744128,33.4744845 L36.07022,33.4744845 C36.7878137,33.4725023 37.475117,33.1850206 37.9804186,32.6754964 C38.4857202,32.1659722 38.7674725,31.4763004 38.7634831,30.7587151 L38.7634831,29.1532602 C38.7630891,28.939676 38.6716764,28.7363852 38.5121619,28.5943518 C38.3525021,28.4548813 38.1412866,28.3894726 37.9307472,28.4143008 C37.5485422,28.4743077 37.2696241,28.807727 37.2780622,29.1945219 L37.2780622,30.158545 C37.2780644,31.1618345 36.4658352,31.9757418 35.4625478,31.9778105 L16.4033977,31.9778105 C15.8512591,31.9768165 15.3221297,31.7565266 14.9324123,31.3654023 C14.5426948,30.9742779 14.3243131,30.4443581 14.3253089,29.8922196 L14.3253089,27.2664756 C14.3253013,26.1424187 15.2343356,25.23003 16.3583849,25.2258974 L21.5836154,25.2258974 C21.9979464,25.2258974 22.333828,24.8900158 22.333828,24.4756848 C22.3321573,24.1327067 22.3814595,23.7913838 22.4801194,23.4628979 C22.9269267,21.9881326 24.281392,20.975704 25.8223164,20.9646901 C26.3646639,20.9657802 26.8991703,21.0942673 27.3827585,21.3397963 C27.5836585,21.4625149 27.8341546,21.4710545 28.0429456,21.3623027 C28.2870963,21.2315322 28.4333751,20.9711559 28.4180519,20.6946135 C28.416479,20.3847058 28.239059,20.102579 27.9604222,19.9669073 C27.2893881,19.6416136 26.5530326,19.4735603 25.8073121,19.4755181 C23.4963567,19.4907457 21.4949956,21.08316 20.960939,23.3316107 C20.9016795,23.5523714 20.7018759,23.7060665 20.4733008,23.706717 L15.5294,23.7142191 Z" id="Shape"></path>
                    <path d="M36.0739711,34.1646801 L15.5744128,34.1646801 C13.6784958,34.1564189 12.1459234,32.6171394 12.1459414,30.7212044 L12.1459414,26.4187354 C12.1409491,25.5201309 12.494424,24.656617 13.1280806,24.0194401 C13.7617372,23.3822632 14.6232795,23.0240097 15.5218979,23.0240235 L20.3232583,23.0240235 C20.9575153,20.5176336 23.218192,18.7660347 25.8035611,18.7778204 C26.6548061,18.7749164 27.4953631,18.9674104 28.2605072,19.3404799 C28.7735628,19.5900827 29.1006569,20.1090719 29.1044964,20.6796093 C29.1215141,21.2167764 28.8301558,21.716456 28.3542838,21.9662238 C27.9480034,22.1757848 27.4639363,22.168749 27.0639182,21.9474685 C26.6764743,21.7523098 26.248634,21.6508102 25.8148143,21.6511346 C24.5783898,21.6598153 23.4921498,22.4737346 23.1365554,23.6579532 C23.0568486,23.9193566 23.0163962,24.1911462 23.0165214,24.4644317 C23.0186097,25.252892 22.3833074,25.8948994 21.5948686,25.9010887 L16.3583849,25.9010887 C15.9992869,25.8990867 15.6542633,26.0405951 15.3999868,26.2941673 C15.1457103,26.5477394 15.0032454,26.8923692 15.0042512,27.2514713 L15.0042512,29.8772153 C15.0021724,30.6464134 15.6229546,31.272229 16.3921445,31.2763617 L35.4662989,31.2763617 C36.0877953,31.2763617 36.5916177,30.7725393 36.5916177,30.1510429 L36.5916177,29.1945219 C36.5691341,28.6200615 36.8921651,28.0877803 37.412123,27.8425172 C37.9320809,27.597254 38.548285,27.6864997 38.9772937,28.069203 C39.2825935,28.3422714 39.4571985,28.7324044 39.4574297,29.142007 L39.4574297,30.7587151 C39.4654488,31.6605644 39.11228,32.5281282 38.4766685,33.1679676 C37.841057,33.8078071 36.9758537,34.1667199 36.0739711,34.1646801 Z M15.5294,24.006802 C14.8910535,24.0077948 14.2793019,24.2625869 13.8289789,24.7150208 C13.3786559,25.1674548 13.1267273,25.7803912 13.1287198,26.4187354 L13.1287198,30.7212044 C13.1267271,31.3708383 13.3828836,31.9946561 13.8408372,32.4554236 C14.2987908,32.916191 14.9210278,33.1761639 15.5706617,33.1781506 L36.0739711,33.1781506 C36.7129729,33.1761693 37.3249033,32.9199084 37.7746316,32.4659572 C38.22436,32.0120061 38.4748908,31.3977075 38.4709002,30.7587151 L38.4709002,29.1532602 C38.4700643,29.0239588 38.4141191,28.9011521 38.3171066,28.8156645 C38.221012,28.7298059 38.0922713,28.6900881 37.9645067,28.7068837 C37.7389333,28.7587915 37.5817108,28.9631809 37.5894004,29.1945219 L37.5894004,30.158545 C37.5811418,31.3240263 36.631802,32.2633025 35.4662989,32.2591402 L16.4033977,32.2591402 C15.0908276,32.2550061 14.0289684,31.1897919 14.0289749,29.8772153 L14.0289749,27.2514713 C14.0289683,25.9637545 15.0706747,24.9186931 16.3583849,24.9145592 L21.5836154,24.9145592 C21.7000135,24.9135686 21.8112502,24.8663774 21.8928525,24.7833681 C21.9744549,24.7003588 22.0197378,24.5883318 22.0187387,24.4719338 C22.0080563,23.1546336 22.6844342,21.9269235 23.803643,21.2321101 C24.9228517,20.5372967 26.323199,20.47576 27.4990415,21.0697198 C27.6103452,21.1450361 27.7534366,21.1550525 27.8741478,21.0959773 C28.0339593,21.0251814 28.1358957,20.8656287 28.1329711,20.6908625 C28.1299576,20.4933456 28.0171246,20.3139702 27.8403882,20.2257307 C27.2094465,19.9184045 26.5166227,19.7593117 25.8148143,19.7605989 C23.6403306,19.7771562 21.7591865,21.2786625 21.261024,23.3953788 C21.1722238,23.7573376 20.8459743,24.0105694 20.4733008,24.006802 L15.5294,24.006802 Z" id="Shape"></path>
                    <path d="M36.5541071,15.7882234 L31.0325426,15.7882234 L30.578664,14.1039962 C30.3543445,13.2975123 29.6227324,12.737324 28.785656,12.7311072 L22.9415002,12.7311072 C22.0272621,12.7314991 21.2279399,13.3475471 20.9946986,14.2315323 L20.5708285,15.7957255 L20.0831903,15.7957255 L15.5294,15.7957255 C14.7613799,15.7977126 14.0256055,16.1047145 13.4839402,16.6491937 C12.9422749,17.1936728 12.6390894,17.931028 12.6410817,18.6990481 L12.6410817,20.3120051 C12.6402223,20.5818372 12.7551765,20.8390693 12.9567733,21.018426 C13.1583701,21.1977826 13.4272314,21.2820232 13.6951303,21.2497708 C14.1761918,21.1782218 14.529426,20.7607633 14.5203641,20.2744945 L14.5203641,19.287965 C14.5182863,18.3965402 15.2381525,17.67164 16.1295701,17.6675058 L21.7561643,17.6675058 C21.8957828,17.6683807 22.0180266,17.5739899 22.0524983,17.438691 L22.6601704,15.1880533 C22.7520102,14.8476856 23.0578972,14.6090937 23.410383,14.6028875 L28.0767051,14.6028875 C28.4830343,14.6034722 28.8390472,14.8750855 28.9469517,15.2668256 L29.5321175,17.4311889 C29.5677574,17.5657161 29.6892841,17.6595531 29.8284515,17.6600037 L35.8939201,17.6600037 C36.2085963,17.6590032 36.5106728,17.7835651 36.7331837,18.0060759 C36.9556946,18.2285868 37.0802565,18.5306633 37.0792559,18.8453396 L37.0792559,22.4726173 C37.0802532,22.7418744 36.9739895,23.0004455 36.7839469,23.1911919 C36.5939043,23.3819384 36.3357279,23.4891572 36.0664689,23.4891553 L30.0085025,23.4891553 C29.4947321,23.4891553 29.0782389,23.9056485 29.0782389,24.4194189 C29.0784488,24.7383695 29.0316839,25.0556123 28.9394496,25.3609357 C28.6651159,26.2911253 27.9943229,27.0528734 27.106299,27.4426493 C26.2182751,27.8324253 25.2035125,27.8105098 24.3331445,27.3827585 C24.0699203,27.2400193 23.7523795,27.2400193 23.4891553,27.3827585 C23.1730652,27.5717407 22.9885547,27.9210503 23.010643,28.2886634 C23.0327314,28.6562764 23.2577405,28.9809797 23.5941851,29.1307538 C24.2845396,29.4588207 25.0392201,29.6292324 25.8035611,29.6296452 C28.1998817,29.6274216 30.280467,27.9784802 30.8299853,25.6460164 C30.8669674,25.5085341 30.9879289,25.4102529 31.1300703,25.4021974 L36.726656,25.4021974 C37.9623611,25.4022403 38.9669961,24.4059772 38.9772937,23.170315 L38.9772937,18.1964057 C38.9783142,17.5547981 38.7228593,16.9393945 38.2677668,16.4871199 C37.8126744,16.0348454 37.195696,15.7832178 36.5541071,15.7882234 Z" id="Path"></path>
                    <path d="M25.8035611,29.9034727 C25.1981761,29.9048515 24.5969557,29.8033797 24.0255573,29.6033877 C23.8351823,29.5374686 23.6485951,29.4610806 23.466649,29.3745729 C23.0124074,29.1591335 22.721083,28.7032108 22.7164364,28.2004902 C22.6986884,27.7729958 22.9127031,27.3691153 23.2764004,27.1437474 C23.6400977,26.9183794 24.0970231,26.9065064 24.4719338,27.112682 C24.8856439,27.3224806 25.3434544,27.4305033 25.8073121,27.4277713 C27.127189,27.4250955 28.2903618,26.5603283 28.6731241,25.2971676 C28.7561585,25.0184279 28.797864,24.7290172 28.7969092,24.4381742 C28.794777,23.7644692 29.3348723,23.2143411 30.0085025,23.2040746 L36.0664689,23.2040746 C36.4642267,23.2040746 36.786673,22.8816282 36.786673,22.4838705 L36.786673,18.8565928 C36.7846075,18.3650044 36.3855127,17.9675865 35.8939201,17.9675909 L29.8284515,17.9675909 C29.5603784,17.9618699 29.3281769,17.7800806 29.2582899,17.5212144 L28.6731241,15.3568512 C28.5997833,15.0934342 28.3613744,14.9100427 28.0879583,14.9067236 L23.4441426,14.9067236 C23.2174643,14.9081581 23.0202466,15.0622345 22.9640065,15.2818299 L22.3600854,17.5324676 C22.2879381,17.794557 22.0505017,17.9768469 21.7786707,17.9788441 L16.1520765,17.9788441 C15.4216421,17.9829709 14.8316907,18.5762743 14.8317024,19.3067203 L14.8317024,20.2557392 C14.8431744,20.8930995 14.3755942,21.4380722 13.7438941,21.5235984 C13.3921331,21.5666888 13.0388234,21.4564771 12.7739486,21.2210329 C12.5090738,20.9855886 12.3581997,20.6476369 12.359752,20.2932498 L12.359752,18.6802928 C12.3576728,16.9181646 13.7822858,15.4868397 15.5444043,15.4806362 L20.3607689,15.4806362 L20.7358752,14.1377557 C21.0096257,13.1299564 21.9234429,12.4296192 22.9677576,12.4272711 L28.785656,12.4272711 C29.7586414,12.4291162 30.6099238,13.0821758 30.8637448,14.0214728 L31.2388511,15.4843873 L36.5541071,15.4843873 C38.0477702,15.4843873 39.2586234,16.6952405 39.2586234,18.1889036 L39.2586234,23.1440576 C39.2565576,24.541568 38.1241664,25.6739592 36.726656,25.6760249 L31.1338213,25.6760249 C30.6949705,27.5054694 29.354822,28.98557 27.5778138,29.6033877 C27.0073352,29.801917 26.4075973,29.9033526 25.8035611,29.9034727 Z M23.8830169,27.5553074 C23.7935879,27.5554027 23.705709,27.5786648 23.6279447,27.6228265 C23.4195511,27.7334316 23.2927707,27.9534758 23.3016022,28.189237 C23.3087451,28.467138 23.4689735,28.718307 23.7179702,28.841922 C24.8674513,29.3806472 26.1809084,29.4532436 27.3827585,29.0444794 C28.9631469,28.4976044 30.1553815,27.1823278 30.5449045,25.5559909 C30.60885,25.2815652 30.8520601,25.0863775 31.1338213,25.083357 L36.726656,25.083357 C37.7968454,25.081293 38.6638915,24.214247 38.6659555,23.1440576 L38.6659555,18.1964057 C38.6659555,17.0300641 37.7204488,16.0845573 36.5541071,16.0845573 L30.8074789,16.0845573 L30.2935833,14.1827685 C30.1098547,13.5042675 29.496082,13.0316625 28.7931581,13.0274411 L22.9415002,13.0274411 C22.1640177,13.0275023 21.4830427,13.5486096 21.2797793,14.2990514 L20.7996433,16.0883084 L20.0756882,16.0883084 L15.5294,16.0883084 C14.8399725,16.0902952 14.1795716,16.3660762 13.6934796,16.854982 C13.2073876,17.3438879 12.9354231,18.0058695 12.9374156,18.6952971 L12.9374156,20.3082541 C12.9370864,20.4943863 13.0162421,20.6718042 13.1549773,20.7958922 C13.2926431,20.919883 13.4776611,20.9774442 13.6613708,20.9534369 C13.9985025,20.8968419 14.2401425,20.5972083 14.2240302,20.2557392 L14.2240302,19.287965 C14.224012,18.2337285 15.0753518,17.3773611 16.1295701,17.3711719 L21.7561643,17.3711719 L22.3713386,15.1205342 C22.5000607,14.6465246 22.9304597,14.3175769 23.4216362,14.3178068 L28.0767051,14.3178068 C28.6167635,14.3204021 29.089031,14.6822694 29.2320325,15.2030576 L29.8171983,17.3674208 L35.8939201,17.3674208 C36.722582,17.3674208 37.3943452,18.039184 37.3943452,18.8678459 L37.3943452,22.4951237 C37.3943452,23.2181312 36.8082318,23.8042446 36.0852243,23.8042446 L30.0085025,23.8042446 C29.839722,23.8042417 29.6779084,23.8715451 29.5589151,23.9912425 C29.4399219,24.1109399 29.3735742,24.2731477 29.3745729,24.4419253 C29.3758947,24.7928102 29.3240416,25.1418698 29.2207793,25.4772186 C28.7617937,26.9884208 27.371657,28.0241791 25.7923079,28.0316924 C25.236267,28.0349773 24.6873645,27.9064287 24.1906041,27.6565861 C24.0971483,27.5997941 23.9919318,27.5651496 23.8830169,27.5553074 Z" id="Shape"></path>
                    <path d="M25.8035611,29.802194 C25.2097865,29.8039772 24.6200096,29.7050469 24.0593169,29.5096111 C23.8718722,29.4452617 23.6878311,29.3713949 23.5079106,29.2882984 C23.0870876,29.0882367 22.8165336,28.6664052 22.810213,28.2004902 C22.792826,27.7761225 23.0223382,27.3799582 23.3991298,27.1839522 C23.7187941,27.0118915 24.1035057,27.0118915 24.42317,27.1839522 C24.8514482,27.3991859 25.3242414,27.5109604 25.8035611,27.5102947 C27.1665318,27.5021799 28.3657705,26.6084507 28.7631496,25.3046697 C28.8452705,25.0232515 28.8857114,24.7313187 28.8831837,24.4381742 C28.8831837,23.8166778 29.3870061,23.3128554 30.0085025,23.3128554 L36.0664689,23.3128554 C36.5172363,23.3108017 36.882147,22.945891 36.8842006,22.4951237 L36.8842006,18.8565928 C36.8842006,18.3096759 36.4408369,17.8663122 35.8939201,17.8663122 L29.8284515,17.8663122 C29.5998764,17.8656617 29.4000728,17.7119666 29.3408133,17.4912059 L28.7556475,15.3268427 C28.6727697,15.0198484 28.3946887,14.8062944 28.0767051,14.8054449 L23.4441426,14.8054449 C23.1786002,14.8102518 22.9486766,14.991125 22.8814832,15.2480703 L22.273811,17.498708 C22.2145515,17.7194687 22.0147479,17.8731638 21.7861728,17.8738143 L16.1295701,17.8738143 C15.7525239,17.8748078 15.3913154,18.0255424 15.125407,18.2928577 C14.8594985,18.5601731 14.7106722,18.922172 14.7116683,19.2992182 L14.7116683,20.2557392 C14.7228141,20.843347 14.2924083,21.3462931 13.7101346,21.4260708 C13.3866714,21.469601 13.0602433,21.3705518 12.8155119,21.1546123 C12.5707804,20.9386728 12.4318573,20.627118 12.4347732,20.3007519 L12.4347732,18.6802928 C12.4326938,16.9720274 13.8136425,15.584367 15.5218979,15.5781639 L20.3982796,15.5781639 L20.7733859,14.1602621 C21.0367813,13.1960321 21.9119351,12.5266162 22.9114917,12.5247987 L28.785656,12.5247987 C29.7085856,12.5237798 30.5194832,13.1369349 30.7699682,14.0252239 L31.1825852,15.5631596 L36.5541071,15.5631596 C37.9918355,15.5631596 39.1573447,16.7286688 39.1573447,18.1663972 L39.1573447,23.1440576 C39.1573463,24.487098 38.0696948,25.5764279 36.726656,25.5784973 L31.1338213,25.5784973 C31.0827416,25.5838643 31.0398655,25.619348 31.0250405,25.6685228 C30.5976596,27.4585242 29.2865868,28.9067858 27.5478053,29.5096111 C26.9868102,29.703864 26.3972355,29.8027604 25.8035611,29.802194 Z M23.8830169,27.4577798 C23.7783851,27.4580838 23.6753971,27.4838308 23.5829319,27.532801 C23.3393015,27.6603151 23.1926486,27.9184243 23.2078256,28.1929881 C23.2080707,28.5131181 23.3918089,28.8047661 23.6804595,28.9432007 C23.847589,29.0219311 24.0191806,29.0908183 24.1943551,29.1495091 C25.2391693,29.5116507 26.375455,29.5116507 27.4202692,29.1495091 C29.0314477,28.5905747 30.2462693,27.2484726 30.6424321,25.5897505 C30.7053877,25.3698978 30.9051491,25.2174082 31.1338213,25.2146442 L36.726656,25.2146442 C37.852171,25.2125753 38.763485,24.299583 38.7634831,23.1740661 L38.7634831,18.1964057 C38.7634831,16.976201 37.7743118,15.9870297 36.5541071,15.9870297 L30.8825001,15.9870297 L30.3836088,14.1565111 C30.1873759,13.4332504 29.531313,12.9308322 28.781905,12.9299135 L22.9415002,12.9299135 C22.1203239,12.9300437 21.4010324,13.480271 21.1860028,14.272794 L20.720871,15.9907808 L20.0794392,15.9720255 L15.5294,15.9720255 C14.0386686,15.9782268 12.8340564,17.1895499 12.8361369,18.6802928 L12.8361369,20.2932498 C12.836531,20.506834 12.9279436,20.7101248 13.0874582,20.8521582 C13.245641,20.9971087 13.4599694,21.0644298 13.672624,21.0359603 C14.0539703,20.9744397 14.3321055,20.6419563 14.3253089,20.2557392 L14.3253089,19.287965 C14.3252749,18.2890429 15.130682,17.476938 16.1295701,17.4686995 L21.7561643,17.4686995 C21.806877,17.4688454 21.8514219,17.4350528 21.8649451,17.3861761 L22.4688662,15.1355384 C22.5786512,14.6961666 22.9725113,14.3872567 23.4253873,14.3853259 L28.0767051,14.3853259 C28.5729947,14.3856723 29.0070333,14.7196666 29.1345049,15.1993065 L29.7234217,17.3599187 C29.7354335,17.4082128 29.7786866,17.4421974 29.8284515,17.4424421 L35.8939201,17.4424421 C36.6583607,17.4424421 37.2780622,18.0621436 37.2780622,18.8265843 L37.2780622,22.453862 C37.2780622,23.1230065 36.7356134,23.6654553 36.0664689,23.6654553 L30.0085025,23.6654553 C29.5941715,23.6654553 29.2582899,24.0013369 29.2582899,24.4156678 C29.2599416,24.7561839 29.2106318,25.0950304 29.1119985,25.4209527 C28.6661428,26.8915612 27.3139928,27.89997 25.7773036,27.9079073 C25.2347369,27.9086642 24.6998055,27.7800749 24.2168615,27.532801 C24.1120079,27.48485 23.9983047,27.4592987 23.8830169,27.4577798 Z" id="Shape"></path>
                    <path d="M25.8035611,30.098528 C25.1767905,30.0992961 24.5542963,29.9953358 23.9617892,29.7909409 C23.7649104,29.7231833 23.5720444,29.6442836 23.3841256,29.5546239 C22.8542764,29.312976 22.5121093,28.786565 22.5063769,28.2042413 C22.4885353,27.7082724 22.7375934,27.2407102 23.1591412,26.9787926 C23.5806891,26.716875 24.1102007,26.7006935 24.546955,26.9363821 C24.9343989,27.1315408 25.3622392,27.2330404 25.796059,27.232716 C27.0288233,27.2263306 28.1134225,26.4170644 28.4705667,25.2371506 C28.5493102,24.9781936 28.5885128,24.7088336 28.5868497,24.4381742 C28.5868254,23.651176 29.2215285,23.0114488 30.0085025,23.0052682 L36.0664689,23.0052682 C36.354429,23.0052682 36.5878667,22.7718305 36.5878667,22.4838705 L36.5878667,18.8565928 C36.5878667,18.4733366 36.2771762,18.1626461 35.8939201,18.1626461 L29.8284515,18.1626461 C29.4667742,18.1617281 29.1503762,17.919054 29.0557325,17.5699782 L28.4705667,15.409366 C28.4230747,15.2306867 28.2615874,15.1061108 28.0767051,15.1055299 L23.4441426,15.1055299 C23.3085757,15.1045466 23.1896288,15.1956877 23.1553107,15.3268427 L22.5476386,17.5774803 C22.4563994,17.9193676 22.1511472,18.1605167 21.797426,18.1701483 L16.1295701,18.1701483 C15.5080737,18.1701483 15.0042512,18.6739707 15.0042512,19.2954671 L15.0042512,20.2557392 C15.0267349,20.8301996 14.7037038,21.3624807 14.1837459,21.6077439 C13.6637881,21.853007 13.0475839,21.7637613 12.6185753,21.381058 C12.310909,21.1077988 12.1348039,20.7159992 12.1346882,20.304503 L12.1346882,18.6802928 C12.1346882,16.8158035 13.6461554,15.3043363 15.5106447,15.3043363 L20.1769669,15.3043363 L20.4995583,14.1039962 C20.7972074,13.0106919 21.7896479,12.2517668 22.9227448,12.2509711 L28.785656,12.2509711 C29.8469849,12.2525541 30.7761976,12.9636706 31.055049,13.9877132 L31.4114,15.3080873 L36.5541071,15.3080873 C37.3231213,15.3080873 38.0606387,15.613577 38.6044138,16.1573522 C39.148189,16.7011273 39.4536787,17.4386447 39.4536787,18.2076589 L39.4536787,23.1440576 C39.4556708,23.8689532 39.1693597,24.564896 38.6578356,25.0785309 C38.1463116,25.5921658 37.4515537,25.8813404 36.726656,25.8823334 L31.2763617,25.8823334 C30.790781,27.7126927 29.4270281,29.1818904 27.6378308,29.802194 C27.0473792,30.003246 26.4272846,30.1034249 25.8035611,30.098528 Z M23.8830169,27.7578648 C23.8255673,27.7587966 23.7690995,27.7729135 23.7179702,27.7991265 C23.5790024,27.8715577 23.4942735,28.017642 23.5004085,28.1742328 C23.5021784,28.3780874 23.6201472,28.5630508 23.8042446,28.6506178 C23.9600646,28.7255876 24.1204233,28.7907334 24.2843806,28.845673 C25.2671296,29.1869635 26.3362415,29.1869635 27.3189905,28.845673 C28.8335569,28.3241594 29.9767052,27.0649985 30.3498492,25.5072271 C30.4389999,25.145986 30.7617532,24.8911808 31.1338213,24.8883018 L36.726656,24.8883018 C37.6891196,24.8862386 38.468837,24.1065211 38.4709002,23.1440576 L38.4709002,18.1964057 C38.4709002,17.1377901 37.6127227,16.2796126 36.5541071,16.2796126 L30.6536853,16.2796126 L30.1022791,14.2540387 C29.9414303,13.6590928 29.4019616,13.2456537 28.785656,13.2450028 L22.9415002,13.2450028 C22.2538649,13.2461571 21.6518616,13.7068739 21.4710835,14.3703216 L20.9459347,16.3096211 L20.0719371,16.2871147 L15.5294,16.2871147 C14.2081622,16.2912052 13.1369456,17.3590742 13.1287198,18.6802928 L13.1287198,20.2932498 C13.1280783,20.4228724 13.184289,20.5462618 13.2825134,20.6308455 C13.3760094,20.718819 13.5040827,20.760133 13.6313623,20.7433774 C13.8569357,20.6914695 14.0141582,20.4870802 14.0064685,20.2557392 L14.0064685,19.287965 C14.006465,18.7255709 14.2303874,18.1863198 14.6287633,17.7893516 C15.0271392,17.3923834 15.5671795,17.1703712 16.1295701,17.1723656 L21.6361303,17.1723656 L22.2025408,15.0680193 C22.3523192,14.5055231 22.8620474,14.1143721 23.4441426,14.1152494 L28.0767051,14.1152494 C28.7066092,14.1167627 29.2578405,14.539015 29.4233367,15.1467916 L29.9709919,17.1723656 L35.8939201,17.1723656 C36.8211656,17.1744284 37.5723333,17.9255962 37.5743962,18.8528417 L37.5743962,22.4801194 C37.5743962,23.3087813 36.902633,23.9805446 36.0739711,23.9805446 L30.0085025,23.9805446 C29.7661189,23.9805446 29.5696281,24.1770353 29.5696281,24.4194189 C29.573621,25.4234792 29.1772976,26.387731 28.4683709,27.0987697 C27.7594443,27.8098084 26.7963756,28.2089984 25.7923079,28.2079923 C25.2046152,28.2096756 24.6248808,28.0721333 24.1005786,27.8066286 C24.0323469,27.7750994 23.9581786,27.7584755 23.8830169,27.7578648 Z" id="Shape"></path>
                    <circle id="Oval" cx="25.8373207" cy="24.5206976" r="1.41415068"></circle>
                    <path d="M28.8889094,32.0935425 L28.8889094,32.0935425 C29.5124774,32.0935425 30.0179793,32.5990443 30.0179793,33.2226124 L30.0179793,49.4797186 C30.0179793,50.1032867 29.5124774,50.6087885 28.8889094,50.6087885 L28.8889094,50.6087885 C28.2653413,50.6087885 27.7598395,50.1032867 27.7598395,49.4797186 L27.7598395,33.2226124 C27.7598395,32.5990443 28.2653413,32.0935425 28.8889094,32.0935425 Z" id="Rectangle" transform="translate(28.888909, 41.351166) rotate(-24.200000) translate(-28.888909, -41.351166) "></path>
                    <path d="M32.2253806,50.1892204 C31.6636027,50.1909158 31.1535112,49.8616348 30.9237618,49.3489824 L24.2581232,34.5097779 C24.1040307,34.1642403 24.0932393,33.7717003 24.2281147,33.4182186 C24.509729,32.6846144 25.3307784,32.31598 26.0661355,32.5929848 C26.4203858,32.7274224 26.7065326,32.9973722 26.8613608,33.3431973 L33.5232484,48.1711486 C33.8382041,48.8860402 33.5207821,49.7213613 32.8105464,50.04668 C32.6273427,50.1338553 32.4281521,50.1823761 32.2253806,50.1892204 Z M25.559742,33.1031293 C25.2789059,33.106274 25.0185744,33.2507679 24.8673509,33.4874327 C24.7161273,33.7240976 24.6943871,34.0210459 24.8095294,34.277212 L31.4751681,49.1051633 C31.6685437,49.514256 32.1521774,49.6954109 32.5667273,49.5140291 C32.9864018,49.3246867 33.1741696,48.8317963 32.9868464,48.4112167 L26.3212078,33.5945185 C26.2318073,33.3914066 26.0640345,33.2331048 25.856076,33.1556442 C25.7609628,33.1215662 25.6607735,33.1038112 25.559742,33.1031293 Z" id="Shape"></path>
                    <path d="M25.79981,0.671440243 C13.6530952,0.673745056 3.24636108,9.36297064 1.07665268,21.3143326 C-1.09305573,33.2656946 5.59528121,45.0584425 16.9660571,49.330227 C18.751563,50.0579332 19.7193372,48.2911826 19.9669073,47.7022658 L20.0494307,47.5184637 L26.0211227,34.2584567 C26.1866282,33.8899221 26.1429508,33.461086 25.9065433,33.1334867 C25.6701357,32.8058875 25.2769141,32.6292952 24.875001,32.6702305 C24.473088,32.7111658 24.1235437,32.9634096 23.9580382,33.3319441 L18.3802078,45.7629663 C18.0895556,46.4272926 17.3282205,46.7460294 16.6509678,46.4869214 C7.82660723,42.5684039 2.46250352,33.4805088 3.29626725,23.8613115 C4.13003098,14.2421142 10.9778119,6.21270927 20.3447937,3.87096383 C29.7117754,1.52921839 39.5324786,5.39150226 44.7948335,13.4866699 C50.0571885,21.5818376 49.6008124,32.1248527 43.6586201,39.7350084 C43.6026796,39.7841125 43.5512127,39.83809 43.5048265,39.8963041 C42.7845208,40.8077742 41.9944151,41.6618409 41.1416569,42.4507778 L39.416168,43.8874349 C38.9188295,44.3292766 38.8550542,45.0833829 39.2711259,45.6024725 C39.6871977,46.121562 40.4371034,46.2234692 40.9766102,45.8342365 C41.6117901,45.3515998 42.221963,44.8377041 42.8071288,44.2925497 L42.9121586,44.2062752 C50.4762817,37.1709604 52.965054,26.2236568 49.186023,16.6095766 C45.406992,6.99549642 36.1299412,0.67301487 25.79981,0.671440243 Z" id="Path"></path>
                    <path d="M17.8025441,49.802861 C17.4763197,49.7986316 17.1540184,49.7311139 16.8535252,49.6040546 C6.21222459,45.6084693 -0.485651026,35.0367656 0.446896976,23.7083793 C1.37944498,12.379993 9.71595629,3.04591375 20.8674079,0.844298593 C32.0188594,-1.35731656 43.2772286,4.10817346 48.4450888,14.2321648 C53.6129491,24.3561562 51.4353354,36.6801351 43.1109649,44.4200858 L42.994682,44.5213645 C42.4170183,45.0577665 41.7943419,45.5791642 41.1529101,46.0668024 C40.4880295,46.5797499 39.5346099,46.4645381 39.0110532,45.8079791 C38.492829,45.1505745 38.5872844,44.2010494 39.2248638,43.6586201 L40.9390995,42.218212 C41.7757158,41.4417508 42.5507652,40.6014869 43.2572564,39.7049999 C43.3154395,39.6312167 43.3807757,39.5633674 43.4523116,39.5024425 C49.3067856,31.9732366 49.7380555,21.5584102 44.5261146,13.5709526 C39.3141737,5.58349499 29.6076609,1.78373024 20.3582285,4.11005931 C11.1087961,6.43638838 4.35488972,14.3761209 3.54192761,23.8789046 C2.72896549,33.3816884 8.03611312,42.3532427 16.7559976,46.2168449 C17.2800171,46.419715 17.87055,46.1708949 18.0913759,45.6541855 L18.21141,45.3578515 L23.6729574,33.204408 C23.9961356,32.4855438 24.8408778,32.1647769 25.559742,32.4879551 C26.2786062,32.8111332 26.5993731,33.6558754 26.276195,34.3747396 L20.3682711,47.5034595 L20.2369839,47.8072955 C20.0194222,48.3474486 19.231699,49.802861 17.8025441,49.802861 Z M25.79981,0.967774206 C13.795956,0.968884851 3.51089236,9.55516008 1.36601005,21.3658329 C-0.778872267,33.1765058 5.83037943,44.8308804 17.0673358,49.0526484 C18.4814865,49.6303121 19.3179735,48.4037145 19.6518181,47.713519 L19.7906074,47.3984297 L25.7510462,34.1346716 C25.9395668,33.7141257 25.7514731,33.2203797 25.3309272,33.0318591 C24.9103812,32.8433385 24.4166353,33.0314322 24.2281147,33.4519782 L18.515246,46.1680811 L18.4927397,46.1680811 C18.062157,46.7865927 17.2698927,47.0388866 16.5609423,46.7832554 C7.61194491,42.8317761 2.15898046,33.6343052 2.98615123,23.8867654 C3.813322,14.1392256 10.738137,5.99212609 20.225016,3.60510492 C29.711895,1.21808375 39.667836,5.1177672 45.0096667,13.3131066 C50.3514974,21.508446 49.9006993,32.1913798 43.8874349,39.9075573 C43.8305142,39.958192 43.7778242,40.0133911 43.7298903,40.072604 C42.999501,40.9952575 42.1994291,41.860539 41.3367122,42.6608374 L39.6112233,44.1124987 C39.3431982,44.3255787 39.2092095,44.6654624 39.2597297,45.0041189 C39.3102498,45.3427755 39.5376034,45.6287549 39.8561486,45.7543315 C40.1746939,45.8799081 40.5360361,45.8260038 40.8040613,45.6129238 C41.4267377,45.1365388 42.0344099,44.6263943 42.6083225,44.1124987 L42.7283565,44.01122 C50.2222034,37.0594054 52.6913729,26.2261733 48.9501778,16.7136065 C45.2089826,7.20103969 36.0216115,0.952205696 25.79981,0.967774206 Z" id="Shape"></path>
                </g>
            </g>
        </g>
    </g>
</svg>