<?xml version="1.0" encoding="UTF-8"?>
<svg width="208px" height="39px" viewBox="0 0 208 39" version="1.1" xmlns="http://www.w3.org/2000/svg" xmlns:xlink="http://www.w3.org/1999/xlink">
    <!-- Generator: Sketch 52.1 (67048) - http://www.bohemiancoding.com/sketch -->
    <title>logo-main</title>
    <desc>Created with Sketch.</desc>
    <g id="Page-1" stroke="none" stroke-width="1" fill="none" fill-rule="evenodd">
        <g id="Travelpix-photographers" transform="translate(-341.000000, -2983.000000)" fill-rule="nonzero">
            <g id="Footer" transform="translate(0.000000, 2957.000000)">
                <g id="footer">
                    <g id="Group-14">
                        <g id="logo-main" transform="translate(341.167857, 26.000000)">
                            <g id="Icon" transform="translate(0.003270, 0.008724)" fill="#FBCA00">
                                <path d="M32.7684918,21.2000533 C32.3471933,21.2530406 32.0368109,21.5710509 32.0440634,21.9422852 L32.0440634,22.6795021 C32.0455923,23.0075704 31.897255,23.3226593 31.6318451,23.5551106 C31.3664352,23.7875618 31.0058131,23.9182298 30.6297031,23.9182271 L13.9563504,23.9182271 C13.5187193,23.9168993 13.0996174,23.7639814 12.7912437,23.493114 C12.48287,23.2222466 12.3104853,22.8556181 12.3120128,22.4738838 L12.3120128,20.4678515 C12.3073926,20.0919575 12.4757499,19.7301423 12.7794024,19.4633889 C13.0830548,19.1966355 13.4966457,19.0472194 13.9276032,19.0485836 L18.5271488,19.0485836 C18.9757978,19.0458276 19.3378298,18.7277968 19.3378187,18.3364421 C19.3368031,18.0918286 19.3774942,17.8484431 19.4585568,17.6142705 C19.8184045,16.5463739 20.9422278,15.8132047 22.2182841,15.8138564 C22.6654315,15.8138826 23.1064071,15.9048939 23.5061569,16.0796557 C23.7358753,16.1875437 24.0123658,16.1875437 24.2420842,16.0796557 C24.5093591,15.9326318 24.663055,15.6698815 24.6426727,15.3948309 C24.6222904,15.1197803 24.431094,14.876476 24.1443438,14.7606895 C23.5345697,14.4985776 22.8635796,14.3629832 22.1837875,14.3644981 C20.0753278,14.3707529 18.2490344,15.6418525 17.7739732,17.4337276 C17.7487221,17.5396486 17.639159,17.6139801 17.5152488,17.6092554 L13.2204231,17.6092554 C12.5479663,17.610584 11.9036568,17.8448716 11.4292362,18.2605774 C10.9548157,18.6762832 10.6891464,19.2393544 10.690673,19.8259211 L10.690673,23.1107991 C10.6873081,24.3380984 11.8136324,25.3406578 13.2204231,25.3625704 L31.1586509,25.3625704 C31.8311077,25.3612418 32.4754171,25.1269542 32.9498377,24.7112484 C33.4242582,24.2955426 33.6899275,23.7324713 33.6884009,23.1459047 L33.6884009,21.9121948 C33.6903034,21.7065893 33.5902343,21.5103008 33.4139337,21.3738189 C33.2376332,21.2373369 33.002309,21.1739831 32.7684918,21.2000533 Z" id="Path"></path>
                                <path d="M31.1816486,25.5380982 L13.2204231,25.5380982 C12.4839229,25.5367695 11.7781931,25.2802902 11.258487,24.825083 C10.7387809,24.3698758 10.4476704,23.7532292 10.4491969,23.1107991 L10.4491969,19.8259211 C10.4491566,19.1871034 10.7420384,18.5748084 11.2625873,18.1254572 C11.7831361,17.6761061 12.4881044,17.4270314 13.2204231,17.4337276 L17.5439959,17.4337276 C17.5738634,17.4368443 17.6014366,17.4193524 17.6072397,17.3936069 C18.0916467,15.5180695 20.0027272,14.1865644 22.2067853,14.1889703 C22.9160965,14.1879505 23.6162565,14.3286246 24.253583,14.6002069 C24.6263696,14.7554391 24.8651269,15.0824298 24.8687723,15.4427405 C24.8752558,15.7869481 24.6504353,16.1026775 24.2938291,16.2501685 C24.0068794,16.3857129 23.6608696,16.3857129 23.37392,16.2501685 C23.0037273,16.0850505 22.593821,15.9991009 22.1780381,15.9994144 C20.9944736,16.0063563 19.9544573,16.6857237 19.6137914,17.6744514 C19.5378921,17.8923283 19.4991478,18.1187589 19.4988028,18.3464723 C19.5020011,18.8375504 19.0498624,19.2386619 18.4869028,19.2441718 L13.8873572,19.2441718 C13.5137694,19.2454991 13.1560877,19.3762253 12.8929994,19.6075913 C12.6299112,19.8389574 12.4829678,20.1520107 12.4844958,20.4778816 L12.4844958,22.483914 C12.4829679,22.8190955 12.6341515,23.141078 12.9047873,23.3790276 C13.1754231,23.6169772 13.5433415,23.751402 13.9276032,23.7527294 L30.6009559,23.7527294 C31.2718782,23.7499689 31.8140936,23.2747669 31.8140861,22.6895323 L31.8140861,21.9422852 C31.8061631,21.4650825 32.2232329,21.0640267 32.7684918,21.0245255 C33.0596806,20.9945174 33.351718,21.0742761 33.5712923,21.2437793 C33.7908666,21.4132824 33.9171272,21.6564342 33.9183782,21.9121948 L33.9183782,23.1459047 C33.9183815,24.4651206 32.6940322,25.5353326 31.1816486,25.5380982 Z M13.2204231,17.7847832 C11.9438105,17.8039381 10.9204614,18.7122003 10.9206503,19.8259211 L10.9206503,23.1107991 C10.9199161,24.2306079 11.9373763,25.1491748 13.2204231,25.1870426 L31.1586509,25.1870426 C32.4365823,25.170571 33.4617111,24.2607292 33.4584236,23.1459047 L33.4584236,21.9121948 C33.4585141,21.7573264 33.3832911,21.6096924 33.2514441,21.5059732 C33.1174088,21.4032279 32.9401814,21.3541226 32.7627424,21.370566 C32.4452147,21.4194741 32.2144377,21.6610351 32.2165463,21.9422852 L32.2165463,22.6795021 C32.2180747,23.0541234 32.0485362,23.4138582 31.7453884,23.6792272 C31.4422406,23.9445962 31.0304352,24.0937573 30.6009559,24.0937549 L13.9276032,24.0937549 C13.4366027,24.0924269 12.9663173,23.9210158 12.6202057,23.6172306 C12.2740941,23.3134454 12.0805083,22.9021709 12.0820355,22.4738838 L12.0820355,20.4678515 C12.0820155,19.5965117 12.8884484,18.8886007 13.8873572,18.8830859 L18.4869028,18.8830859 C18.6500633,18.881762 18.8059376,18.8239525 18.9202312,18.722376 C19.0345249,18.6207996 19.0978746,18.4837778 19.0963426,18.3414572 C19.0991134,18.0705527 19.1495285,17.8016233 19.2458278,17.5440593 C19.5059137,16.7846634 20.1382621,16.1647598 20.9727188,15.8511541 C21.8071754,15.5375484 22.7580216,15.5624554 23.5694006,15.9191731 C23.7472887,16.0087589 23.9664558,16.0087589 24.1443438,15.9191731 C24.3551177,15.8209394 24.4825596,15.6259144 24.4720615,15.4176651 C24.4671522,15.1917233 24.3187149,14.9868775 24.0868495,14.8860665 C23.4959147,14.6430815 22.8484404,14.5229166 22.1952864,14.5350108 C20.1844618,14.5488939 18.4455885,15.76107 17.9867022,17.4688331 C17.9356286,17.6535591 17.7445681,17.7827183 17.5267476,17.7797681 L13.2204231,17.7847832 Z" id="Shape"></path>
                                <path d="M31.1816486,25.5130228 L13.2204231,25.5130228 C11.7039356,25.5074996 10.4779308,24.4336034 10.477944,23.1107991 L10.477944,19.8259211 C10.4779034,19.1937535 10.7677564,18.5878362 11.2829143,18.1431876 C11.7980722,17.6985389 12.4957287,17.4521063 13.2204231,17.458803 L17.5439959,17.458803 C17.5877545,17.4621024 17.6273657,17.4361885 17.6359868,17.398622 C18.1218821,15.5268093 20.0353534,14.2019838 22.2355324,14.2140457 C22.941147,14.2131327 23.6375424,14.3538409 24.2708313,14.6252823 C24.6234353,14.781805 24.845569,15.0976361 24.8457745,15.4427405 C24.8580563,15.7708761 24.6519769,16.0756827 24.3168268,16.2250931 C24.0364783,16.3552627 23.7002639,16.3552627 23.4199154,16.2250931 C23.045879,16.0593344 22.6320745,15.9733937 22.2125347,15.974339 C21.0151364,15.9811116 19.9630802,16.6688639 19.6195409,17.6694364 C19.5431644,17.8889377 19.5044158,18.1170835 19.5045522,18.3464723 C19.507618,18.5761125 19.4055744,18.7973389 19.2210304,18.9611359 C19.0364863,19.124933 18.784679,19.2177767 18.5213994,19.2190963 L13.9218538,19.2190963 C13.5401669,19.2190856 13.1742781,19.3520265 12.9054664,19.5883873 C12.6366547,19.8247481 12.4871795,20.1449567 12.4902452,20.4778816 L12.4902452,22.483914 C12.4887174,22.8257459 12.6429297,23.1541063 12.9189567,23.3967585 C13.1949836,23.6394107 13.5702139,23.7764773 13.9620998,23.7778048 L30.6354525,23.7778048 C31.3222514,23.7750441 31.8773371,23.2886156 31.8773298,22.6895323 L31.8773298,21.9422852 C31.8707022,21.4912331 32.2550396,21.108402 32.7684918,21.0546159 C33.0517068,21.0237155 33.3364927,21.1004307 33.5504146,21.2652493 C33.7624572,21.4315356 33.883656,21.6684911 33.8838816,21.9172098 L33.8838816,23.1509197 C33.8807339,24.4523787 32.6736683,25.507511 31.1816486,25.5130228 Z M13.2204231,17.7597078 C11.9166826,17.7652284 10.8631406,18.6886886 10.863156,19.8259211 L10.863156,23.1107991 C10.8597776,24.2550171 11.9088947,25.1902228 13.2204231,25.212118 L31.1586509,25.212118 C32.4623914,25.2065974 33.5159333,24.2831372 33.515918,23.1459047 L33.515918,21.9121948 C33.5145318,21.7497229 33.4353149,21.5951598 33.2974395,21.4859129 C33.1588012,21.3758137 32.9716731,21.3244614 32.7857401,21.3454906 C32.4510438,21.3926848 32.206452,21.6465727 32.2107969,21.9422852 L32.2107969,22.6795021 C32.2078803,23.4331741 31.5165342,24.0473436 30.6527008,24.0636644 L13.9793481,24.0636644 C13.4959718,24.0623365 13.0329983,23.8935673 12.6922778,23.5944846 C12.3515574,23.2954019 12.1610003,22.8905054 12.1625276,22.4688687 L12.1625276,20.4628364 C12.1610003,20.0505103 12.3473171,19.654543 12.68049,19.3620439 C13.0136629,19.0695448 13.4663996,18.9044742 13.9391021,18.9031463 L18.5386477,18.9031463 C18.7094324,18.9018221 18.8726183,18.8413706 18.9923031,18.7350916 C19.1119878,18.6288127 19.1783663,18.4854131 19.1768346,18.3364421 C19.1628626,18.0695113 19.1958246,17.8022879 19.274575,17.5440593 C19.5340978,16.7906917 20.1635252,16.1766336 20.9928974,15.8676947 C21.8222696,15.5587559 22.7660515,15.5867978 23.5694006,15.9442485 C23.7472887,16.0338343 23.9664558,16.0338343 24.1443438,15.9442485 C24.3579084,15.8466019 24.4910358,15.6530626 24.4893098,15.4427405 C24.4844348,15.2075547 24.3290321,14.9945418 24.0868495,14.8910816 C23.4957227,14.6480829 22.8486913,14.5262847 22.1952864,14.5350108 C20.1713263,14.5504807 18.4214986,15.7703016 17.957955,17.4888935 C17.9096693,17.6617571 17.7306974,17.7824842 17.5267476,17.7797681 L13.2204231,17.7597078 Z" id="Shape"></path>
                                <path d="M31.1816486,25.6885506 L13.2204231,25.6885506 C11.5927991,25.6830263 10.2767016,24.5305441 10.2767139,23.1107991 L10.2767139,19.8259211 C10.2765619,18.4352526 11.5572798,17.3024757 13.1514299,17.2832751 L17.3945107,17.2832751 C17.7450441,16.028378 18.7289518,14.979785 20.0699146,14.4319815 C21.4108774,13.884178 22.964266,13.8962472 24.2938291,14.4647997 C24.7231108,14.6474059 24.9969937,15.0261512 25.0010092,15.4427405 C25.0187238,15.8377293 24.7688244,16.2049582 24.3628223,16.3805606 C24.0249794,16.5374772 23.6197719,16.5374772 23.281929,16.3805606 C22.9359877,16.2284999 22.5539215,16.149478 22.1665392,16.1498669 C21.0591113,16.1576427 20.08685,16.7942099 19.7690261,17.7195872 C19.6947427,17.9221759 19.6578691,18.1337804 19.6597869,18.3464723 C19.6629819,18.92064 19.1336236,19.38911 18.4754039,19.3946242 L13.8758583,19.3946242 C13.1922348,19.3973849 12.6397231,19.8815681 12.6397305,20.4778816 L12.6397305,22.483914 C12.6397234,23.0996156 13.2102535,23.599516 13.9161044,23.602277 L30.5894571,23.602277 C30.8664529,23.6022807 31.1320207,23.5059571 31.327346,23.3346385 C31.5226713,23.16332 31.6316346,22.9311449 31.6301043,22.6895323 L31.6301043,21.9422852 C31.6152698,21.5259342 31.885828,21.1417983 32.3183175,20.9651671 C32.7508069,20.7885359 33.2623064,20.8532748 33.6194077,21.1298422 C33.8753143,21.3286395 34.0217419,21.6132836 34.021868,21.9121948 L34.021868,23.1459047 C34.0254402,24.5261783 32.7635928,25.6558203 31.1816486,25.6885506 Z M13.2204231,17.9352356 C12.647081,17.936564 12.0978268,18.1365073 11.693491,18.49108 C11.2891552,18.8456527 11.0628592,19.3258097 11.0643861,19.8259211 L11.0643861,23.1107991 C11.0640566,24.157004 12.0213533,25.0120697 13.2204231,25.0365901 L31.1586509,25.0365901 C31.7369646,25.0419588 32.2936303,24.8449729 32.7042005,24.4896705 C33.1147707,24.1343681 33.3450059,23.6503795 33.343435,23.1459047 L33.343435,21.9121948 C33.3441148,21.7995096 33.2897516,21.6919034 33.1939498,21.616305 C33.0955236,21.5426311 32.9663341,21.5080975 32.837485,21.5210185 C32.6071561,21.5599652 32.4422358,21.7376694 32.4465236,21.9422852 L32.4465236,22.6795021 C32.4465287,23.5417102 31.6469052,24.2414439 30.6584503,24.2442074 L13.9850975,24.2442074 C13.4483517,24.2428792 12.9341947,24.0556168 12.5557364,23.7236164 C12.177278,23.3916159 11.9655199,22.9420733 11.9670469,22.4738838 L11.9670469,20.4678515 C11.9655199,20.0089726 12.1730377,19.5683592 12.5439485,19.2429423 C12.9148593,18.9175254 13.4187796,18.7339617 13.9448515,18.7326335 L18.5443971,18.7326335 C18.6618133,18.731312 18.7738174,18.6893544 18.8557648,18.6159927 C18.9377122,18.542631 18.9828887,18.4438761 18.9813539,18.3414572 C18.9804094,18.0628522 19.0269123,17.78567 19.1193403,17.5189839 C19.5455423,16.3291786 20.8064801,15.5174566 22.2355324,15.5129516 C22.7414235,15.5123417 23.2401523,15.6172299 23.6901387,15.8188715 C23.8122106,15.8828322 23.9647776,15.8828322 24.0868495,15.8188715 C24.2354527,15.7503728 24.3267698,15.6143789 24.3225762,15.4678159 C24.3199102,15.2978124 24.2091245,15.1431956 24.0351046,15.0666094 C23.4754378,14.8262152 22.8593659,14.7025998 22.2355324,14.7055236 C20.3105588,14.7259006 18.6497569,15.8889794 18.21093,17.523999 C18.1376393,17.7739641 17.8800302,17.9491934 17.584242,17.9502809 L13.2204231,17.9352356 Z" id="Shape"></path>
                                <path d="M31.6186054,11.7115203 L26.7718343,11.7115203 L26.3751234,10.4226445 C26.1830812,9.80430703 25.5399607,9.37484082 24.8055285,9.37449263 L19.6885341,9.37449263 C18.8831581,9.36625194 18.1735334,9.83461896 17.9637045,10.512916 L17.5957408,11.7115203 L17.1645334,11.7115203 L13.2204231,11.7115203 C12.5479663,11.7128489 11.9036568,11.9471365 11.4292362,12.3628423 C10.9548157,12.7785481 10.6891464,13.3416194 10.690673,13.928186 L10.690673,15.1568809 C10.6906615,15.3632697 10.7918858,15.5598009 10.968791,15.6968587 C11.1456962,15.8339165 11.3813761,15.8984028 11.6163316,15.8740374 C12.0398463,15.8208242 12.3509527,15.4999183 12.34076,15.1267904 L12.34076,14.3845584 C12.3392321,14.0560273 12.4873869,13.7404228 12.7526316,13.5071757 C13.0178763,13.2739286 13.3784828,13.1421457 13.7551203,13.1408184 L18.6881329,13.1408184 C18.8105543,13.1415944 18.9175851,13.0689809 18.9468573,12.9652905 L19.4758051,11.255148 C19.5579358,11.0017493 19.8180541,10.823475 20.1197415,10.8138208 L24.1443438,10.8138208 C24.4991086,10.8130699 24.8113302,11.0178389 24.9090183,11.3153289 L25.4207177,12.9652905 C25.44999,13.0689809 25.5570208,13.1415944 25.6794422,13.1408184 L31.0436622,13.1408184 C31.6050024,13.1488689 32.0578317,13.5438602 32.0670611,14.0335027 L32.0670611,16.8068425 C32.0670611,17.2333844 31.6706484,17.5791649 31.1816486,17.5791649 L25.8691734,17.5791649 C25.4195817,17.5818979 25.0558872,17.8991391 25.0527541,18.2913064 C25.0634588,18.546885 25.0285452,18.8023617 24.9492643,19.0485836 C24.7000731,19.7508586 24.1101326,20.3223748 23.3354862,20.6119623 C22.5608398,20.9015497 21.6795272,20.8800346 20.9246619,20.5531079 C20.6949436,20.4452199 20.418453,20.4452199 20.1887346,20.5531079 C19.9117285,20.6970635 19.7499236,20.963784 19.7692836,21.2445345 C19.7886437,21.5252849 19.9859344,21.7731646 20.2807255,21.8871194 C20.4308996,21.9525542 20.5865877,22.0078813 20.7464295,22.052617 C21.6960702,22.3399937 22.7289992,22.3399937 23.6786398,22.052617 C25.1465543,21.6124604 26.2533584,20.5466942 26.6108502,19.2291265 C26.6416064,19.1226944 26.7495507,19.0469595 26.875324,19.0435685 L31.7738401,19.0435685 C32.8534501,19.0435685 33.7286469,18.2801569 33.7286469,17.338441 L33.7286469,13.5319947 C33.7191619,12.5221872 32.776312,11.7087273 31.6186054,11.7115203 Z" id="Path"></path>
                                <path d="M22.1952864,22.4337632 C21.6726034,22.4351659 21.15347,22.3588468 20.6601881,22.2080845 C20.4960301,22.1660522 20.3347797,22.1158184 20.1772358,22.0576321 C19.797798,21.9013843 19.5527201,21.5710045 19.5447983,21.2050684 C19.5338969,20.872026 19.7413599,20.5626349 20.0794954,20.4076705 C20.3672199,20.2748203 20.7116801,20.2748203 20.9994045,20.4076705 C21.3695972,20.5727884 21.7795035,20.6587381 22.1952864,20.6584246 C23.3750863,20.6512263 24.4131441,19.9771986 24.7595331,18.9934177 C24.8335679,18.7753028 24.8703758,18.5488668 24.8687723,18.3213969 C24.8641588,18.0859625 24.9669751,17.8585758 25.154595,17.6892765 C25.3422148,17.5199772 25.5992635,17.4226389 25.8691734,17.4186823 L31.1644003,17.4186823 C31.5422638,17.4186823 31.8485827,17.1514883 31.8485827,16.8218877 L31.8485827,14.0335027 C31.8396813,13.6473272 31.4862141,13.3346023 31.0436622,13.3213613 L25.7196882,13.3213613 C25.5218977,13.3119931 25.351914,13.1957796 25.2942302,13.0304866 L24.7825308,11.3755099 C24.7176683,11.1462288 24.4782117,10.9874863 24.2075876,10.9943637 L20.1197415,10.9943637 C19.8963509,10.9963931 19.701587,11.1273907 19.6425386,11.3153289 L19.1250897,13.0304866 C19.0704628,13.2103462 18.8841931,13.3358041 18.6708846,13.3364065 L13.737872,13.3364065 C13.4146039,13.3377335 13.1051807,13.4510232 12.8776739,13.6513525 C12.6501671,13.8516818 12.5232134,14.1226404 12.5247418,14.4046187 L12.5247418,15.1368205 C12.5499584,15.5024724 12.3165231,15.8444501 11.9359701,15.9993585 C11.5554171,16.1542669 11.1049946,16.0906612 10.7999122,15.8389319 C10.5800487,15.6682577 10.4544799,15.4236396 10.4549463,15.166911 L10.4549463,13.9181559 C10.4549206,13.2802157 10.7470143,12.668692 11.2663136,12.2194875 C11.7856129,11.7702831 12.4890959,11.5206127 13.2204231,11.5259623 L17.4807522,11.5259623 L17.8199687,10.4677803 C18.0511675,9.71952824 18.8288537,9.19945564 19.7172812,9.1989648 L24.8342757,9.1989648 C25.6589533,9.20234898 26.380303,9.68399541 26.5993513,10.3775088 L26.9270689,11.5259623 L31.6186054,11.5259623 C32.8887349,11.5259623 33.9183782,12.4240936 33.9183782,13.5319947 L33.9183782,17.3133656 C33.915219,18.3508793 32.9517765,19.1912652 31.7623412,19.1940209 L26.8580757,19.1940209 C26.8277201,19.1987877 26.8031565,19.2182661 26.794832,19.2441718 C26.4180579,20.6192742 25.2623872,21.7313573 23.7303847,22.1930393 C23.2377243,22.3476151 22.7188203,22.4289862 22.1952864,22.4337632 Z M20.5164523,20.6433793 C20.4283965,20.6446251 20.3418456,20.6634991 20.2634773,20.6985452 C20.054027,20.7967927 19.9302187,20.993147 19.9472585,21.2000533 C19.9537828,21.4322977 20.1093424,21.6416489 20.3497187,21.741682 C20.4933458,21.8016664 20.641215,21.8535944 20.792425,21.8971495 C21.9460318,22.2428707 23.2134597,22.1468431 24.2814522,21.6328008 C25.3494447,21.1187584 26.1183483,20.2346663 26.3981212,19.199036 C26.4502408,19.0134365 26.6390479,18.8816833 26.8580757,18.8780708 L31.7565918,18.8780708 C32.7014826,18.8620624 33.4630688,18.1977504 33.4814214,17.3735466 L33.4814214,13.5319947 C33.4724137,12.6337315 32.6481413,11.9036444 31.6186054,11.8820331 L26.6165996,11.8820331 L26.1796428,10.4677803 C26.012901,9.92562231 25.4490502,9.54903089 24.8055285,9.55002046 L19.6885341,9.55002046 C18.985573,9.55240018 18.3701503,9.96218437 18.1821829,10.5530366 L17.7682238,11.8820331 L17.1932806,11.8820331 L13.2204231,11.8820331 C11.9424916,11.8985047 10.9173628,12.8083464 10.9206503,13.923171 L10.9206503,15.1518658 C10.9188433,15.3095505 10.996642,15.4599469 11.1333793,15.5631024 C11.2639644,15.6708004 11.4447704,15.7190418 11.622081,15.6934945 C11.942193,15.6485084 12.1752743,15.4045355 12.168277,15.1217753 L12.168277,14.3845584 C12.1667495,14.0094745 12.3361055,13.6492241 12.639088,13.3830592 C12.9420706,13.1168943 13.3538605,12.9666182 13.7838674,12.9652905 L18.7168801,12.9652905 C18.747007,12.9639241 18.7726226,12.9456428 18.7801238,12.9201548 L19.314821,11.2100122 C19.4150645,10.8887371 19.7387514,10.6588286 20.1197415,10.638293 L24.1443438,10.638293 C24.5915143,10.6365656 24.9836914,10.8982819 25.0987495,11.2752083 L25.610449,12.9251699 C25.6214868,12.9505991 25.6483649,12.9681829 25.6794422,12.9703056 L31.0436622,12.9703056 C31.7139306,12.9783274 32.2559408,13.4488892 32.2682912,14.0335027 L32.2682912,16.8068425 C32.2682912,17.3303257 31.7817847,17.7546927 31.1816486,17.7546927 L25.8691734,17.7546927 C25.5384583,17.7734734 25.2842381,18.0173981 25.2942302,18.3063516 C25.2965853,18.5695071 25.2539543,18.8314988 25.1677427,19.0836892 C24.7737345,20.2180604 23.577128,20.9952918 22.2182841,20.99945 C21.7388804,21.0007251 21.2659719,20.9027549 20.8384205,20.7135904 C20.7393302,20.6674924 20.6287545,20.6433793 20.5164523,20.6433793 Z" id="Shape"></path>
                                <path d="M22.1952864,22.4086878 C21.6840425,22.4081393 21.1766215,22.3318272 20.6946847,22.1830091 C20.5291124,22.1366086 20.3676902,22.0796163 20.2117324,22.0124964 C19.8425991,21.8615094 19.6040046,21.540577 19.5965431,21.185008 C19.585704,20.861186 19.7862044,20.5599843 20.113992,20.4076705 C20.3943405,20.2775009 20.7305549,20.2775009 21.0109034,20.4076705 C21.3849399,20.5734292 21.7987443,20.6593699 22.2182841,20.6584246 C23.4110233,20.6524252 24.4600769,19.9691787 24.8055285,18.9733574 C24.8842344,18.7560391 24.9230433,18.5292305 24.9205172,18.3013365 C24.9231527,17.8402618 25.3410153,17.4625169 25.8691734,17.4437577 L31.1644003,17.4437577 C31.5581404,17.4437577 31.8773298,17.165337 31.8773298,16.8218877 L31.8773298,14.0335027 C31.865565,13.6345362 31.5008448,13.3120121 31.0436622,13.2962859 L25.7196882,13.2962859 C25.5259994,13.2997517 25.3528182,13.191559 25.2942302,13.0304866 L24.7825308,11.380525 C24.7106471,11.152333 24.4785921,10.9904005 24.2075876,10.9793185 L20.1197415,10.9793185 C19.8841171,10.9805217 19.6778168,11.1175294 19.6137914,11.3153289 L19.0963426,13.0304866 C19.0463109,13.1995195 18.8710202,13.3172949 18.6708846,13.3163462 L13.737872,13.3163462 C13.4069797,13.3176732 13.0902446,13.4336048 12.8573467,13.6386367 C12.6244488,13.8436685 12.4944663,14.1210051 12.4959947,14.4096338 L12.4959947,15.1418356 C12.506591,15.5924809 12.1283154,15.9785126 11.6163316,16.0395351 C11.3331157,16.0665201 11.0500612,15.9875073 10.8374265,15.8221088 C10.6247919,15.6567104 10.5025131,15.4204337 10.5009418,15.1719261 L10.5009418,13.9181559 C10.499404,13.2890768 10.7856108,12.68545 11.2961126,12.2410938 C11.8066145,11.7967377 12.4992337,11.548365 13.2204231,11.5510377 L17.5037499,11.5510377 L17.8199687,10.4727953 C18.050075,9.73741136 18.8146346,9.22645909 19.6885341,9.22404021 L24.8055285,9.22404021 C25.6150467,9.22931913 26.3208829,9.70544706 26.5303581,10.387539 L26.8925723,11.5610679 L31.6186054,11.5610679 C32.8887349,11.5610679 33.9183782,12.4591992 33.9183782,13.5671002 L33.9183782,17.3484712 C33.9183782,17.8406016 33.6942537,18.3125756 33.2953094,18.6605643 C32.8963652,19.0085531 32.3552807,19.2040511 31.7910884,19.2040511 L26.8580757,19.2040511 C26.8123477,19.2057797 26.7741191,19.2349573 26.7660848,19.2742622 C26.2644449,21.1330434 24.3556937,22.4421137 22.1665392,22.4287481 L22.1952864,22.4086878 Z M20.5164523,20.6183039 C20.42403,20.6195284 20.3333087,20.640172 20.2519784,20.6784849 C20.037951,20.7743856 19.9076655,20.9703246 19.9185113,21.179993 C19.9222346,21.4222347 20.0856435,21.6409222 20.3382199,21.741682 C20.4821882,21.8024406 20.6299947,21.856021 20.7809261,21.9021646 C21.9450634,22.2560622 23.2267263,22.1621078 24.3068191,21.6436933 C25.3869119,21.1252788 26.16382,20.2311764 26.4441166,19.1839908 C26.4934232,19.010239 26.670165,18.8869051 26.875324,18.8830859 L31.7738401,18.8830859 C32.7581904,18.8830859 33.556164,18.1870342 33.556164,17.3284109 L33.556164,13.5319947 C33.5466977,12.6044689 32.6819896,11.8569209 31.6186054,11.8569577 L26.6395973,11.8569577 L26.2083899,10.4627652 C26.0375073,9.90879871 25.4631913,9.52281237 24.8055285,9.51992998 L19.6885341,9.51992998 C18.97752,9.51787711 18.3510794,9.92718642 18.1534357,10.5229461 L17.7509755,11.8318822 L17.1760323,11.8318822 L13.2204231,11.8318822 C11.9166826,11.8374028 10.8631406,12.760863 10.863156,13.8980956 L10.863156,15.1267904 C10.8636418,15.2908787 10.9428752,15.4472928 11.0816344,15.5580873 C11.2212544,15.6663827 11.4082673,15.7158705 11.5933338,15.6934945 C11.9293373,15.6483185 12.1751262,15.3931881 12.168277,15.0966999 L12.168277,14.3845584 C12.1667494,14.0161249 12.3330767,13.6622525 12.6306681,13.4007901 C12.9282595,13.1393278 13.3327376,12.9916936 13.7551203,12.9903659 L18.6881329,12.9903659 C18.7311632,12.9915535 18.7693824,12.9665503 18.7801238,12.930185 L19.3090715,11.2150273 C19.4119796,10.8963282 19.740317,10.6728954 20.1197415,10.6633684 L24.1443438,10.6633684 C24.5776561,10.6618529 24.9577614,10.9151535 25.0700024,11.2802234 L25.5874513,12.9352 C25.5981927,12.9715654 25.6364119,12.9965686 25.6794422,12.995381 L31.0436622,12.995381 C31.6980567,13.0033961 32.2272018,13.4627366 32.2395441,14.0335027 L32.2395441,16.8068425 C32.2395441,17.0515776 32.1280875,17.286289 31.9296936,17.4593428 C31.7312998,17.6323967 31.4622199,17.7296173 31.1816486,17.7296173 L25.8691734,17.7296173 C25.5135372,17.7296173 25.2252371,17.9810941 25.2252371,18.2913064 C25.228013,18.5511957 25.1853608,18.8099359 25.0987495,19.0586138 C24.708082,20.1821417 23.5240033,20.9527063 22.1780381,20.9593294 C21.7049005,20.9599801 21.2381882,20.8637874 20.8154227,20.6784849 C20.7222078,20.6391044 20.6200244,20.6185355 20.5164523,20.6183039 Z" id="Shape"></path>
                                <path d="M22.1952864,22.5842156 C21.6529327,22.5850625 21.1143727,22.5053539 20.6026937,22.3485068 C20.4317533,22.2995678 20.2646635,22.2409335 20.1024932,22.172979 C19.657825,21.9893353 19.3737489,21.5991114 19.3723153,21.1699628 C19.35248,20.7772458 19.5974728,20.4106213 19.9990034,20.2321427 C20.3368463,20.075226 20.7420537,20.075226 21.0798966,20.2321427 C21.4260584,20.3836757 21.8079788,20.4626675 22.1952864,20.4628364 C23.3001862,20.4580276 24.2724388,19.8255336 24.5927995,18.9031463 C24.6657329,18.713571 24.7082976,18.516117 24.719287,18.3163818 C24.7157084,17.7536426 25.2245002,17.2898654 25.8691734,17.2682299 L31.1644003,17.2682299 C31.4470041,17.2682299 31.6760997,17.0683957 31.6760997,16.8218877 L31.6760997,14.0335027 C31.6646038,13.7313834 31.3897571,13.4872828 31.0436622,13.4718137 L25.7196882,13.4718137 C25.4279682,13.4731643 25.1723335,13.3017973 25.0987495,13.055562 L24.5870501,11.4056004 C24.5379415,11.2466772 24.3732821,11.1358784 24.1845899,11.134786 L20.1197415,11.134786 C19.9733995,11.1352918 19.8458568,11.2218213 19.8092721,11.3454194 L19.2803244,13.055562 C19.204967,13.3007683 18.9504222,13.4714047 18.6593857,13.4718137 L13.737872,13.4718137 C13.1590343,13.4745728 12.6914667,13.8846608 12.6914753,14.3895735 L12.6914753,15.1217753 C12.7030914,15.6603564 12.2510933,16.121411 11.6393293,16.1950026 C11.2980956,16.231047 10.9555801,16.1372738 10.699162,15.9376055 C10.4427438,15.7379372 10.2972187,15.4516817 10.2997116,15.1518658 L10.2997116,13.9181559 C10.2995597,12.5274874 11.5802775,11.3947104 13.1744276,11.3755099 L17.3025198,11.3755099 L17.5957408,10.4226445 C17.8494048,9.61006179 18.694303,9.04552056 19.6597869,9.0434973 L24.7767814,9.0434973 C25.6798567,9.04497746 26.4705317,9.57250462 26.7085905,10.3323731 L27.0305587,11.380525 L31.6186054,11.380525 C32.9782034,11.3860155 34.0788172,12.3460525 34.0851117,13.5319947 L34.0851117,17.3133656 C34.0696051,18.4156154 33.0489896,19.3058719 31.7853389,19.319398 L26.9443172,19.319398 C26.3941897,21.2158125 24.4379116,22.5441686 22.1952864,22.544095 L22.1952864,22.5842156 Z M20.5164523,20.7938317 C20.4560541,20.7946533 20.3968167,20.8084323 20.3439693,20.8339524 C20.1996599,20.9000125 20.1122389,21.0329701 20.1197415,21.1749779 C20.1242354,21.3498172 20.2393214,21.5081191 20.4187119,21.5862145 C20.5566983,21.6397087 20.7004341,21.6898595 20.8499193,21.7366669 C21.9578007,22.0684392 23.1748856,21.9758765 24.2002252,21.4818669 C25.2255647,20.9878573 25.9634368,20.1385198 26.2313876,19.1438701 C26.3038156,18.8919321 26.5603771,18.7133092 26.8580757,18.7075581 L31.7565918,18.7075581 C32.1769192,18.7088913 32.5805552,18.5641775 32.8783125,18.3053926 C33.1760697,18.0466077 33.3434378,17.695054 33.343435,17.3284109 L33.343435,13.5319947 C33.343435,12.7010689 32.5712025,12.0274704 31.6186054,12.0274704 L26.4843627,12.0274704 L26.0129092,10.5229461 C25.8668985,10.0461349 25.3713224,9.71472162 24.8055285,9.71551813 L19.6885341,9.71551813 C19.0610066,9.71700186 18.5122793,10.0847129 18.3489164,10.6132176 L17.9004607,12.0274704 L17.1817817,12.0274704 L13.2204231,12.0274704 C12.647081,12.0287987 12.0978268,12.228742 11.693491,12.5833147 C11.2891552,12.9378874 11.0628592,13.4180445 11.0643861,13.9181559 L11.0643861,15.1468507 C11.0636387,15.260611 11.1204358,15.3688708 11.2196208,15.4427405 C11.3129489,15.5209674 11.442026,15.5578823 11.5703361,15.5430421 C11.8038433,15.5040383 11.9712897,15.3241104 11.9670469,15.1167602 L11.9670469,14.3845584 C11.9655196,13.9695721 12.1530479,13.5710536 12.4883773,13.2766735 C12.8237066,12.9822934 13.2793681,12.816166 13.7551203,12.8148381 L18.6076408,12.8148381 L19.1193403,11.1698916 C19.2419333,10.7738503 19.649541,10.4959526 20.1197415,10.4878406 L24.1443438,10.4878406 C24.6805514,10.4724367 25.1577139,10.782518 25.2942302,11.2350876 L25.7886814,12.8198532 L31.0436622,12.8198532 C31.8091763,12.8279094 32.4283816,13.3658035 32.4407742,14.0335027 L32.4407742,16.8068425 C32.4376263,17.4122773 31.8757364,17.9023994 31.1816486,17.9051452 L25.8691734,17.9051452 C25.6259685,17.9078479 25.4295657,18.079165 25.4264672,18.2913064 C25.4314454,18.5747192 25.3868541,18.8571374 25.2942302,19.1288249 C24.8734155,20.3198127 23.6125456,21.1329914 22.1837875,21.1348572 C21.6784179,21.1366335 21.1798172,21.0334912 20.7291812,20.8339524 C20.6623903,20.8074273 20.5898398,20.7937442 20.5164523,20.7938317 Z" id="Shape"></path>
                                <ellipse id="Oval" cx="22.2240336" cy="18.3765628" rx="1.23612788" ry="1.07824238"></ellipse>
                                <path d="M24.5115889,23.9817684 L24.5115889,23.9817684 C25.0612826,24.0085957 25.5015964,24.4468805 25.5309622,24.9964444 L26.2015932,37.5469177 C26.2273668,38.0292553 25.8572485,38.4411608 25.374911,38.4669343 C25.3451672,38.4685237 25.3153616,38.4685925 25.2856107,38.4671405 L25.2856107,38.4671405 C24.735917,38.4403133 24.2956033,38.0020285 24.2662375,37.4524646 L23.5956065,24.9019912 C23.5698329,24.4196537 23.9399512,24.0077482 24.4222887,23.9819746 C24.4520325,23.9803853 24.4818381,23.9803165 24.5115889,23.9817684 Z" id="Rectangle" transform="translate(24.898600, 31.224454) rotate(-24.200000) translate(-24.898600, -31.224454) "></path>
                                <path d="M27.8182309,37.9253479 C27.3499204,37.9245846 26.9252161,37.6854527 26.7315882,37.3135081 L20.8959148,25.9894555 C20.6260123,25.4659722 20.8937196,24.8507523 21.4938557,24.6153234 C22.0939919,24.3798944 22.7992975,24.6134085 23.0692001,25.1368918 L28.8991241,36.4609443 C29.0319491,36.7088927 29.0459542,36.9928033 28.938037,37.2497874 C28.8301198,37.5067715 28.6091884,37.7156165 28.3241809,37.8300614 C28.1664299,37.8959901 27.9931135,37.9286311 27.8182309,37.9253479 Z M21.9825574,24.8861377 C21.7196996,24.8893229 21.4759895,25.0066834 21.3328431,25.1990127 C21.1896966,25.391342 21.1659843,25.6332857 21.2696278,25.8440182 L27.0995519,37.1680707 C27.2789577,37.5142898 27.7461583,37.6680948 28.1430738,37.5116038 C28.5399892,37.3551127 28.7163157,36.9475857 28.5369099,36.6013666 L22.7012364,25.2823291 C22.5743604,25.0352332 22.2929504,24.8761708 21.9825574,24.8761075 L21.9825574,24.8861377 Z" id="Shape"></path>
                                <path d="M22.1952864,0.166804186 C11.5610258,0.165476067 2.44835215,6.80003126 0.548647976,15.926813 C-1.3510562,25.0535948 4.5062308,34.0589502 14.4623004,37.3185231 C16.0203965,37.8751971 16.8713124,36.5211253 17.1012897,36.0747831 L17.1702828,35.9343608 L22.3850177,25.8139277 C22.6104656,25.3790765 22.3890923,24.8671417 21.8905665,24.6704892 C21.3920407,24.4738368 20.805144,24.666935 20.579696,25.1017862 L15.6926788,34.5953342 C15.4349087,35.1015927 14.7684463,35.3438169 14.1748288,35.1469931 C6.45279295,32.1559674 1.75836919,25.2194317 2.48700481,17.8769271 C3.21564043,10.5344225 9.20669944,4.40468763 17.4030939,2.6155732 C25.5994884,0.826458771 34.19423,3.77239542 38.8016365,9.95014518 C43.4090431,16.1278949 43.0133594,24.1755027 37.8164931,29.9864749 C37.7634413,30.0218892 37.7169083,30.06417 37.6785067,30.111852 C37.0558631,30.8032507 36.3755833,31.4536334 35.6432078,32.0577033 L34.142606,33.1610211 C33.6663075,33.4892368 33.5852231,34.0921074 33.961499,34.5075703 C34.3377748,34.9230332 35.0289229,34.993761 35.5052214,34.6655454 C36.0801646,34.2994445 36.5976135,33.9032531 37.1093129,33.4920165 L37.2013039,33.4268204 C43.8386919,28.0532473 46.0238909,19.6812936 42.7076222,12.3309655 C39.3913534,4.98063738 31.2509711,0.153253263 22.1952864,0.166804186 Z" id="Path"></path>
                                <path d="M15.1924782,37.6294582 C14.9135431,37.6262847 14.6380639,37.5751584 14.3818083,37.4790057 C5.09928086,34.4341657 -0.740631898,26.3869137 0.0758759527,17.7657927 C0.892383803,9.14467183 8.16710317,2.04247836 17.896629,0.367673319 C27.6261549,-1.30713172 37.4486233,2.85201432 41.9585583,10.5562608 C46.4684934,18.2605073 44.5710985,27.6396312 37.3105431,33.5321371 L37.2070533,33.6073633 C36.7011033,34.0185999 36.1549072,34.4147913 35.5972123,34.7859073 C35.038262,35.1445554 34.254464,35.0546552 33.8208069,34.582157 C33.3871499,34.1096587 33.4581058,33.4228699 33.981622,33.0256139 L35.4822237,31.9222961 C36.2180203,31.328627 36.900382,30.6864747 37.5232721,30.0015202 C37.5708774,29.9466873 37.6248227,29.8962712 37.6842561,29.8510678 C42.8260977,24.0876064 43.2078387,16.112857 38.6347137,9.99556207 C34.0615887,3.87826711 25.5416154,0.966813536 17.4217113,2.74663419 C9.30180724,4.52645485 3.37177859,10.6052379 2.65714478,17.881569 C1.94251096,25.1579002 6.60079308,32.0279151 14.2553208,34.9865105 C14.7490729,35.1602885 15.3114502,34.9573803 15.5201959,34.5301382 L15.6006879,34.3546104 L20.4014636,25.02656 C20.6794527,24.5102688 21.382915,24.2863228 21.976808,24.5250519 C22.5662148,24.7695117 22.8220768,25.3810299 22.5517512,25.899184 L17.3772624,35.9945418 L17.2795221,36.1550244 C17.0840414,36.5361705 16.4113578,37.6294582 15.1924782,37.6294582 Z M22.1952864,0.342332016 C11.6593641,0.341778154 2.63126517,6.91500695 0.748654937,15.9573155 C-1.13395529,24.9996241 4.66793602,33.922096 14.5312936,37.1530255 C15.7789203,37.5993677 16.5148476,36.7016682 16.8310664,36.1500093 L16.8023192,36.1500093 L16.9115584,36.009587 L22.1952864,25.7487316 C22.3730042,25.40251 22.1954181,24.9961682 21.7985756,24.841002 C21.4015672,24.6889389 20.9381383,24.8430404 20.7579284,25.1870426 L15.7904192,34.8360581 C15.4380634,35.3173638 14.7530726,35.524829 14.1345828,35.3375662 C6.31902388,32.3378579 1.5493919,25.3403142 2.26124971,17.9181579 C2.97310752,10.4960016 9.0093762,4.28700954 17.287698,2.46173881 C25.5660199,0.636468073 34.2596961,3.59768386 38.9293916,9.83327217 C43.599087,16.0688605 43.2143843,24.2028732 37.9717277,30.0817615 C37.92401,30.1205184 37.8797993,30.1624357 37.8394908,30.2071385 C37.2015007,30.9088699 36.5038477,31.5677075 35.752447,32.1780653 L34.2403464,33.2863981 C33.8933206,33.5633151 33.8527501,34.027799 34.1476745,34.3473786 C34.442599,34.6669582 34.9714731,34.7315993 35.3557362,34.4950326 C35.9068376,34.130788 36.4364622,33.7424588 36.9425794,33.3315339 L37.0403198,33.2613227 C43.5883623,27.9369016 45.7383143,19.6615251 42.4614187,12.3949805 C39.184523,5.12843586 31.1471837,0.348479585 22.1952864,0.342332016 Z" id="Shape"></path>
                            </g>
                            <path d="M71.4596901,13.214738 C71.3106035,13.0758165 71.1028897,12.9960959 70.8847469,12.9940745 L69.3324002,12.9940745 C69.1139657,12.9949082 68.9057367,13.0748266 68.757457,13.214738 C68.5904757,13.3550772 68.4969311,13.5490956 68.4987326,13.7513517 L68.4987326,31.138637 C68.4969311,31.3408931 68.5904757,31.5349115 68.757457,31.6752507 C68.9057367,31.8151622 69.1139657,31.8950806 69.3324002,31.8959142 L70.8847469,31.8959142 C71.1028897,31.8938928 71.3106035,31.8141722 71.4596901,31.6752507 C71.6223442,31.5327686 71.7133575,31.3397102 71.7126651,31.138637 L71.7126651,20.2408663 C71.7126651,17.2318178 73.4374947,15.7272936 76.8239101,15.7272936 L79.2616692,15.7272936 C79.4805246,15.7233904 79.6881181,15.6419051 79.8366124,15.5016149 C80.0000327,15.3616353 80.0913247,15.1697955 80.0895875,14.9700163 L80.0895875,13.7513517 C80.0902798,13.5502785 79.9992666,13.3572201 79.8366124,13.214738 C79.6875259,13.0758165 79.4798121,12.9960959 79.2616692,12.9940745 L77.0768851,12.9940745 C76.0680208,12.9595122 75.0638728,13.1312557 74.1446748,13.4955826 C73.3639096,13.8579435 72.7072458,14.3943941 72.2416128,15.0502576 L71.7126651,15.752369 L71.7126651,13.7463366 C71.7118376,13.547001 71.6209394,13.3559887 71.4596901,13.214738 Z" id="Path" fill="#FFFFFF"></path>
                            <path d="M96.8031862,31.6752507 C96.9522728,31.8141722 97.1599865,31.8938928 97.3781294,31.8959142 L98.930476,31.8959142 C99.1489106,31.8950806 99.3571395,31.8151622 99.5054192,31.6752507 C99.671834,31.5345732 99.7652716,31.3407766 99.7641437,31.138637 L99.7641437,19.7594186 C99.7862229,18.7067987 99.5713532,17.6606246 99.1317062,16.6801589 C98.7509473,15.8380216 98.1620284,15.0794597 97.4068766,14.4584781 C96.6376064,13.8438938 95.7286622,13.3774118 94.7391401,13.089361 C93.6401986,12.7694749 92.4882095,12.61019 91.329727,12.6179434 C90.3137548,12.6129968 89.3037472,12.7536186 88.3400223,13.0341951 C87.4567949,13.2887587 86.6188142,13.6500129 85.8505183,14.1074224 C85.1967033,14.4923058 84.6311991,14.9804777 84.183183,15.5467506 C83.8116938,16.0115902 83.5767534,16.5488919 83.4990006,17.1114559 C83.4762394,17.3004334 83.5598002,17.4873256 83.7232285,17.612964 C83.8881121,17.7565143 84.111211,17.8375991 84.3441671,17.8386426 L85.6032927,17.8386426 C85.8359009,17.8474418 86.0682564,17.8167846 86.2874751,17.7483711 C86.4603271,17.6730393 86.608629,17.5609275 86.7186825,17.4223909 C87.1791022,16.8519466 87.7467011,16.3534537 88.3975167,15.9479571 C89.2817903,15.470112 90.3145665,15.2440197 91.3527247,15.3010117 C92.6741161,15.2621037 93.9714907,15.6157495 95.0323612,16.3040279 C96.0748927,17.0458093 96.6406324,18.182309 96.5502112,19.353197 L96.5502112,20.0603234 L90.3925696,20.9580229 C89.2746614,21.1208697 88.1745241,21.365808 87.1038945,21.6902247 C86.1464184,21.9777666 85.2463201,22.3940222 84.436158,22.9239346 C83.7002168,23.4089902 83.0972789,24.030852 82.6710824,24.7444089 C82.2243592,25.5216767 82.0032417,26.382726 82.027146,27.2519494 C82.020617,27.9447678 82.1915077,28.6301172 82.5273466,29.2579817 C82.8627481,29.8616342 83.3454865,30.3939754 83.9417069,30.8176718 C84.6029263,31.2821718 85.3547007,31.6389289 86.1609876,31.8708388 C87.7531133,32.3286458 89.4573775,32.4031483 91.0940003,32.0864873 C91.7954538,31.9665916 92.4812087,31.7851255 93.140798,31.5448586 C93.7693566,31.3197074 94.360946,31.0229068 94.9001242,30.6622043 C95.3660623,30.3585648 95.7408563,29.9610951 95.9925163,29.5037207 L96.5674595,28.5007045 L96.5674595,31.1637124 C96.568991,31.3541017 96.653229,31.5369024 96.8031862,31.6752507 Z M96.0500106,26.1235562 C95.718702,26.8162485 95.2206844,27.4387858 94.5896549,27.9490456 C93.9324327,28.4672937 93.1673521,28.870774 92.3358776,29.1376198 C91.4143486,29.4277774 90.4408448,29.572135 89.4611616,29.5639016 C88.8100987,29.5783483 88.1609012,29.496967 87.5408513,29.3231777 C87.0610363,29.1883515 86.618564,28.9680486 86.2414797,28.6762323 C85.9313311,28.4334952 85.6809575,28.1383214 85.5055524,27.8086233 C85.3533333,27.5189502 85.2730032,27.2044901 85.2698257,26.8858485 C85.2913278,25.8920366 85.942095,24.9903653 86.9601587,24.5438057 C88.2930252,23.9033433 89.7517583,23.4865763 91.2607338,23.3151109 L96.5444618,22.5628488 L96.5444618,23.7865285 C96.5579936,24.5863612 96.3899492,25.3806243 96.0500106,26.1235562 Z" id="Shape" fill="#FFFFFF"></path>
                            <path d="M122.411156,12.9940745 L120.686327,12.9940745 C120.467921,12.984325 120.256309,13.0618501 120.111383,13.2047079 C119.95567,13.3515652 119.831083,13.5213692 119.74342,13.706216 L112.970589,27.8336987 L106.197758,13.7363065 C106.109476,13.540757 105.97867,13.361946 105.812546,13.209723 C105.61335,13.0501282 105.345877,12.9717508 105.076619,12.9940745 L103.524272,12.9940745 C103.332908,12.9897241 103.148627,13.0573095 103.018322,13.1796325 C102.877825,13.2993829 102.80076,13.4647116 102.805593,13.6360048 C102.804643,13.6987551 102.81433,13.7612833 102.83434,13.8215628 L111.176766,31.1185767 C111.281404,31.3245108 111.420951,31.5155483 111.590725,31.6852808 C111.750402,31.833962 111.978782,31.9114325 112.211664,31.8959142 L113.764011,31.8959142 C113.98055,31.9081875 114.191853,31.8344616 114.338954,31.695311 C114.497575,31.5151025 114.632569,31.3199709 114.741414,31.1135616 L123.089589,13.8015025 C123.097907,13.7465752 123.097907,13.6909322 123.089589,13.6360048 C123.094422,13.4647116 123.017357,13.2993829 122.87686,13.1796325 C122.75611,13.0661987 122.58851,12.9994195 122.411156,12.9940745 Z" id="Path" fill="#FFFFFF"></path>
                            <path d="M143.781795,21.8105866 C143.79865,20.5094722 143.57739,19.2143457 143.12636,17.9740498 C142.735015,16.9063268 142.09714,15.919822 141.252045,15.075333 C140.444128,14.28157 139.439337,13.6589623 138.314085,13.2548587 C137.062849,12.816421 135.723985,12.5998988 134.375724,12.6179434 C133.11212,12.6044482 131.858467,12.8142829 130.690338,13.2347984 C129.625319,13.6238391 128.664161,14.2009815 127.867367,14.9298957 C127.063149,15.6739516 126.413369,16.5343131 125.947057,17.4725417 C125.451254,18.4650907 125.148149,19.5226555 125.050146,20.6019521 C124.912173,21.7254599 124.912173,22.8586089 125.050146,23.9821166 C125.14196,25.1193879 125.44689,26.2358383 125.952806,27.2870549 C126.412294,28.2530027 127.068765,29.1382739 127.890365,29.899912 C128.690469,30.6355405 129.649996,31.2253404 130.713336,31.63513 C131.870009,32.0669345 133.117691,32.2822069 134.375724,32.2670302 C135.659963,32.2857953 136.93985,32.1318657 138.170349,31.8106578 C139.127111,31.5590981 140.03441,31.181993 140.861083,30.6922948 C141.502336,30.3137726 142.053017,29.8300211 142.482423,29.2680119 C142.812758,28.8528501 143.04352,28.3837484 143.160856,27.8888646 C143.209155,27.7018883 143.131056,27.5072505 142.959626,27.3873565 C142.785061,27.2399064 142.552894,27.1556754 142.30994,27.1516477 L141.050815,27.1516477 C140.839212,27.140733 140.627403,27.1698149 140.429876,27.2369041 C140.237935,27.3363815 140.063623,27.4597091 139.912427,27.603005 C139.358538,28.1408337 138.708019,28.5964718 137.986367,28.9520618 C136.864674,29.4291964 135.621822,29.6484345 134.375724,29.588977 C132.770497,29.6277302 131.212605,29.112282 130.040652,28.1546639 C128.890766,27.2068136 128.269827,25.8376966 128.212333,24.0824183 L128.212333,23.57088 L142.936628,23.57088 C143.155484,23.5669768 143.363077,23.4854915 143.511572,23.3452014 C143.674992,23.2052218 143.766284,23.013382 143.764547,22.8136028 L143.781795,21.8105866 Z M140.579361,20.9429776 L128.212333,20.9429776 L128.212333,20.5618315 C128.232423,19.822595 128.409835,19.0930526 128.735531,18.4103618 C129.043601,17.7822451 129.49555,17.2156559 130.06365,16.745355 C130.626032,16.2866108 131.28366,15.9257505 132.001209,15.6821578 C132.75968,15.4317075 133.564747,15.3058826 134.375724,15.3110418 C136.035515,15.246629 137.656087,15.762957 138.877529,16.745355 C140.040117,17.7505171 140.665852,19.1350619 140.602359,20.5618315 L140.579361,20.9429776 Z" id="Shape" fill="#FFFFFF"></path>
                            <path d="M150.571874,5.90275016 L149.019527,5.90275016 C148.800672,5.90665334 148.593079,5.98813865 148.444584,6.1284288 C148.281164,6.2684084 148.189872,6.46024822 148.191609,6.66002737 L148.191609,31.138637 C148.190278,31.339819 148.281389,31.5330831 148.444584,31.6752507 C148.593671,31.8141722 148.801385,31.8938928 149.019527,31.8959142 L150.571874,31.8959142 C150.790309,31.8950806 150.998538,31.8151622 151.146817,31.6752507 C151.312259,31.5343977 151.40378,31.340263 151.399792,31.138637 L151.399792,6.66002737 C151.4031,6.45851374 151.311685,6.26460417 151.146817,6.12341372 C150.996954,5.98545189 150.789731,5.90591963 150.571874,5.90275016 Z" id="Path" fill="#FFFFFF"></path>
                            <path d="M160.02394,13.214738 C159.874854,13.0758165 159.66714,12.9960959 159.448997,12.9940745 L157.89665,12.9940745 C157.678216,12.9949082 157.469987,13.0748266 157.321707,13.214738 C157.154726,13.3550772 157.061181,13.5490956 157.062983,13.7513517 L157.062983,38.2299613 C157.060707,38.4308366 157.154456,38.6234613 157.321707,38.7615599 C157.469393,38.9028267 157.677493,38.9845112 157.89665,38.9872386 L159.448997,38.9872386 C159.667852,38.9833354 159.875446,38.9018501 160.02394,38.7615599 C160.18736,38.6215803 160.278652,38.4297405 160.276915,38.2299613 L160.276915,29.2028158 L160.794364,29.8096406 C161.417158,30.4900306 162.186746,31.0573913 163.05964,31.4796625 C164.300043,32.0407393 165.688588,32.3054711 167.084243,32.2469699 C168.305995,32.2554518 169.517557,32.0526116 170.648891,31.6501753 C171.731411,31.2626619 172.710201,30.6838033 173.523607,29.9500629 C174.369188,29.1694751 175.033063,28.2531646 175.478413,27.2519494 C175.988932,26.0956816 176.278336,24.8741423 176.335079,23.6360761 C176.363826,23.259945 176.381074,22.8587385 176.381074,22.4374717 C176.381074,22.0162049 176.381074,21.6149985 176.335079,21.2438825 C176.278237,20.0041999 175.988847,18.7810246 175.478413,17.6229941 C175.028193,16.616786 174.362874,15.6943671 173.517857,14.9048203 C172.708746,14.1629318 171.729132,13.5784595 170.643141,13.1896626 C169.511808,12.7872263 168.300245,12.5843861 167.078493,12.592868 C165.703944,12.5405523 164.336745,12.7942544 163.105636,13.3300849 C162.208478,13.7468041 161.424243,14.3265512 160.805863,15.0301973 L160.288414,15.6520673 L160.288414,13.7513517 C160.28607,13.5488279 160.190817,13.3555627 160.02394,13.214738 Z M160.276915,20.8276308 C160.281156,19.3258743 160.960278,17.885435 162.168478,16.8155661 C163.36954,15.8102239 164.983404,15.2680936 166.647286,15.3110418 C168.386913,15.2356723 170.074053,15.8427274 171.246831,16.9660185 C172.413538,18.2140361 173.052955,19.7739578 173.057903,21.3843048 C173.08665,22.0914312 173.08665,22.7985576 173.057903,23.5006689 C173.04383,25.1100143 172.396336,26.666291 171.223834,27.9089249 C170.051055,29.0322161 168.363915,29.6392712 166.624288,29.5639016 C164.951521,29.6175104 163.325934,29.0742317 162.122483,28.0593774 C160.972597,27.0563612 160.340159,25.6270632 160.253918,23.8015737 C160.253918,23.4304577 160.207922,22.9289497 160.207922,22.2970495 C160.207922,21.6651493 160.248168,21.2037618 160.276915,20.8276308 Z" id="Shape" fill="#FFFFFF"></path>
                            <path d="M181.716547,12.9940745 C181.498113,12.9949082 181.289884,13.0748266 181.141604,13.214738 C180.976162,13.355591 180.884641,13.5497257 180.888629,13.7513517 L180.888629,31.138637 C180.884641,31.340263 180.976162,31.5343977 181.141604,31.6752507 C181.289884,31.8151622 181.498113,31.8950806 181.716547,31.8959142 L183.268894,31.8959142 C183.487328,31.8950806 183.695557,31.8151622 183.843837,31.6752507 C184.008705,31.5340602 184.100119,31.3401506 184.096812,31.138637 L184.096812,13.7513517 C184.100119,13.5498381 184.008705,13.3559285 183.843837,13.214738 C183.695557,13.0748266 183.487328,12.9949082 183.268894,12.9940745 L181.716547,12.9940745 Z M181.141604,5.89773508 C180.923605,5.90033534 180.716139,5.97996067 180.566661,6.11839864 C180.4106,6.25040404 180.319824,6.43036108 180.313686,6.61990673 L180.313686,8.72624068 C180.317319,8.91627149 180.408497,9.09702661 180.566661,9.22774877 C180.714102,9.36868212 180.922872,9.44880823 181.141604,9.44841233 L183.50462,9.44841233 C183.723352,9.44880823 183.932122,9.36868212 184.079564,9.22774877 C184.238827,9.09770441 184.330221,8.91652109 184.332539,8.72624068 L184.332539,6.63996705 C184.328905,6.44993625 184.237727,6.26918113 184.079564,6.13845896 C183.930477,5.99953747 183.722763,5.9198168 183.50462,5.91779541 L181.141604,5.89773508 Z" id="Shape" fill="#FFFFFF"></path>
                            <path d="M188.512376,31.8959142 L190.444185,31.8959142 C190.686556,31.9112131 190.926103,31.8427636 191.111119,31.7053412 C191.272487,31.5749128 191.422394,31.4340943 191.559575,31.2840744 L197.705717,24.4284588 L203.85186,31.2840744 C203.99117,31.4340555 204.142985,31.5748605 204.306065,31.7053412 C204.48869,31.8429519 204.726584,31.91152 204.96725,31.8959142 L206.979551,31.8959142 C207.172351,31.8991559 207.357908,31.8318673 207.491251,31.7103562 C207.625545,31.6014184 207.702486,31.4490513 207.70398,31.2890894 C207.707876,31.1528414 207.665899,31.0185856 207.583242,30.9029282 L199.861754,22.2970495 L207.301519,13.9670002 C207.378295,13.8569484 207.416284,13.7296358 207.410759,13.6008993 C207.392439,13.2628751 207.074275,12.9963616 206.68633,12.9940745 L204.754521,12.9940745 C204.513855,12.9784688 204.275961,13.0470368 204.093336,13.1846476 C203.931888,13.3165624 203.780182,13.4572664 203.639131,13.6059144 L197.889699,20.0904139 L192.082773,13.6059144 C191.943338,13.4560283 191.791532,13.3152311 191.628568,13.1846476 C191.445943,13.0470368 191.208049,12.9784688 190.967383,12.9940745 L188.949333,12.9940745 C188.758247,12.9910043 188.574541,13.058379 188.443383,13.1796325 C188.309089,13.2885703 188.232147,13.4409374 188.230654,13.6008993 C188.226757,13.7371473 188.268734,13.8714031 188.351392,13.9870605 L195.739412,22.2218233 L187.920184,30.9229885 C187.843408,31.0330403 187.80542,31.1603529 187.810945,31.2890894 C187.81105,31.4493089 187.888225,31.6021378 188.023674,31.7103562 C188.150733,31.8277725 188.327276,31.8948051 188.512376,31.8959142 Z" id="Path" fill="#FFFFFF"></path>
                            <path d="M57.816288,6.12341372 C57.6664243,5.98545189 57.4592015,5.90591963 57.2413448,5.90275016 L55.6889981,5.90275016 C55.4701428,5.90665334 55.2625492,5.98813865 55.1140549,6.1284288 C54.9506347,6.2684084 54.8593427,6.46024822 54.8610799,6.66002737 L54.7978362,12.7433204 L54.7978362,15.9529722 L54.8610799,25.617033 C54.8610799,27.6581709 55.3900277,29.2379214 56.4306749,30.3061336 C57.471322,31.3743458 59.1616551,31.8959142 61.5016739,31.8959142 L64.1406631,31.8959142 C64.3585199,31.8927448 64.5657427,31.8132125 64.7156063,31.6752507 C64.8782605,31.5327686 64.9692737,31.3397102 64.9685813,31.138637 L64.9685813,29.9450478 C64.9708568,29.7441725 64.8771081,29.5515479 64.7098569,29.4134492 C64.5621715,29.2721824 64.3540707,29.190498 64.1349137,29.1877706 L61.915633,29.1877706 C61.2718201,29.2067941 60.6297741,29.1182771 60.0240698,28.9269864 C59.5489213,28.7746813 59.1338645,28.5066301 58.828188,28.1546639 C58.541999,27.8078276 58.3458081,27.4108009 58.2532448,26.9911652 C58.1466855,26.539099 58.0946572,26.0785465 58.0980101,25.617033 L58.0980101,15.7022182 L63.7152052,15.7022182 C63.9343621,15.6994908 64.1424629,15.6178063 64.2901484,15.4765395 C64.4573995,15.3384409 64.5511483,15.1458162 64.5488728,14.9449409 L64.5488728,13.7513517 C64.5506743,13.5490956 64.4571297,13.3550772 64.2901484,13.214738 C64.1418687,13.0748266 63.9336397,12.9949082 63.7152052,12.9940745 L58.069263,12.9940745 L58.069263,6.66002737 C58.0725704,6.45851374 57.9811559,6.26460417 57.816288,6.12341372 Z" id="Path" fill="#FFFFFF"></path>
                        </g>
                    </g>
                </g>
            </g>
        </g>
    </g>
</svg>