<?xml version="1.0" encoding="UTF-8"?>
<svg width="16px" height="10px" viewBox="0 0 16 10" version="1.1" xmlns="http://www.w3.org/2000/svg" xmlns:xlink="http://www.w3.org/1999/xlink">
    <!-- Generator: Sketch 52.1 (67048) - http://www.bohemiancoding.com/sketch -->
    <title>Fill 452</title>
    <desc>Created with Sketch.</desc>
    <g id="Page-1" stroke="none" stroke-width="1" fill="none" fill-rule="evenodd">
        <g id="Photographer-register" transform="translate(-731.000000, -996.000000)" fill="#1D2332">
            <g id="Login-CTA" transform="translate(601.000000, 978.000000)">
                <path d="M145.206,22.29225 L141.207,18.29325 C140.816,17.90225 140.183,17.90225 139.793,18.29325 C139.402,18.68425 139.402,19.31625 139.793,19.70725 L142.086,22.00025 L131,22.00025 C130.447,22.00025 130,22.44725 130,23.00025 C130,23.55225 130.447,24.00025 131,24.00025 L142.086,24.00025 L139.793,26.29325 C139.402,26.68425 139.402,27.31625 139.793,27.70725 C139.988,27.90225 140.244,28.00025 140.5,28.00025 C140.756,28.00025 141.012,27.90225 141.207,27.70725 L145.206,23.70725 C145.592,23.32125 145.597,22.68425 145.206,22.29225" id="Fill-452"></path>
            </g>
        </g>
    </g>
</svg>